{"glyphs":{"0":{"ha":686,"x_min":90,"x_max":596,"o":"m 344 -7 q 183 51 239 -7 q 109 205 128 110 q 90 438 90 300 q 110 678 90 582 q 186 828 131 774 q 344 882 242 882 q 503 824 447 882 q 577 672 558 767 q 596 438 596 576 q 576 204 596 300 q 502 51 557 108 q 344 -7 447 -7 m 344 65 q 463 119 425 65 q 509 248 500 174 q 518 438 518 322 q 506 644 518 567 q 456 766 494 722 q 344 810 418 810 q 228 761 267 810 q 180 636 190 713 q 169 438 169 560 q 181 231 169 308 q 231 109 193 153 q 344 65 269 65 z "},"1":{"ha":542,"x_min":81,"x_max":478,"o":"m 108 0 l 108 68 l 261 68 l 261 792 l 107 719 l 81 782 l 81 783 l 271 871 l 347 871 l 347 68 l 478 68 l 478 0 l 108 0 z "},"2":{"ha":651,"x_min":83,"x_max":558,"o":"m 89 0 q 119 145 89 79 q 193 260 150 211 q 306 375 236 308 l 326 396 q 441 524 403 468 q 479 646 479 579 q 301 810 479 810 q 189 793 243 810 q 110 763 135 776 l 83 832 q 188 870 139 858 q 307 882 236 882 q 494 817 431 882 q 558 649 558 751 q 535 536 558 588 q 476 444 511 485 q 376 339 440 403 l 349 311 q 292 253 339 301 q 215 158 244 206 q 179 68 186 111 l 542 68 l 551 0 l 89 0 z "},"3":{"ha":679,"x_min":89,"x_max":590,"o":"m 299 -7 q 89 28 178 -7 l 108 99 q 204 74 151 82 q 303 65 257 65 q 456 106 399 65 q 513 244 513 146 q 453 378 513 332 q 313 425 394 425 q 193 413 253 425 l 188 482 q 406 540 335 501 q 478 665 478 578 q 433 772 478 735 q 307 810 388 810 q 108 776 208 810 l 89 844 q 304 882 206 882 q 488 828 421 882 q 556 674 556 775 q 513 542 556 589 q 386 468 471 494 q 486 431 439 464 q 562 347 533 399 q 590 236 590 296 q 508 51 590 110 q 299 -7 425 -7 z "},"4":{"ha":679,"x_min":43,"x_max":608,"o":"m 413 0 l 413 176 l 43 176 l 43 242 l 279 871 l 364 871 l 136 244 l 413 244 l 413 540 l 499 540 l 499 244 l 608 244 l 608 176 l 499 176 l 499 0 l 413 0 z "},"5":{"ha":678,"x_min":89,"x_max":586,"o":"m 300 -7 q 186 5 250 -7 q 89 33 122 17 l 107 108 q 202 78 143 92 q 306 65 261 65 q 449 114 399 65 q 499 251 499 163 q 456 409 499 356 q 338 463 413 463 q 248 451 289 463 q 169 413 207 440 l 121 432 l 121 871 l 540 871 l 540 803 l 199 803 l 188 492 q 338 533 249 533 q 518 457 450 533 q 586 250 586 381 q 508 60 586 126 q 300 -7 431 -7 z "},"6":{"ha":676,"x_min":65,"x_max":575,"o":"m 325 -7 q 128 89 190 -7 q 65 374 65 185 q 111 664 65 557 q 245 819 157 771 q 474 882 333 868 l 489 807 q 242 720 322 803 q 157 493 163 638 q 253 544 208 529 q 349 560 297 560 q 513 490 450 560 q 575 286 575 421 q 509 70 575 147 q 325 -7 443 -7 m 321 65 q 448 119 407 65 q 489 286 489 172 q 451 437 489 389 q 339 485 413 485 q 252 469 293 485 q 151 415 211 454 l 151 358 q 192 138 151 210 q 321 65 232 65 z "},"7":{"ha":593,"x_min":72,"x_max":528,"o":"m 165 0 q 238 367 169 175 q 433 810 307 558 l 72 810 l 72 882 l 521 882 l 528 813 q 428 612 493 757 q 310 297 363 467 q 257 0 257 128 l 165 0 z "},"8":{"ha":701,"x_min":88,"x_max":608,"o":"m 347 -7 q 161 48 235 -7 q 88 206 88 103 q 132 351 88 282 q 260 458 176 421 q 149 544 190 493 q 108 674 108 596 q 180 830 108 778 q 358 882 251 882 q 536 828 464 882 q 608 676 608 774 q 563 544 608 607 q 443 451 518 482 q 564 353 519 411 q 608 207 608 296 q 532 48 608 103 q 347 -7 456 -7 m 369 486 q 478 560 436 508 q 521 669 521 613 q 481 772 521 733 q 360 810 440 810 q 241 778 286 810 q 196 671 196 746 q 240 563 196 601 q 369 486 283 524 m 347 65 q 472 101 424 65 q 521 218 521 138 q 470 340 521 293 q 333 425 419 386 q 174 215 174 344 q 222 102 174 139 q 347 65 269 65 z "},"9":{"ha":679,"x_min":65,"x_max":575,"o":"m 151 65 q 401 157 318 69 q 483 383 483 244 q 388 332 432 347 q 292 317 343 317 q 128 386 190 317 q 65 590 65 456 q 131 806 65 729 q 315 882 197 882 q 513 788 451 882 q 575 503 575 693 q 528 210 575 319 q 391 51 481 100 q 167 -7 301 1 l 151 65 m 301 392 q 387 407 346 392 q 489 461 428 422 l 489 518 q 449 738 489 667 q 318 810 408 810 q 192 757 232 810 q 151 590 151 704 q 189 440 151 488 q 301 392 226 392 z "},"\u0000":{"ha":0,"x_min":0,"x_max":0,"o":""},"\r":{"ha":457,"x_min":0,"x_max":0,"o":""}," ":{"ha":457,"x_min":0,"x_max":0,"o":""},"A":{"ha":733,"x_min":36,"x_max":696,"o":"m 36 0 l 308 871 l 438 871 l 696 0 l 608 0 l 543 222 l 199 222 l 131 0 l 36 0 m 219 285 l 521 285 l 374 796 l 219 285 z "},"Á":{"ha":733,"x_min":36,"x_max":696,"o":"m 36 0 l 308 871 l 438 871 l 696 0 l 608 0 l 543 222 l 199 222 l 131 0 l 36 0 m 219 285 l 521 285 l 374 796 l 219 285 m 236 985 l 457 1164 l 513 1094 l 429 1039 q 263 943 376 1004 l 236 985 z "},"Ă":{"ha":733,"x_min":36,"x_max":696,"o":"m 36 0 l 308 871 l 438 871 l 696 0 l 608 0 l 543 222 l 199 222 l 131 0 l 36 0 m 219 285 l 521 285 l 374 796 l 219 285 m 374 949 q 276 972 318 949 q 190 1050 233 996 l 242 1097 q 305 1042 275 1060 q 374 1024 335 1024 q 444 1042 414 1024 q 507 1097 474 1060 l 558 1050 q 473 972 515 996 q 374 949 431 949 z "},"Ắ":{"ha":733,"x_min":36,"x_max":696,"o":"m 36 0 l 308 871 l 438 871 l 696 0 l 608 0 l 543 222 l 199 222 l 131 0 l 36 0 m 219 285 l 521 285 l 374 796 l 219 285 m 217 1154 l 486 1247 l 514 1161 l 417 1139 q 228 1106 326 1118 l 217 1154 m 374 936 q 275 957 317 936 q 189 1026 233 978 l 242 1074 q 301 1026 271 1042 q 374 1011 332 1011 q 446 1026 415 1011 q 506 1074 476 1042 l 558 1026 q 472 957 514 978 q 374 936 431 936 z "},"Ặ":{"ha":733,"x_min":36,"x_max":696,"o":"m 36 0 l 308 871 l 438 871 l 696 0 l 608 0 l 543 222 l 199 222 l 131 0 l 36 0 m 219 285 l 521 285 l 374 796 l 219 285 m 374 949 q 276 972 318 949 q 190 1050 233 996 l 242 1097 q 305 1042 275 1060 q 374 1024 335 1024 q 444 1042 414 1024 q 507 1097 474 1060 l 558 1050 q 473 972 515 996 q 374 949 431 949 m 321 -190 l 321 -86 l 414 -86 l 414 -190 l 321 -190 z "},"Ằ":{"ha":733,"x_min":36,"x_max":696,"o":"m 36 0 l 308 871 l 438 871 l 696 0 l 608 0 l 543 222 l 199 222 l 131 0 l 36 0 m 219 285 l 521 285 l 374 796 l 219 285 m 503 1106 q 314 1139 404 1118 l 217 1161 l 244 1247 l 514 1154 l 503 1106 m 374 936 q 275 957 317 936 q 189 1026 233 978 l 242 1074 q 301 1026 271 1042 q 374 1011 332 1011 q 446 1026 415 1011 q 506 1074 476 1042 l 558 1026 q 472 957 514 978 q 374 936 431 936 z "},"Ẳ":{"ha":733,"x_min":36,"x_max":696,"o":"m 36 0 l 308 871 l 438 871 l 696 0 l 608 0 l 543 222 l 199 222 l 131 0 l 36 0 m 219 285 l 521 285 l 374 796 l 219 285 m 338 1139 q 419 1158 389 1143 q 450 1210 450 1172 q 434 1246 450 1233 q 390 1258 418 1258 q 324 1244 361 1258 l 314 1299 q 407 1319 363 1319 q 496 1292 464 1319 q 528 1215 528 1264 q 401 1106 528 1118 l 408 1061 l 338 1061 l 338 1139 m 374 936 q 275 957 317 936 q 189 1026 233 978 l 242 1074 q 301 1026 271 1042 q 374 1011 332 1011 q 446 1026 415 1011 q 506 1074 476 1042 l 558 1026 q 472 957 514 978 q 374 936 431 936 z "},"Ẵ":{"ha":733,"x_min":36,"x_max":696,"o":"m 36 0 l 308 871 l 438 871 l 696 0 l 608 0 l 543 222 l 199 222 l 131 0 l 36 0 m 219 285 l 521 285 l 374 796 l 219 285 m 468 1099 q 422 1107 444 1099 q 371 1132 400 1115 q 325 1153 342 1146 q 292 1160 308 1160 q 253 1147 271 1160 q 213 1100 236 1133 l 158 1131 q 221 1215 193 1192 q 285 1239 249 1239 q 331 1230 308 1239 q 382 1206 354 1221 q 461 1176 432 1176 q 497 1190 481 1176 q 536 1238 513 1203 l 590 1207 q 534 1124 563 1149 q 468 1099 506 1099 m 374 936 q 275 957 317 936 q 189 1026 233 978 l 242 1074 q 301 1026 271 1042 q 374 1011 332 1011 q 446 1026 415 1011 q 506 1074 476 1042 l 558 1026 q 472 957 514 978 q 374 936 431 936 z "},"Â":{"ha":733,"x_min":36,"x_max":696,"o":"m 36 0 l 308 871 l 438 871 l 696 0 l 608 0 l 543 222 l 199 222 l 131 0 l 36 0 m 219 285 l 521 285 l 374 796 l 219 285 m 171 1004 l 194 1024 q 339 1133 272 1088 l 410 1133 q 543 1032 458 1100 q 576 1004 551 1024 l 518 950 l 374 1074 l 229 950 l 171 1004 z "},"Ấ":{"ha":733,"x_min":36,"x_max":696,"o":"m 36 0 l 308 871 l 438 871 l 696 0 l 608 0 l 543 222 l 199 222 l 131 0 l 36 0 m 219 285 l 521 285 l 374 796 l 219 285 m 499 1082 l 578 1228 l 688 1228 l 617 1133 q 571 1082 593 1103 l 499 1082 m 171 964 q 339 1107 271 1054 l 410 1107 q 576 964 485 1049 l 518 910 l 374 1049 l 229 910 l 171 964 z "},"Ậ":{"ha":733,"x_min":36,"x_max":696,"o":"m 36 0 l 308 871 l 438 871 l 696 0 l 608 0 l 543 222 l 199 222 l 131 0 l 36 0 m 219 285 l 521 285 l 374 796 l 219 285 m 171 1004 l 194 1024 q 339 1133 272 1088 l 410 1133 q 543 1032 458 1100 q 576 1004 551 1024 l 518 950 l 374 1074 l 229 950 l 171 1004 m 321 -190 l 321 -86 l 414 -86 l 414 -190 l 321 -190 z "},"Ầ":{"ha":733,"x_min":36,"x_max":696,"o":"m 36 0 l 308 871 l 438 871 l 696 0 l 608 0 l 543 222 l 199 222 l 131 0 l 36 0 m 219 285 l 521 285 l 374 796 l 219 285 m 535 1082 q 489 1133 513 1103 l 418 1228 l 526 1228 l 606 1082 l 535 1082 m 171 964 q 339 1107 271 1054 l 410 1107 q 576 964 485 1049 l 518 910 l 374 1049 l 229 910 l 171 964 z "},"Ẩ":{"ha":733,"x_min":36,"x_max":696,"o":"m 36 0 l 308 871 l 438 871 l 696 0 l 608 0 l 543 222 l 199 222 l 131 0 l 36 0 m 219 285 l 521 285 l 374 796 l 219 285 m 496 1131 q 573 1149 544 1135 q 601 1199 601 1163 q 586 1235 601 1222 q 543 1249 571 1249 q 482 1236 514 1249 l 472 1290 q 567 1310 518 1310 q 649 1282 619 1310 q 679 1206 679 1254 q 647 1128 679 1153 q 560 1097 615 1103 l 564 1065 l 496 1065 l 496 1131 m 171 964 q 339 1107 271 1054 l 410 1107 q 576 964 485 1049 l 518 910 l 374 1049 l 229 910 l 171 964 z "},"Ẫ":{"ha":733,"x_min":36,"x_max":696,"o":"m 36 0 l 308 871 l 438 871 l 696 0 l 608 0 l 543 222 l 199 222 l 131 0 l 36 0 m 219 285 l 521 285 l 374 796 l 219 285 m 468 1139 q 422 1147 444 1139 q 371 1172 400 1156 q 325 1193 342 1186 q 292 1200 308 1200 q 253 1187 271 1200 q 213 1140 236 1174 l 158 1171 q 221 1256 193 1232 q 285 1279 249 1279 q 331 1270 308 1279 q 382 1246 354 1261 q 461 1217 432 1217 q 496 1230 481 1217 q 536 1278 511 1243 l 590 1247 q 534 1164 563 1189 q 468 1139 506 1139 m 171 964 q 339 1107 271 1054 l 410 1107 q 576 964 485 1049 l 518 910 l 374 1049 l 229 910 l 171 964 z "},"Ȁ":{"ha":733,"x_min":36,"x_max":696,"o":"m 36 0 l 308 871 l 438 871 l 696 0 l 608 0 l 543 222 l 199 222 l 131 0 l 36 0 m 219 285 l 521 285 l 374 796 l 219 285 m 328 958 q 193 1088 215 1060 l 126 1168 l 199 1222 l 364 992 l 328 958 m 533 958 q 399 1088 431 1049 l 331 1168 l 403 1222 l 569 992 l 533 958 z "},"Ä":{"ha":733,"x_min":36,"x_max":696,"o":"m 36 0 l 308 871 l 438 871 l 696 0 l 608 0 l 543 222 l 199 222 l 131 0 l 36 0 m 219 285 l 521 285 l 374 796 l 219 285 m 221 965 l 221 1051 l 315 1051 l 315 965 l 221 965 m 433 965 l 433 1051 l 526 1051 l 526 965 l 433 965 z "},"Ạ":{"ha":733,"x_min":36,"x_max":696,"o":"m 36 0 l 308 871 l 438 871 l 696 0 l 608 0 l 543 222 l 199 222 l 131 0 l 36 0 m 219 285 l 521 285 l 374 796 l 219 285 m 321 -190 l 321 -86 l 414 -86 l 414 -190 l 321 -190 z "},"À":{"ha":733,"x_min":36,"x_max":696,"o":"m 36 0 l 308 871 l 438 871 l 696 0 l 608 0 l 543 222 l 199 222 l 131 0 l 36 0 m 219 285 l 521 285 l 374 796 l 219 285 m 489 939 q 399 983 447 957 q 325 1029 351 1010 l 239 1090 l 294 1160 l 515 981 l 489 939 z "},"Ả":{"ha":733,"x_min":36,"x_max":696,"o":"m 36 0 l 308 871 l 438 871 l 696 0 l 608 0 l 543 222 l 199 222 l 131 0 l 36 0 m 219 285 l 521 285 l 374 796 l 219 285 m 338 1026 q 419 1045 389 1031 q 450 1097 450 1060 q 434 1133 450 1121 q 390 1146 418 1146 q 324 1132 361 1146 l 314 1186 q 407 1207 363 1207 q 496 1179 464 1207 q 528 1103 528 1151 q 401 993 528 1006 l 408 949 l 338 949 l 338 1026 z "},"Ȃ":{"ha":733,"x_min":36,"x_max":696,"o":"m 36 0 l 308 871 l 438 871 l 696 0 l 608 0 l 543 222 l 199 222 l 131 0 l 36 0 m 219 285 l 521 285 l 374 796 l 219 285 m 189 1032 q 276 1110 233 1086 q 374 1133 318 1133 q 472 1110 429 1133 q 558 1032 514 1086 l 506 985 q 444 1041 474 1024 q 374 1058 414 1058 q 303 1041 333 1058 q 242 985 274 1024 l 189 1032 z "},"Ā":{"ha":733,"x_min":36,"x_max":696,"o":"m 36 0 l 308 871 l 438 871 l 696 0 l 608 0 l 543 222 l 199 222 l 131 0 l 36 0 m 219 285 l 521 285 l 374 796 l 219 285 m 211 978 l 211 1050 l 538 1050 l 538 978 l 211 978 z "},"Ą":{"ha":733,"x_min":36,"x_max":721,"o":"m 36 0 l 308 871 l 438 871 l 696 0 l 608 0 l 543 222 l 199 222 l 131 0 l 36 0 m 219 285 l 521 285 l 374 796 l 219 285 m 636 -231 q 557 -207 588 -231 q 526 -137 526 -183 q 556 -66 526 -103 q 639 0 586 -29 l 697 0 q 627 -56 658 -24 q 596 -122 596 -87 q 610 -160 596 -147 q 650 -172 625 -172 q 684 -168 667 -172 q 711 -158 701 -164 l 721 -212 q 636 -231 683 -231 z "},"Å":{"ha":733,"x_min":36,"x_max":696,"o":"m 696 0 l 608 0 l 543 222 l 199 222 l 131 0 l 36 0 l 308 869 q 240 918 265 885 q 215 996 215 951 q 260 1097 215 1060 q 374 1133 304 1133 q 488 1095 443 1133 q 532 996 532 1057 q 507 917 532 950 q 438 869 482 885 l 696 0 m 282 996 q 306 938 282 960 q 374 917 331 917 q 442 939 417 917 q 467 996 467 961 q 442 1055 467 1033 q 374 1076 418 1076 q 306 1054 331 1076 q 282 996 282 1032 m 219 285 l 521 285 l 374 796 l 219 285 z "},"Ǻ":{"ha":733,"x_min":36,"x_max":696,"o":"m 429 1244 q 263 1149 376 1210 l 236 1190 l 457 1369 l 513 1300 l 429 1244 m 696 0 l 608 0 l 543 222 l 199 222 l 131 0 l 36 0 l 308 869 q 240 918 265 885 q 215 996 215 951 q 260 1097 215 1060 q 374 1133 304 1133 q 488 1095 443 1133 q 532 996 532 1057 q 507 917 532 950 q 438 869 482 885 l 696 0 m 282 996 q 306 938 282 960 q 374 917 331 917 q 442 939 417 917 q 467 996 467 961 q 442 1055 467 1033 q 374 1076 418 1076 q 306 1054 331 1076 q 282 996 282 1032 m 219 285 l 521 285 l 374 796 l 219 285 z "},"Ã":{"ha":733,"x_min":36,"x_max":696,"o":"m 36 0 l 308 871 l 438 871 l 696 0 l 608 0 l 543 222 l 199 222 l 131 0 l 36 0 m 219 285 l 521 285 l 374 796 l 219 285 m 468 956 q 422 964 444 956 q 371 989 400 972 q 325 1010 342 1003 q 292 1017 308 1017 q 253 1003 271 1017 q 213 957 236 990 l 158 988 q 221 1072 193 1049 q 285 1096 249 1096 q 331 1087 308 1096 q 382 1063 354 1078 q 426 1042 408 1049 q 461 1035 443 1035 q 497 1048 481 1035 q 536 1094 513 1061 l 590 1065 q 534 981 563 1006 q 468 956 506 956 z "},"Æ":{"ha":936,"x_min":-18,"x_max":881,"o":"m -18 0 l 418 871 l 878 871 l 863 803 l 554 803 l 554 490 l 839 490 l 839 425 l 554 425 l 554 68 l 869 68 l 881 0 l 467 0 l 467 222 l 189 222 l 78 0 l -18 0 m 214 285 l 467 285 l 467 810 l 214 285 z "},"Ǽ":{"ha":936,"x_min":-18,"x_max":881,"o":"m -18 0 l 418 871 l 878 871 l 863 803 l 554 803 l 554 490 l 839 490 l 839 425 l 554 425 l 554 68 l 869 68 l 881 0 l 467 0 l 467 222 l 189 222 l 78 0 l -18 0 m 214 285 l 467 285 l 467 810 l 214 285 m 510 985 l 731 1164 l 786 1094 l 703 1039 q 536 943 650 1004 l 510 985 z "},"B":{"ha":706,"x_min":101,"x_max":643,"o":"m 101 871 l 318 871 q 487 853 424 871 q 581 789 550 835 q 613 658 613 743 q 583 529 613 575 q 481 465 553 483 q 600 395 557 447 q 643 256 643 343 q 607 97 643 153 q 501 21 571 42 q 317 0 431 0 l 101 0 l 101 871 m 346 490 q 491 527 446 490 q 536 658 536 564 q 490 771 536 739 q 335 803 443 803 l 188 803 l 188 490 l 346 490 m 321 68 q 453 82 403 68 q 530 136 503 96 q 557 254 557 176 q 504 385 557 344 q 347 426 451 426 l 188 426 l 188 68 l 321 68 z "},"Ḃ":{"ha":706,"x_min":101,"x_max":643,"o":"m 101 871 l 318 871 q 487 853 424 871 q 581 789 550 835 q 613 658 613 743 q 583 529 613 575 q 481 465 553 483 q 600 395 557 447 q 643 256 643 343 q 607 97 643 153 q 501 21 571 42 q 317 0 431 0 l 101 0 l 101 871 m 346 490 q 491 527 446 490 q 536 658 536 564 q 490 771 536 739 q 335 803 443 803 l 188 803 l 188 490 l 346 490 m 321 68 q 453 82 403 68 q 530 136 503 96 q 557 254 557 176 q 504 385 557 344 q 347 426 451 426 l 188 426 l 188 68 l 321 68 m 307 971 l 307 1075 l 400 1075 l 400 971 l 307 971 z "},"C":{"ha":688,"x_min":81,"x_max":626,"o":"m 406 -7 q 238 41 311 -7 q 123 188 165 89 q 81 435 81 286 q 158 777 81 672 q 397 882 235 882 q 608 832 504 882 l 608 667 l 533 667 l 533 785 q 406 810 476 810 q 272 778 324 810 q 194 665 221 747 q 167 433 167 583 q 233 156 167 246 q 411 65 300 65 q 599 110 506 65 l 626 43 q 406 -7 521 -7 z "},"Ć":{"ha":688,"x_min":81,"x_max":626,"o":"m 406 -7 q 238 41 311 -7 q 123 188 165 89 q 81 435 81 286 q 158 777 81 672 q 397 882 235 882 q 608 832 504 882 l 608 667 l 533 667 l 533 785 q 406 810 476 810 q 272 778 324 810 q 194 665 221 747 q 167 433 167 583 q 233 156 167 246 q 411 65 300 65 q 599 110 506 65 l 626 43 q 406 -7 521 -7 m 264 985 l 485 1164 l 540 1094 l 457 1039 q 290 943 404 1004 l 264 985 z "},"Č":{"ha":688,"x_min":81,"x_max":626,"o":"m 406 -7 q 238 41 311 -7 q 123 188 165 89 q 81 435 81 286 q 158 777 81 672 q 397 882 235 882 q 608 832 504 882 l 608 667 l 533 667 l 533 785 q 406 810 476 810 q 272 778 324 810 q 194 665 221 747 q 167 433 167 583 q 233 156 167 246 q 411 65 300 65 q 599 110 506 65 l 626 43 q 406 -7 521 -7 m 401 944 q 367 964 389 944 q 213 1107 282 1036 l 268 1151 l 401 1021 l 536 1151 l 592 1107 q 436 964 529 1043 q 401 944 414 944 z "},"Ç":{"ha":688,"x_min":81,"x_max":626,"o":"m 419 -46 q 513 -71 479 -46 q 546 -142 546 -96 q 510 -234 546 -203 q 421 -265 475 -265 q 331 -244 376 -265 l 342 -190 q 407 -207 375 -207 q 453 -192 436 -207 q 469 -146 469 -176 q 453 -104 469 -118 q 419 -87 438 -90 q 354 -79 400 -83 l 356 -3 q 156 125 231 15 q 81 435 81 235 q 158 777 81 672 q 397 882 235 882 q 608 832 504 882 l 608 667 l 533 667 l 533 785 q 406 810 476 810 q 272 778 324 810 q 194 665 221 747 q 167 433 167 583 q 233 156 167 246 q 411 65 300 65 q 599 110 506 65 l 626 43 q 425 -7 528 -3 l 419 -46 z "},"Ĉ":{"ha":688,"x_min":81,"x_max":626,"o":"m 406 -7 q 238 41 311 -7 q 123 188 165 89 q 81 435 81 286 q 158 777 81 672 q 397 882 235 882 q 608 832 504 882 l 608 667 l 533 667 l 533 785 q 406 810 476 810 q 272 778 324 810 q 194 665 221 747 q 167 433 167 583 q 233 156 167 246 q 411 65 300 65 q 599 110 506 65 l 626 43 q 406 -7 521 -7 m 199 1004 l 222 1024 q 367 1133 300 1088 l 438 1133 q 571 1032 486 1100 q 604 1004 579 1024 l 546 950 l 401 1074 l 257 950 l 199 1004 z "},"Ċ":{"ha":688,"x_min":81,"x_max":626,"o":"m 406 -7 q 238 41 311 -7 q 123 188 165 89 q 81 435 81 286 q 158 777 81 672 q 397 882 235 882 q 608 832 504 882 l 608 667 l 533 667 l 533 785 q 406 810 476 810 q 272 778 324 810 q 194 665 221 747 q 167 433 167 583 q 233 156 167 246 q 411 65 300 65 q 599 110 506 65 l 626 43 q 406 -7 521 -7 m 356 971 l 356 1075 l 449 1075 l 449 971 l 356 971 z "},"D":{"ha":746,"x_min":101,"x_max":665,"o":"m 101 871 l 286 871 q 521 827 439 871 q 634 690 603 783 q 665 432 665 597 q 638 188 665 279 q 529 49 610 97 q 293 0 449 0 l 101 0 l 101 871 m 293 68 q 482 106 421 68 q 561 217 543 143 q 579 432 579 292 q 558 653 579 576 q 474 767 536 731 q 286 803 411 803 l 188 803 l 188 68 l 293 68 z "},"Ǳ":{"ha":1293,"x_min":101,"x_max":1235,"o":"m 101 871 l 286 871 q 521 827 439 871 q 634 690 603 783 q 665 432 665 597 q 638 188 665 279 q 529 49 610 97 q 293 0 449 0 l 101 0 l 101 871 m 293 68 q 482 106 421 68 q 561 217 543 143 q 579 432 579 292 q 558 653 579 576 q 474 767 536 731 q 286 803 411 803 l 188 803 l 188 68 l 293 68 m 749 0 l 735 67 l 1121 803 l 756 803 l 756 871 l 1210 871 l 1219 797 l 835 68 l 1235 68 l 1235 0 l 749 0 z "},"Ǆ":{"ha":1258,"x_min":101,"x_max":1201,"o":"m 101 871 l 286 871 q 521 827 439 871 q 634 690 603 783 q 665 432 665 597 q 638 188 665 279 q 529 49 610 97 q 293 0 449 0 l 101 0 l 101 871 m 293 68 q 482 106 421 68 q 561 217 543 143 q 579 432 579 292 q 558 653 579 576 q 474 767 536 731 q 286 803 411 803 l 188 803 l 188 68 l 293 68 m 715 0 l 701 67 l 1088 803 l 722 803 l 722 871 l 1176 871 l 1186 797 l 801 68 l 1201 68 l 1201 0 l 715 0 m 946 944 q 911 964 933 944 q 757 1107 826 1036 l 813 1151 l 946 1021 l 1081 1151 l 1136 1107 q 981 964 1074 1043 q 946 944 958 944 z "},"Ð":{"ha":746,"x_min":0,"x_max":665,"o":"m 101 413 l 0 413 l 0 483 l 101 483 l 101 871 l 286 871 q 521 827 439 871 q 634 690 603 783 q 665 432 665 597 q 638 188 665 279 q 529 49 610 97 q 293 0 449 0 l 101 0 l 101 413 m 293 71 q 482 108 421 71 q 561 218 543 144 q 579 432 579 292 q 558 653 579 576 q 474 767 536 731 q 286 803 411 803 l 188 803 l 188 483 l 325 483 l 325 413 l 188 413 l 188 71 l 293 71 z "},"Ď":{"ha":746,"x_min":101,"x_max":665,"o":"m 101 871 l 286 871 q 521 827 439 871 q 634 690 603 783 q 665 432 665 597 q 638 188 665 279 q 529 49 610 97 q 293 0 449 0 l 101 0 l 101 871 m 293 68 q 482 106 421 68 q 561 217 543 143 q 579 432 579 292 q 558 653 579 576 q 474 767 536 731 q 286 803 411 803 l 188 803 l 188 68 l 293 68 m 360 944 q 325 964 347 944 q 171 1107 240 1036 l 226 1151 l 360 1021 l 494 1151 l 550 1107 q 394 964 488 1043 q 360 944 372 944 z "},"Đ":{"ha":746,"x_min":0,"x_max":665,"o":"m 101 413 l 0 413 l 0 483 l 101 483 l 101 871 l 286 871 q 521 827 439 871 q 634 690 603 783 q 665 432 665 597 q 638 188 665 279 q 529 49 610 97 q 293 0 449 0 l 101 0 l 101 413 m 293 71 q 482 108 421 71 q 561 218 543 144 q 579 432 579 292 q 558 653 579 576 q 474 767 536 731 q 286 803 411 803 l 188 803 l 188 483 l 325 483 l 325 413 l 188 413 l 188 71 l 293 71 z "},"Ḋ":{"ha":746,"x_min":101,"x_max":665,"o":"m 101 871 l 286 871 q 521 827 439 871 q 634 690 603 783 q 665 432 665 597 q 638 188 665 279 q 529 49 610 97 q 293 0 449 0 l 101 0 l 101 871 m 293 68 q 482 106 421 68 q 561 217 543 143 q 579 432 579 292 q 558 653 579 576 q 474 767 536 731 q 286 803 411 803 l 188 803 l 188 68 l 293 68 m 314 971 l 314 1075 l 407 1075 l 407 971 l 314 971 z "},"ǲ":{"ha":1219,"x_min":101,"x_max":1169,"o":"m 101 871 l 286 871 q 521 827 439 871 q 634 690 603 783 q 665 432 665 597 q 638 188 665 279 q 529 49 610 97 q 293 0 449 0 l 101 0 l 101 871 m 293 68 q 482 106 421 68 q 561 217 543 143 q 579 432 579 292 q 558 653 579 576 q 474 767 536 731 q 286 803 411 803 l 188 803 l 188 68 l 293 68 m 768 0 l 758 65 l 1065 607 l 765 607 l 765 668 l 1153 668 l 1160 610 l 854 61 l 1169 61 l 1169 0 l 768 0 z "},"ǅ":{"ha":1206,"x_min":101,"x_max":1156,"o":"m 101 871 l 286 871 q 521 827 439 871 q 634 690 603 783 q 665 432 665 597 q 638 188 665 279 q 529 49 610 97 q 293 0 449 0 l 101 0 l 101 871 m 293 68 q 482 106 421 68 q 561 217 543 143 q 579 432 579 292 q 558 653 579 576 q 474 767 536 731 q 286 803 411 803 l 188 803 l 188 68 l 293 68 m 754 0 l 744 65 l 1051 607 l 751 607 l 751 668 l 1139 668 l 1146 610 l 840 61 l 1156 61 l 1156 0 l 754 0 m 958 749 q 924 768 940 749 q 769 958 825 883 l 829 1000 l 958 825 l 1089 1000 l 1149 958 q 993 768 1088 875 q 958 749 978 749 z "},"E":{"ha":625,"x_min":101,"x_max":568,"o":"m 101 0 l 101 871 l 565 871 l 550 803 l 188 803 l 188 490 l 528 490 l 528 425 l 188 425 l 188 68 l 557 68 l 568 0 l 101 0 z "},"É":{"ha":625,"x_min":101,"x_max":568,"o":"m 101 0 l 101 871 l 565 871 l 550 803 l 188 803 l 188 490 l 528 490 l 528 425 l 188 425 l 188 68 l 557 68 l 568 0 l 101 0 m 203 985 l 424 1164 l 479 1094 l 396 1039 q 229 943 343 1004 l 203 985 z "},"Ĕ":{"ha":625,"x_min":101,"x_max":568,"o":"m 101 0 l 101 871 l 565 871 l 550 803 l 188 803 l 188 490 l 528 490 l 528 425 l 188 425 l 188 68 l 557 68 l 568 0 l 101 0 m 340 949 q 242 972 285 949 q 157 1050 200 996 l 208 1097 q 272 1042 242 1060 q 340 1024 301 1024 q 410 1042 381 1024 q 474 1097 440 1060 l 525 1050 q 440 972 482 996 q 340 949 397 949 z "},"Ě":{"ha":625,"x_min":101,"x_max":568,"o":"m 101 0 l 101 871 l 565 871 l 550 803 l 188 803 l 188 490 l 528 490 l 528 425 l 188 425 l 188 68 l 557 68 l 568 0 l 101 0 m 340 944 q 306 964 328 944 q 151 1107 221 1036 l 207 1151 l 340 1021 l 475 1151 l 531 1107 q 375 964 468 1043 q 340 944 353 944 z "},"Ê":{"ha":625,"x_min":101,"x_max":568,"o":"m 101 0 l 101 871 l 565 871 l 550 803 l 188 803 l 188 490 l 528 490 l 528 425 l 188 425 l 188 68 l 557 68 l 568 0 l 101 0 m 138 1004 l 161 1024 q 306 1133 239 1088 l 376 1133 q 510 1032 425 1100 q 543 1004 518 1024 l 485 950 l 340 1074 l 196 950 l 138 1004 z "},"Ế":{"ha":625,"x_min":101,"x_max":654,"o":"m 101 0 l 101 871 l 565 871 l 550 803 l 188 803 l 188 490 l 528 490 l 528 425 l 188 425 l 188 68 l 557 68 l 568 0 l 101 0 m 465 1082 l 544 1228 l 654 1228 l 583 1133 q 538 1082 560 1103 l 465 1082 m 138 964 q 306 1107 238 1054 l 376 1107 q 543 964 451 1049 l 485 910 l 340 1049 l 196 910 l 138 964 z "},"Ệ":{"ha":625,"x_min":101,"x_max":568,"o":"m 101 0 l 101 871 l 565 871 l 550 803 l 188 803 l 188 490 l 528 490 l 528 425 l 188 425 l 188 68 l 557 68 l 568 0 l 101 0 m 138 1004 l 161 1024 q 306 1133 239 1088 l 376 1133 q 510 1032 425 1100 q 543 1004 518 1024 l 485 950 l 340 1074 l 196 950 l 138 1004 m 289 -190 l 289 -86 l 382 -86 l 382 -190 l 289 -190 z "},"Ề":{"ha":625,"x_min":101,"x_max":572,"o":"m 101 0 l 101 871 l 565 871 l 550 803 l 188 803 l 188 490 l 528 490 l 528 425 l 188 425 l 188 68 l 557 68 l 568 0 l 101 0 m 501 1082 q 456 1133 479 1103 l 385 1228 l 493 1228 l 572 1082 l 501 1082 m 138 964 q 306 1107 238 1054 l 376 1107 q 543 964 451 1049 l 485 910 l 340 1049 l 196 910 l 138 964 z "},"Ể":{"ha":625,"x_min":101,"x_max":646,"o":"m 101 0 l 101 871 l 565 871 l 550 803 l 188 803 l 188 490 l 528 490 l 528 425 l 188 425 l 188 68 l 557 68 l 568 0 l 101 0 m 463 1131 q 540 1149 511 1135 q 568 1199 568 1163 q 553 1235 568 1222 q 510 1249 538 1249 q 449 1236 481 1249 l 439 1290 q 533 1310 485 1310 q 616 1282 586 1310 q 646 1206 646 1254 q 614 1128 646 1153 q 526 1097 582 1103 l 531 1065 l 463 1065 l 463 1131 m 138 964 q 306 1107 238 1054 l 376 1107 q 543 964 451 1049 l 485 910 l 340 1049 l 196 910 l 138 964 z "},"Ễ":{"ha":625,"x_min":101,"x_max":568,"o":"m 101 0 l 101 871 l 565 871 l 550 803 l 188 803 l 188 490 l 528 490 l 528 425 l 188 425 l 188 68 l 557 68 l 568 0 l 101 0 m 435 1139 q 389 1147 411 1139 q 338 1172 367 1156 q 292 1193 308 1186 q 258 1200 275 1200 q 220 1187 238 1200 q 179 1140 203 1174 l 125 1171 q 188 1256 160 1232 q 251 1279 215 1279 q 298 1270 275 1279 q 349 1246 321 1261 q 428 1217 399 1217 q 463 1230 447 1217 q 503 1278 478 1243 l 557 1247 q 501 1164 529 1189 q 435 1139 472 1139 m 138 964 q 306 1107 238 1054 l 376 1107 q 543 964 451 1049 l 485 910 l 340 1049 l 196 910 l 138 964 z "},"Ȅ":{"ha":625,"x_min":93,"x_max":568,"o":"m 101 0 l 101 871 l 565 871 l 550 803 l 188 803 l 188 490 l 528 490 l 528 425 l 188 425 l 188 68 l 557 68 l 568 0 l 101 0 m 294 958 q 160 1088 182 1060 l 93 1168 l 165 1222 l 331 992 l 294 958 m 500 958 q 365 1088 397 1049 l 297 1168 l 369 1222 l 536 992 l 500 958 z "},"Ë":{"ha":625,"x_min":101,"x_max":568,"o":"m 101 0 l 101 871 l 565 871 l 550 803 l 188 803 l 188 490 l 528 490 l 528 425 l 188 425 l 188 68 l 557 68 l 568 0 l 101 0 m 188 965 l 188 1051 l 282 1051 l 282 965 l 188 965 m 400 965 l 400 1051 l 493 1051 l 493 965 l 400 965 z "},"Ė":{"ha":625,"x_min":101,"x_max":568,"o":"m 101 0 l 101 871 l 565 871 l 550 803 l 188 803 l 188 490 l 528 490 l 528 425 l 188 425 l 188 68 l 557 68 l 568 0 l 101 0 m 294 971 l 294 1075 l 388 1075 l 388 971 l 294 971 z "},"Ẹ":{"ha":625,"x_min":101,"x_max":568,"o":"m 101 0 l 101 871 l 565 871 l 550 803 l 188 803 l 188 490 l 528 490 l 528 425 l 188 425 l 188 68 l 557 68 l 568 0 l 101 0 m 289 -190 l 289 -86 l 382 -86 l 382 -190 l 289 -190 z "},"È":{"ha":625,"x_min":101,"x_max":568,"o":"m 101 0 l 101 871 l 565 871 l 550 803 l 188 803 l 188 490 l 528 490 l 528 425 l 188 425 l 188 68 l 557 68 l 568 0 l 101 0 m 456 939 q 366 983 414 957 q 292 1029 318 1010 l 206 1090 l 261 1160 l 482 981 l 456 939 z "},"Ẻ":{"ha":625,"x_min":101,"x_max":568,"o":"m 101 0 l 101 871 l 565 871 l 550 803 l 188 803 l 188 490 l 528 490 l 528 425 l 188 425 l 188 68 l 557 68 l 568 0 l 101 0 m 304 1026 q 386 1045 356 1031 q 417 1097 417 1060 q 401 1133 417 1121 q 357 1146 385 1146 q 290 1132 328 1146 l 281 1186 q 374 1207 329 1207 q 463 1179 431 1207 q 494 1103 494 1151 q 368 993 494 1006 l 375 949 l 304 949 l 304 1026 z "},"Ȇ":{"ha":625,"x_min":101,"x_max":568,"o":"m 101 0 l 101 871 l 565 871 l 550 803 l 188 803 l 188 490 l 528 490 l 528 425 l 188 425 l 188 68 l 557 68 l 568 0 l 101 0 m 156 1019 q 242 1097 200 1074 q 340 1121 285 1121 q 438 1097 396 1121 q 525 1019 481 1074 l 472 972 q 410 1028 440 1011 q 340 1046 381 1046 q 270 1028 300 1046 q 208 972 240 1011 l 156 1019 z "},"Ē":{"ha":625,"x_min":101,"x_max":568,"o":"m 101 0 l 101 871 l 565 871 l 550 803 l 188 803 l 188 490 l 528 490 l 528 425 l 188 425 l 188 68 l 557 68 l 568 0 l 101 0 m 178 978 l 178 1050 l 504 1050 l 504 978 l 178 978 z "},"Ę":{"ha":625,"x_min":101,"x_max":593,"o":"m 101 0 l 101 871 l 565 871 l 550 803 l 188 803 l 188 490 l 528 490 l 528 425 l 188 425 l 188 68 l 557 68 l 568 0 l 101 0 m 508 -231 q 429 -207 460 -231 q 399 -137 399 -183 q 428 -66 399 -103 q 511 0 458 -29 l 569 0 q 499 -56 531 -24 q 468 -122 468 -87 q 483 -160 468 -147 q 522 -172 497 -172 q 556 -168 539 -172 q 583 -158 574 -164 l 593 -212 q 508 -231 556 -231 z "},"Ẽ":{"ha":625,"x_min":101,"x_max":568,"o":"m 101 0 l 101 871 l 565 871 l 550 803 l 188 803 l 188 490 l 528 490 l 528 425 l 188 425 l 188 68 l 557 68 l 568 0 l 101 0 m 435 956 q 389 964 411 956 q 338 989 367 972 q 292 1010 308 1003 q 258 1017 275 1017 q 220 1003 238 1017 q 179 957 203 990 l 125 988 q 188 1072 160 1049 q 251 1096 215 1096 q 298 1087 275 1096 q 349 1063 321 1078 q 392 1042 375 1049 q 428 1035 410 1035 q 463 1048 447 1035 q 503 1094 479 1061 l 557 1065 q 501 981 529 1006 q 435 956 472 956 z "},"F":{"ha":578,"x_min":101,"x_max":553,"o":"m 101 0 l 101 871 l 553 871 l 540 803 l 188 803 l 188 472 l 497 472 l 497 408 l 188 408 l 188 0 l 101 0 z "},"Ḟ":{"ha":578,"x_min":101,"x_max":553,"o":"m 101 0 l 101 871 l 553 871 l 540 803 l 188 803 l 188 472 l 497 472 l 497 408 l 188 408 l 188 0 l 101 0 m 297 971 l 297 1075 l 390 1075 l 390 971 l 297 971 z "},"G":{"ha":742,"x_min":75,"x_max":654,"o":"m 396 -7 q 207 41 278 -7 q 106 186 136 89 q 75 440 75 283 q 158 778 75 675 q 406 882 240 882 q 631 832 526 882 l 631 667 l 556 667 l 556 785 q 491 803 531 796 q 414 810 451 810 q 276 781 331 810 q 190 672 221 751 q 160 447 160 592 q 182 226 160 308 q 256 104 204 143 q 400 65 308 65 q 494 74 447 65 q 575 99 540 82 l 575 385 l 415 385 l 415 451 l 654 451 l 654 63 q 542 13 601 33 q 396 -7 482 -7 z "},"Ǵ":{"ha":742,"x_min":75,"x_max":654,"o":"m 396 -7 q 207 41 278 -7 q 106 186 136 89 q 75 440 75 283 q 158 778 75 675 q 406 882 240 882 q 631 832 526 882 l 631 667 l 556 667 l 556 785 q 491 803 531 796 q 414 810 451 810 q 276 781 331 810 q 190 672 221 751 q 160 447 160 592 q 182 226 160 308 q 256 104 204 143 q 400 65 308 65 q 494 74 447 65 q 575 99 540 82 l 575 385 l 415 385 l 415 451 l 654 451 l 654 63 q 542 13 601 33 q 396 -7 482 -7 m 268 985 l 489 1164 l 544 1094 l 461 1039 q 294 943 408 1004 l 268 985 z "},"Ğ":{"ha":742,"x_min":75,"x_max":654,"o":"m 396 -7 q 207 41 278 -7 q 106 186 136 89 q 75 440 75 283 q 158 778 75 675 q 406 882 240 882 q 631 832 526 882 l 631 667 l 556 667 l 556 785 q 491 803 531 796 q 414 810 451 810 q 276 781 331 810 q 190 672 221 751 q 160 447 160 592 q 182 226 160 308 q 256 104 204 143 q 400 65 308 65 q 494 74 447 65 q 575 99 540 82 l 575 385 l 415 385 l 415 451 l 654 451 l 654 63 q 542 13 601 33 q 396 -7 482 -7 m 406 949 q 308 972 350 949 q 222 1050 265 996 l 274 1097 q 337 1042 307 1060 q 406 1024 367 1024 q 476 1042 446 1024 q 539 1097 506 1060 l 590 1050 q 505 972 547 996 q 406 949 463 949 z "},"Ǧ":{"ha":742,"x_min":75,"x_max":654,"o":"m 396 -7 q 207 41 278 -7 q 106 186 136 89 q 75 440 75 283 q 158 778 75 675 q 406 882 240 882 q 631 832 526 882 l 631 667 l 556 667 l 556 785 q 491 803 531 796 q 414 810 451 810 q 276 781 331 810 q 190 672 221 751 q 160 447 160 592 q 182 226 160 308 q 256 104 204 143 q 400 65 308 65 q 494 74 447 65 q 575 99 540 82 l 575 385 l 415 385 l 415 451 l 654 451 l 654 63 q 542 13 601 33 q 396 -7 482 -7 m 406 944 q 371 964 393 944 q 217 1107 286 1036 l 272 1151 l 406 1021 l 540 1151 l 596 1107 q 440 964 533 1043 q 406 944 418 944 z "},"Ĝ":{"ha":742,"x_min":75,"x_max":654,"o":"m 396 -7 q 207 41 278 -7 q 106 186 136 89 q 75 440 75 283 q 158 778 75 675 q 406 882 240 882 q 631 832 526 882 l 631 667 l 556 667 l 556 785 q 491 803 531 796 q 414 810 451 810 q 276 781 331 810 q 190 672 221 751 q 160 447 160 592 q 182 226 160 308 q 256 104 204 143 q 400 65 308 65 q 494 74 447 65 q 575 99 540 82 l 575 385 l 415 385 l 415 451 l 654 451 l 654 63 q 542 13 601 33 q 396 -7 482 -7 m 203 1004 l 226 1024 q 371 1133 304 1088 l 442 1133 q 575 1032 490 1100 q 608 1004 583 1024 l 550 950 l 406 1074 l 261 950 l 203 1004 z "},"Ģ":{"ha":742,"x_min":75,"x_max":654,"o":"m 396 -7 q 207 41 278 -7 q 106 186 136 89 q 75 440 75 283 q 158 778 75 675 q 406 882 240 882 q 631 832 526 882 l 631 667 l 556 667 l 556 785 q 491 803 531 796 q 414 810 451 810 q 276 781 331 810 q 190 672 221 751 q 160 447 160 592 q 182 226 160 308 q 256 104 204 143 q 400 65 308 65 q 494 74 447 65 q 575 99 540 82 l 575 385 l 415 385 l 415 451 l 654 451 l 654 63 q 542 13 601 33 q 396 -7 482 -7 m 451 -85 l 451 -162 q 382 -312 451 -247 l 344 -282 q 386 -189 382 -237 l 340 -189 l 340 -85 l 451 -85 z "},"Ġ":{"ha":742,"x_min":75,"x_max":654,"o":"m 396 -7 q 207 41 278 -7 q 106 186 136 89 q 75 440 75 283 q 158 778 75 675 q 406 882 240 882 q 631 832 526 882 l 631 667 l 556 667 l 556 785 q 491 803 531 796 q 414 810 451 810 q 276 781 331 810 q 190 672 221 751 q 160 447 160 592 q 182 226 160 308 q 256 104 204 143 q 400 65 308 65 q 494 74 447 65 q 575 99 540 82 l 575 385 l 415 385 l 415 451 l 654 451 l 654 63 q 542 13 601 33 q 396 -7 482 -7 m 360 971 l 360 1075 l 453 1075 l 453 971 l 360 971 z "},"H":{"ha":769,"x_min":101,"x_max":668,"o":"m 101 0 l 101 871 l 188 871 l 188 476 l 581 476 l 581 871 l 668 871 l 668 0 l 581 0 l 581 408 l 188 408 l 188 0 l 101 0 z "},"Ħ":{"ha":769,"x_min":28,"x_max":744,"o":"m 101 0 l 101 608 l 28 608 l 28 667 l 101 667 l 101 871 l 188 871 l 188 667 l 581 667 l 581 871 l 668 871 l 668 667 l 744 667 l 744 608 l 668 608 l 668 0 l 581 0 l 581 408 l 188 408 l 188 0 l 101 0 m 188 476 l 581 476 l 581 608 l 188 608 l 188 476 z "},"Ĥ":{"ha":769,"x_min":101,"x_max":668,"o":"m 101 0 l 101 871 l 188 871 l 188 476 l 581 476 l 581 871 l 668 871 l 668 0 l 581 0 l 581 408 l 188 408 l 188 0 l 101 0 m 182 1004 l 206 1024 q 350 1133 283 1088 l 421 1133 q 554 1032 469 1100 q 588 1004 563 1024 l 529 950 l 385 1074 l 240 950 l 182 1004 z "},"I":{"ha":494,"x_min":75,"x_max":421,"o":"m 75 0 l 75 68 l 206 68 l 206 803 l 75 803 l 75 871 l 418 871 l 418 803 l 293 803 l 293 68 l 421 68 l 421 0 l 75 0 z "},"Ĳ":{"ha":931,"x_min":75,"x_max":829,"o":"m 75 0 l 75 68 l 206 68 l 206 803 l 75 803 l 75 871 l 418 871 l 418 803 l 293 803 l 293 68 l 421 68 l 421 0 l 75 0 m 646 -157 q 526 -136 583 -157 l 536 -67 q 639 -86 588 -86 q 719 -52 696 -86 q 743 61 743 -18 l 743 803 l 565 803 l 565 871 l 829 871 l 829 61 q 783 -108 829 -58 q 646 -157 738 -157 z "},"Í":{"ha":494,"x_min":75,"x_max":421,"o":"m 75 0 l 75 68 l 206 68 l 206 803 l 75 803 l 75 871 l 418 871 l 418 803 l 293 803 l 293 68 l 421 68 l 421 0 l 75 0 m 113 985 l 333 1164 l 389 1094 l 306 1039 q 139 943 253 1004 l 113 985 z "},"Ĭ":{"ha":494,"x_min":67,"x_max":435,"o":"m 75 0 l 75 68 l 206 68 l 206 803 l 75 803 l 75 871 l 418 871 l 418 803 l 293 803 l 293 68 l 421 68 l 421 0 l 75 0 m 250 949 q 152 972 194 949 q 67 1050 110 996 l 118 1097 q 181 1042 151 1060 q 250 1024 211 1024 q 320 1042 290 1024 q 383 1097 350 1060 l 435 1050 q 349 972 392 996 q 250 949 307 949 z "},"Î":{"ha":494,"x_min":47,"x_max":453,"o":"m 75 0 l 75 68 l 206 68 l 206 803 l 75 803 l 75 871 l 418 871 l 418 803 l 293 803 l 293 68 l 421 68 l 421 0 l 75 0 m 47 1004 l 71 1024 q 215 1133 149 1088 l 286 1133 q 419 1032 335 1100 q 453 1004 428 1024 l 394 950 l 250 1074 l 106 950 l 47 1004 z "},"Ȉ":{"ha":494,"x_min":-28,"x_max":421,"o":"m 75 0 l 75 68 l 206 68 l 206 803 l 75 803 l 75 871 l 418 871 l 418 803 l 293 803 l 293 68 l 421 68 l 421 0 l 75 0 m 174 944 q 39 1074 61 1046 l -28 1154 l 44 1208 l 210 978 l 174 944 m 379 944 q 244 1074 276 1035 l 176 1154 l 249 1208 l 415 978 l 379 944 z "},"Ï":{"ha":494,"x_min":75,"x_max":421,"o":"m 75 0 l 75 68 l 206 68 l 206 803 l 75 803 l 75 871 l 418 871 l 418 803 l 293 803 l 293 68 l 421 68 l 421 0 l 75 0 m 97 965 l 97 1051 l 192 1051 l 192 965 l 97 965 m 310 965 l 310 1051 l 403 1051 l 403 965 l 310 965 z "},"İ":{"ha":494,"x_min":75,"x_max":421,"o":"m 75 0 l 75 68 l 206 68 l 206 803 l 75 803 l 75 871 l 418 871 l 418 803 l 293 803 l 293 68 l 421 68 l 421 0 l 75 0 m 204 971 l 204 1075 l 297 1075 l 297 971 l 204 971 z "},"Ị":{"ha":494,"x_min":75,"x_max":421,"o":"m 75 0 l 75 68 l 206 68 l 206 803 l 75 803 l 75 871 l 418 871 l 418 803 l 293 803 l 293 68 l 421 68 l 421 0 l 75 0 m 201 -190 l 201 -86 l 294 -86 l 294 -190 l 201 -190 z "},"Ì":{"ha":494,"x_min":75,"x_max":421,"o":"m 75 0 l 75 68 l 206 68 l 206 803 l 75 803 l 75 871 l 418 871 l 418 803 l 293 803 l 293 68 l 421 68 l 421 0 l 75 0 m 365 939 q 276 983 324 957 q 201 1029 228 1010 l 115 1090 l 171 1160 l 392 981 l 365 939 z "},"Ỉ":{"ha":494,"x_min":75,"x_max":421,"o":"m 75 0 l 75 68 l 206 68 l 206 803 l 75 803 l 75 871 l 418 871 l 418 803 l 293 803 l 293 68 l 421 68 l 421 0 l 75 0 m 214 1026 q 296 1045 265 1031 q 326 1097 326 1060 q 310 1133 326 1121 q 267 1146 294 1146 q 200 1132 238 1146 l 190 1186 q 283 1207 239 1207 q 372 1179 340 1207 q 404 1103 404 1151 q 278 993 404 1006 l 285 949 l 214 949 l 214 1026 z "},"Ȋ":{"ha":494,"x_min":63,"x_max":432,"o":"m 75 0 l 75 68 l 206 68 l 206 803 l 75 803 l 75 871 l 418 871 l 418 803 l 293 803 l 293 68 l 421 68 l 421 0 l 75 0 m 63 1019 q 149 1097 107 1074 q 247 1121 192 1121 q 345 1097 303 1121 q 432 1019 388 1074 l 379 972 q 317 1028 347 1011 q 247 1046 288 1046 q 177 1028 207 1046 q 115 972 147 1011 l 63 1019 z "},"Ī":{"ha":494,"x_min":75,"x_max":421,"o":"m 75 0 l 75 68 l 206 68 l 206 803 l 75 803 l 75 871 l 418 871 l 418 803 l 293 803 l 293 68 l 421 68 l 421 0 l 75 0 m 88 978 l 88 1050 l 414 1050 l 414 978 l 88 978 z "},"Į":{"ha":494,"x_min":75,"x_max":421,"o":"m 75 0 l 75 68 l 206 68 l 206 803 l 75 803 l 75 871 l 418 871 l 418 803 l 293 803 l 293 68 l 421 68 l 421 0 l 75 0 m 228 -231 q 149 -207 179 -231 q 118 -137 118 -183 q 148 -66 118 -103 q 231 0 178 -29 l 289 0 q 219 -56 250 -24 q 188 -122 188 -87 q 202 -160 188 -147 q 242 -172 217 -172 q 276 -168 258 -172 q 303 -158 293 -164 l 313 -212 q 228 -231 275 -231 z "},"Ĩ":{"ha":494,"x_min":35,"x_max":467,"o":"m 75 0 l 75 68 l 206 68 l 206 803 l 75 803 l 75 871 l 418 871 l 418 803 l 293 803 l 293 68 l 421 68 l 421 0 l 75 0 m 344 956 q 299 964 321 956 q 247 989 276 972 q 201 1010 218 1003 q 168 1017 185 1017 q 130 1003 147 1017 q 89 957 113 990 l 35 988 q 97 1072 69 1049 q 161 1096 125 1096 q 208 1087 185 1096 q 258 1063 231 1078 q 302 1042 285 1049 q 338 1035 319 1035 q 373 1048 357 1035 q 413 1094 389 1061 l 467 1065 q 410 981 439 1006 q 344 956 382 956 z "},"J":{"ha":436,"x_min":32,"x_max":335,"o":"m 151 -157 q 32 -136 89 -157 l 42 -67 q 144 -86 93 -86 q 225 -52 201 -86 q 249 61 249 -18 l 249 803 l 71 803 l 71 871 l 335 871 l 335 61 q 289 -108 335 -58 q 151 -157 243 -157 z "},"Ĵ":{"ha":436,"x_min":15,"x_max":421,"o":"m 151 -157 q 32 -136 89 -157 l 42 -67 q 144 -86 93 -86 q 225 -52 201 -86 q 249 61 249 -18 l 249 803 l 71 803 l 71 871 l 335 871 l 335 61 q 289 -108 335 -58 q 151 -157 243 -157 m 15 1004 l 39 1024 q 183 1133 117 1088 l 254 1133 q 388 1032 303 1100 q 421 1004 396 1024 l 363 950 l 218 1074 l 74 950 l 15 1004 z "},"K":{"ha":700,"x_min":101,"x_max":679,"o":"m 101 0 l 101 871 l 188 871 l 188 413 l 293 528 l 560 871 l 661 871 l 374 489 l 679 0 l 583 0 l 307 442 l 188 325 l 188 0 l 101 0 z "},"Ķ":{"ha":700,"x_min":101,"x_max":679,"o":"m 101 0 l 101 871 l 188 871 l 188 413 l 293 528 l 560 871 l 661 871 l 374 489 l 679 0 l 583 0 l 307 442 l 188 325 l 188 0 l 101 0 m 406 -85 l 406 -162 q 336 -312 406 -247 l 299 -282 q 340 -189 336 -237 l 294 -189 l 294 -85 l 406 -85 z "},"L":{"ha":560,"x_min":101,"x_max":533,"o":"m 101 0 l 101 871 l 188 871 l 188 68 l 521 68 l 533 0 l 101 0 z "},"Ǉ":{"ha":996,"x_min":101,"x_max":894,"o":"m 101 0 l 101 871 l 188 871 l 188 68 l 521 68 l 533 0 l 101 0 m 711 -157 q 592 -136 649 -157 l 601 -67 q 704 -86 653 -86 q 785 -52 761 -86 q 808 61 808 -18 l 808 803 l 631 803 l 631 871 l 894 871 l 894 61 q 849 -108 894 -58 q 711 -157 803 -157 z "},"Ĺ":{"ha":560,"x_min":101,"x_max":533,"o":"m 101 0 l 101 871 l 188 871 l 188 68 l 521 68 l 533 0 l 101 0 m 143 985 l 364 1164 l 419 1094 l 336 1039 q 169 943 283 1004 l 143 985 z "},"Ľ":{"ha":560,"x_min":101,"x_max":533,"o":"m 101 0 l 101 871 l 188 871 l 188 68 l 521 68 l 533 0 l 101 0 m 515 871 l 515 792 q 447 642 515 710 l 408 674 q 451 765 447 718 l 406 765 l 406 871 l 515 871 z "},"Ļ":{"ha":560,"x_min":101,"x_max":533,"o":"m 101 0 l 101 871 l 188 871 l 188 68 l 521 68 l 533 0 l 101 0 m 374 -85 l 374 -162 q 304 -312 374 -247 l 267 -282 q 308 -189 304 -237 l 263 -189 l 263 -85 l 374 -85 z "},"Ŀ":{"ha":560,"x_min":101,"x_max":533,"o":"m 101 0 l 101 871 l 188 871 l 188 68 l 521 68 l 533 0 l 101 0 m 368 386 l 368 529 l 483 529 l 483 386 l 368 386 z "},"ǈ":{"ha":985,"x_min":101,"x_max":893,"o":"m 101 0 l 101 871 l 188 871 l 188 68 l 521 68 l 533 0 l 101 0 m 832 797 q 788 813 806 797 q 769 857 769 829 q 788 902 769 885 q 832 919 806 919 q 876 903 860 919 q 893 858 893 888 q 876 813 893 829 q 832 797 860 797 m 700 -200 q 586 -186 631 -200 l 596 -112 q 697 -124 644 -124 q 772 -92 753 -124 q 790 19 790 -61 l 790 607 l 638 607 l 638 668 l 876 668 l 876 13 q 833 -149 876 -99 q 700 -200 789 -200 z "},"Ł":{"ha":560,"x_min":-28,"x_max":533,"o":"m 101 0 l 101 354 l 8 283 l -28 338 l 101 438 l 101 871 l 188 871 l 188 504 l 411 678 l 446 624 l 188 422 l 188 68 l 521 68 l 533 0 l 101 0 z "},"M":{"ha":924,"x_min":93,"x_max":831,"o":"m 93 0 l 161 871 l 257 871 l 463 394 l 661 871 l 757 871 l 831 0 l 751 0 l 686 746 l 501 297 l 424 297 l 232 747 l 174 0 l 93 0 z "},"Ṁ":{"ha":924,"x_min":93,"x_max":831,"o":"m 93 0 l 161 871 l 257 871 l 463 394 l 661 871 l 757 871 l 831 0 l 751 0 l 686 746 l 501 297 l 424 297 l 232 747 l 174 0 l 93 0 m 414 971 l 414 1075 l 507 1075 l 507 971 l 414 971 z "},"N":{"ha":810,"x_min":101,"x_max":708,"o":"m 101 0 l 101 871 l 193 871 l 629 149 l 629 871 l 708 871 l 708 0 l 622 0 l 183 733 l 183 0 l 101 0 z "},"Ǌ":{"ha":1246,"x_min":101,"x_max":1144,"o":"m 101 0 l 101 871 l 193 871 l 629 149 l 629 871 l 708 871 l 708 0 l 622 0 l 183 733 l 183 0 l 101 0 m 961 -157 q 842 -136 899 -157 l 851 -67 q 954 -86 903 -86 q 1035 -52 1011 -86 q 1058 61 1058 -18 l 1058 803 l 881 803 l 881 871 l 1144 871 l 1144 61 q 1099 -108 1144 -58 q 961 -157 1053 -157 z "},"Ń":{"ha":810,"x_min":101,"x_max":708,"o":"m 101 0 l 101 871 l 193 871 l 629 149 l 629 871 l 708 871 l 708 0 l 622 0 l 183 733 l 183 0 l 101 0 m 286 985 l 507 1164 l 563 1094 l 479 1039 q 313 943 426 1004 l 286 985 z "},"Ň":{"ha":810,"x_min":101,"x_max":708,"o":"m 101 0 l 101 871 l 193 871 l 629 149 l 629 871 l 708 871 l 708 0 l 622 0 l 183 733 l 183 0 l 101 0 m 424 944 q 389 964 411 944 q 235 1107 304 1036 l 290 1151 l 424 1021 l 558 1151 l 614 1107 q 458 964 551 1043 q 424 944 436 944 z "},"Ņ":{"ha":810,"x_min":101,"x_max":708,"o":"m 101 0 l 101 871 l 193 871 l 629 149 l 629 871 l 708 871 l 708 0 l 622 0 l 183 733 l 183 0 l 101 0 m 467 -85 l 467 -162 q 397 -312 467 -247 l 360 -282 q 401 -189 397 -237 l 356 -189 l 356 -85 l 467 -85 z "},"Ŋ":{"ha":810,"x_min":101,"x_max":708,"o":"m 414 -97 q 533 -85 490 -97 q 597 -35 575 -74 q 618 83 618 3 l 183 733 l 183 0 l 101 0 l 101 871 l 193 871 l 629 215 l 629 871 l 708 871 l 708 68 q 669 -83 708 -31 q 566 -153 629 -136 q 415 -169 503 -169 l 414 -97 z "},"ǋ":{"ha":1235,"x_min":101,"x_max":1143,"o":"m 101 0 l 101 871 l 193 871 l 629 149 l 629 871 l 708 871 l 708 0 l 622 0 l 183 733 l 183 0 l 101 0 m 1082 797 q 1038 813 1056 797 q 1019 857 1019 829 q 1038 902 1019 885 q 1082 919 1056 919 q 1126 903 1110 919 q 1143 858 1143 888 q 1126 813 1143 829 q 1082 797 1110 797 m 950 -200 q 836 -186 881 -200 l 846 -112 q 947 -124 894 -124 q 1022 -92 1003 -124 q 1040 19 1040 -61 l 1040 607 l 888 607 l 888 668 l 1126 668 l 1126 13 q 1083 -149 1126 -99 q 950 -200 1039 -200 z "},"Ñ":{"ha":810,"x_min":101,"x_max":708,"o":"m 101 0 l 101 871 l 193 871 l 629 149 l 629 871 l 708 871 l 708 0 l 622 0 l 183 733 l 183 0 l 101 0 m 518 956 q 472 964 494 956 q 421 989 450 972 q 375 1010 392 1003 q 342 1017 358 1017 q 303 1003 321 1017 q 263 957 286 990 l 208 988 q 271 1072 243 1049 q 335 1096 299 1096 q 381 1087 358 1096 q 432 1063 404 1078 q 476 1042 458 1049 q 511 1035 493 1035 q 547 1048 531 1035 q 586 1094 563 1061 l 640 1065 q 584 981 613 1006 q 518 956 556 956 z "},"O":{"ha":765,"x_min":79,"x_max":686,"o":"m 382 -7 q 197 44 263 -7 q 105 192 131 96 q 79 439 79 289 q 106 684 79 588 q 200 831 133 781 q 382 882 267 882 q 564 831 497 882 q 658 684 631 781 q 686 439 686 588 q 660 192 686 288 q 568 44 635 96 q 382 -7 501 -7 m 382 65 q 514 104 467 65 q 581 223 561 143 q 600 438 600 303 q 580 653 600 572 q 513 772 560 733 q 382 810 465 810 q 252 772 299 810 q 185 653 206 733 q 165 438 165 572 q 185 223 165 303 q 251 104 204 143 q 382 65 299 65 z "},"Ó":{"ha":765,"x_min":79,"x_max":686,"o":"m 382 -7 q 197 44 263 -7 q 105 192 131 96 q 79 439 79 289 q 106 684 79 588 q 200 831 133 781 q 382 882 267 882 q 564 831 497 882 q 658 684 631 781 q 686 439 686 588 q 660 192 686 288 q 568 44 635 96 q 382 -7 501 -7 m 382 65 q 514 104 467 65 q 581 223 561 143 q 600 438 600 303 q 580 653 600 572 q 513 772 560 733 q 382 810 465 810 q 252 772 299 810 q 185 653 206 733 q 165 438 165 572 q 185 223 165 303 q 251 104 204 143 q 382 65 299 65 m 244 985 l 465 1164 l 521 1094 l 438 1039 q 271 943 385 1004 l 244 985 z "},"Ŏ":{"ha":765,"x_min":79,"x_max":686,"o":"m 382 -7 q 197 44 263 -7 q 105 192 131 96 q 79 439 79 289 q 106 684 79 588 q 200 831 133 781 q 382 882 267 882 q 564 831 497 882 q 658 684 631 781 q 686 439 686 588 q 660 192 686 288 q 568 44 635 96 q 382 -7 501 -7 m 382 65 q 514 104 467 65 q 581 223 561 143 q 600 438 600 303 q 580 653 600 572 q 513 772 560 733 q 382 810 465 810 q 252 772 299 810 q 185 653 206 733 q 165 438 165 572 q 185 223 165 303 q 251 104 204 143 q 382 65 299 65 m 382 949 q 284 972 326 949 q 199 1050 242 996 l 250 1097 q 313 1042 283 1060 q 382 1024 343 1024 q 452 1042 422 1024 q 515 1097 482 1060 l 567 1050 q 481 972 524 996 q 382 949 439 949 z "},"Ô":{"ha":765,"x_min":79,"x_max":686,"o":"m 382 -7 q 197 44 263 -7 q 105 192 131 96 q 79 439 79 289 q 106 684 79 588 q 200 831 133 781 q 382 882 267 882 q 564 831 497 882 q 658 684 631 781 q 686 439 686 588 q 660 192 686 288 q 568 44 635 96 q 382 -7 501 -7 m 382 65 q 514 104 467 65 q 581 223 561 143 q 600 438 600 303 q 580 653 600 572 q 513 772 560 733 q 382 810 465 810 q 252 772 299 810 q 185 653 206 733 q 165 438 165 572 q 185 223 165 303 q 251 104 204 143 q 382 65 299 65 m 179 1004 l 203 1024 q 347 1133 281 1088 l 418 1133 q 551 1032 467 1100 q 585 1004 560 1024 l 526 950 l 382 1074 l 238 950 l 179 1004 z "},"Ố":{"ha":765,"x_min":79,"x_max":696,"o":"m 382 -7 q 197 44 263 -7 q 105 192 131 96 q 79 439 79 289 q 106 684 79 588 q 200 831 133 781 q 382 882 267 882 q 564 831 497 882 q 658 684 631 781 q 686 439 686 588 q 660 192 686 288 q 568 44 635 96 q 382 -7 501 -7 m 382 65 q 514 104 467 65 q 581 223 561 143 q 600 438 600 303 q 580 653 600 572 q 513 772 560 733 q 382 810 465 810 q 252 772 299 810 q 185 653 206 733 q 165 438 165 572 q 185 223 165 303 q 251 104 204 143 q 382 65 299 65 m 507 1082 l 586 1228 l 696 1228 l 625 1133 q 579 1082 601 1103 l 507 1082 m 179 964 q 347 1107 279 1054 l 418 1107 q 585 964 493 1049 l 526 910 l 382 1049 l 238 910 l 179 964 z "},"Ộ":{"ha":765,"x_min":79,"x_max":686,"o":"m 382 -7 q 197 44 263 -7 q 105 192 131 96 q 79 439 79 289 q 106 684 79 588 q 200 831 133 781 q 382 882 267 882 q 564 831 497 882 q 658 684 631 781 q 686 439 686 588 q 660 192 686 288 q 568 44 635 96 q 382 -7 501 -7 m 382 65 q 514 104 467 65 q 581 223 561 143 q 600 438 600 303 q 580 653 600 572 q 513 772 560 733 q 382 810 465 810 q 252 772 299 810 q 185 653 206 733 q 165 438 165 572 q 185 223 165 303 q 251 104 204 143 q 382 65 299 65 m 179 1004 l 203 1024 q 347 1133 281 1088 l 418 1133 q 551 1032 467 1100 q 585 1004 560 1024 l 526 950 l 382 1074 l 238 950 l 179 1004 m 336 -190 l 336 -86 l 429 -86 l 429 -190 l 336 -190 z "},"Ồ":{"ha":765,"x_min":79,"x_max":686,"o":"m 382 -7 q 197 44 263 -7 q 105 192 131 96 q 79 439 79 289 q 106 684 79 588 q 200 831 133 781 q 382 882 267 882 q 564 831 497 882 q 658 684 631 781 q 686 439 686 588 q 660 192 686 288 q 568 44 635 96 q 382 -7 501 -7 m 382 65 q 514 104 467 65 q 581 223 561 143 q 600 438 600 303 q 580 653 600 572 q 513 772 560 733 q 382 810 465 810 q 252 772 299 810 q 185 653 206 733 q 165 438 165 572 q 185 223 165 303 q 251 104 204 143 q 382 65 299 65 m 543 1082 q 497 1133 521 1103 l 426 1228 l 535 1228 l 614 1082 l 543 1082 m 179 964 q 347 1107 279 1054 l 418 1107 q 585 964 493 1049 l 526 910 l 382 1049 l 238 910 l 179 964 z "},"Ổ":{"ha":765,"x_min":79,"x_max":688,"o":"m 382 -7 q 197 44 263 -7 q 105 192 131 96 q 79 439 79 289 q 106 684 79 588 q 200 831 133 781 q 382 882 267 882 q 564 831 497 882 q 658 684 631 781 q 686 439 686 588 q 660 192 686 288 q 568 44 635 96 q 382 -7 501 -7 m 382 65 q 514 104 467 65 q 581 223 561 143 q 600 438 600 303 q 580 653 600 572 q 513 772 560 733 q 382 810 465 810 q 252 772 299 810 q 185 653 206 733 q 165 438 165 572 q 185 223 165 303 q 251 104 204 143 q 382 65 299 65 m 504 1131 q 581 1149 553 1135 q 610 1199 610 1163 q 594 1235 610 1222 q 551 1249 579 1249 q 490 1236 522 1249 l 481 1290 q 575 1310 526 1310 q 658 1282 628 1310 q 688 1206 688 1254 q 656 1128 688 1153 q 568 1097 624 1103 l 572 1065 l 504 1065 l 504 1131 m 179 964 q 347 1107 279 1054 l 418 1107 q 585 964 493 1049 l 526 910 l 382 1049 l 238 910 l 179 964 z "},"Ỗ":{"ha":765,"x_min":79,"x_max":686,"o":"m 382 -7 q 197 44 263 -7 q 105 192 131 96 q 79 439 79 289 q 106 684 79 588 q 200 831 133 781 q 382 882 267 882 q 564 831 497 882 q 658 684 631 781 q 686 439 686 588 q 660 192 686 288 q 568 44 635 96 q 382 -7 501 -7 m 382 65 q 514 104 467 65 q 581 223 561 143 q 600 438 600 303 q 580 653 600 572 q 513 772 560 733 q 382 810 465 810 q 252 772 299 810 q 185 653 206 733 q 165 438 165 572 q 185 223 165 303 q 251 104 204 143 q 382 65 299 65 m 476 1139 q 431 1147 453 1139 q 379 1172 408 1156 q 333 1193 350 1186 q 300 1200 317 1200 q 262 1187 279 1200 q 221 1140 244 1174 l 167 1171 q 229 1256 201 1232 q 293 1279 257 1279 q 340 1270 317 1279 q 390 1246 363 1261 q 469 1217 440 1217 q 504 1230 489 1217 q 544 1278 519 1243 l 599 1247 q 542 1164 571 1189 q 476 1139 514 1139 m 179 964 q 347 1107 279 1054 l 418 1107 q 585 964 493 1049 l 526 910 l 382 1049 l 238 910 l 179 964 z "},"Ȍ":{"ha":765,"x_min":79,"x_max":686,"o":"m 382 -7 q 197 44 263 -7 q 105 192 131 96 q 79 439 79 289 q 106 684 79 588 q 200 831 133 781 q 382 882 267 882 q 564 831 497 882 q 658 684 631 781 q 686 439 686 588 q 660 192 686 288 q 568 44 635 96 q 382 -7 501 -7 m 382 65 q 514 104 467 65 q 581 223 561 143 q 600 438 600 303 q 580 653 600 572 q 513 772 560 733 q 382 810 465 810 q 252 772 299 810 q 185 653 206 733 q 165 438 165 572 q 185 223 165 303 q 251 104 204 143 q 382 65 299 65 m 308 944 q 174 1074 196 1046 l 107 1154 l 179 1208 l 344 978 l 308 944 m 514 944 q 379 1074 411 1035 l 311 1154 l 383 1208 l 550 978 l 514 944 z "},"Ö":{"ha":765,"x_min":79,"x_max":686,"o":"m 382 -7 q 197 44 263 -7 q 105 192 131 96 q 79 439 79 289 q 106 684 79 588 q 200 831 133 781 q 382 882 267 882 q 564 831 497 882 q 658 684 631 781 q 686 439 686 588 q 660 192 686 288 q 568 44 635 96 q 382 -7 501 -7 m 382 65 q 514 104 467 65 q 581 223 561 143 q 600 438 600 303 q 580 653 600 572 q 513 772 560 733 q 382 810 465 810 q 252 772 299 810 q 185 653 206 733 q 165 438 165 572 q 185 223 165 303 q 251 104 204 143 q 382 65 299 65 m 229 965 l 229 1051 l 324 1051 l 324 965 l 229 965 m 442 965 l 442 1051 l 535 1051 l 535 965 l 442 965 z "},"Ȫ":{"ha":765,"x_min":79,"x_max":686,"o":"m 382 -7 q 197 44 263 -7 q 105 192 131 96 q 79 439 79 289 q 106 684 79 588 q 200 831 133 781 q 382 882 267 882 q 564 831 497 882 q 658 684 631 781 q 686 439 686 588 q 660 192 686 288 q 568 44 635 96 q 382 -7 501 -7 m 382 65 q 514 104 467 65 q 581 223 561 143 q 600 438 600 303 q 580 653 600 572 q 513 772 560 733 q 382 810 465 810 q 252 772 299 810 q 185 653 206 733 q 165 438 165 572 q 185 223 165 303 q 251 104 204 143 q 382 65 299 65 m 229 965 l 229 1051 l 324 1051 l 324 965 l 229 965 m 442 965 l 442 1051 l 535 1051 l 535 965 l 442 965 m 219 1133 l 219 1206 l 546 1206 l 546 1133 l 219 1133 z "},"Ȱ":{"ha":765,"x_min":79,"x_max":686,"o":"m 382 -7 q 197 44 263 -7 q 105 192 131 96 q 79 439 79 289 q 106 684 79 588 q 200 831 133 781 q 382 882 267 882 q 564 831 497 882 q 658 684 631 781 q 686 439 686 588 q 660 192 686 288 q 568 44 635 96 q 382 -7 501 -7 m 382 65 q 514 104 467 65 q 581 223 561 143 q 600 438 600 303 q 580 653 600 572 q 513 772 560 733 q 382 810 465 810 q 252 772 299 810 q 185 653 206 733 q 165 438 165 572 q 185 223 165 303 q 251 104 204 143 q 382 65 299 65 m 336 971 l 336 1075 l 429 1075 l 429 971 l 336 971 m 219 1174 l 219 1246 l 546 1246 l 546 1174 l 219 1174 z "},"Ọ":{"ha":765,"x_min":79,"x_max":686,"o":"m 382 -7 q 197 44 263 -7 q 105 192 131 96 q 79 439 79 289 q 106 684 79 588 q 200 831 133 781 q 382 882 267 882 q 564 831 497 882 q 658 684 631 781 q 686 439 686 588 q 660 192 686 288 q 568 44 635 96 q 382 -7 501 -7 m 382 65 q 514 104 467 65 q 581 223 561 143 q 600 438 600 303 q 580 653 600 572 q 513 772 560 733 q 382 810 465 810 q 252 772 299 810 q 185 653 206 733 q 165 438 165 572 q 185 223 165 303 q 251 104 204 143 q 382 65 299 65 m 336 -190 l 336 -86 l 429 -86 l 429 -190 l 336 -190 z "},"Ò":{"ha":765,"x_min":79,"x_max":686,"o":"m 382 -7 q 197 44 263 -7 q 105 192 131 96 q 79 439 79 289 q 106 684 79 588 q 200 831 133 781 q 382 882 267 882 q 564 831 497 882 q 658 684 631 781 q 686 439 686 588 q 660 192 686 288 q 568 44 635 96 q 382 -7 501 -7 m 382 65 q 514 104 467 65 q 581 223 561 143 q 600 438 600 303 q 580 653 600 572 q 513 772 560 733 q 382 810 465 810 q 252 772 299 810 q 185 653 206 733 q 165 438 165 572 q 185 223 165 303 q 251 104 204 143 q 382 65 299 65 m 497 939 q 408 983 456 957 q 333 1029 360 1010 l 247 1090 l 303 1160 l 524 981 l 497 939 z "},"Ỏ":{"ha":765,"x_min":79,"x_max":686,"o":"m 382 -7 q 197 44 263 -7 q 105 192 131 96 q 79 439 79 289 q 106 684 79 588 q 200 831 133 781 q 382 882 267 882 q 564 831 497 882 q 658 684 631 781 q 686 439 686 588 q 660 192 686 288 q 568 44 635 96 q 382 -7 501 -7 m 382 65 q 514 104 467 65 q 581 223 561 143 q 600 438 600 303 q 580 653 600 572 q 513 772 560 733 q 382 810 465 810 q 252 772 299 810 q 185 653 206 733 q 165 438 165 572 q 185 223 165 303 q 251 104 204 143 q 382 65 299 65 m 346 1026 q 428 1045 397 1031 q 458 1097 458 1060 q 442 1133 458 1121 q 399 1146 426 1146 q 332 1132 369 1146 l 322 1186 q 415 1207 371 1207 q 504 1179 472 1207 q 536 1103 536 1151 q 410 993 536 1006 l 417 949 l 346 949 l 346 1026 z "},"Ơ":{"ha":765,"x_min":79,"x_max":765,"o":"m 765 875 q 733 790 765 824 q 640 733 700 757 q 686 439 686 632 q 660 192 686 288 q 568 44 635 96 q 382 -7 501 -7 q 197 44 263 -7 q 105 192 131 96 q 79 439 79 289 q 106 684 79 588 q 200 831 133 781 q 382 882 267 882 q 613 783 540 882 q 662 823 646 800 q 678 881 678 846 q 664 942 678 911 l 753 942 q 765 875 765 911 m 382 65 q 514 104 467 65 q 581 223 561 143 q 600 438 600 303 q 580 653 600 572 q 513 772 560 733 q 382 810 465 810 q 252 772 299 810 q 185 653 206 733 q 165 438 165 572 q 185 223 165 303 q 251 104 204 143 q 382 65 299 65 z "},"Ớ":{"ha":765,"x_min":79,"x_max":765,"o":"m 765 875 q 733 790 765 824 q 640 733 700 757 q 686 439 686 632 q 660 192 686 288 q 568 44 635 96 q 382 -7 501 -7 q 197 44 263 -7 q 105 192 131 96 q 79 439 79 289 q 106 684 79 588 q 200 831 133 781 q 382 882 267 882 q 613 783 540 882 q 662 823 646 800 q 678 881 678 846 q 664 942 678 911 l 753 942 q 765 875 765 911 m 382 65 q 514 104 467 65 q 581 223 561 143 q 600 438 600 303 q 580 653 600 572 q 513 772 560 733 q 382 810 465 810 q 252 772 299 810 q 185 653 206 733 q 165 438 165 572 q 185 223 165 303 q 251 104 204 143 q 382 65 299 65 m 244 985 l 465 1164 l 521 1094 l 438 1039 q 271 943 385 1004 l 244 985 z "},"Ợ":{"ha":765,"x_min":79,"x_max":765,"o":"m 765 875 q 733 790 765 824 q 640 733 700 757 q 686 439 686 632 q 660 192 686 288 q 568 44 635 96 q 382 -7 501 -7 q 197 44 263 -7 q 105 192 131 96 q 79 439 79 289 q 106 684 79 588 q 200 831 133 781 q 382 882 267 882 q 613 783 540 882 q 662 823 646 800 q 678 881 678 846 q 664 942 678 911 l 753 942 q 765 875 765 911 m 382 65 q 514 104 467 65 q 581 223 561 143 q 600 438 600 303 q 580 653 600 572 q 513 772 560 733 q 382 810 465 810 q 252 772 299 810 q 185 653 206 733 q 165 438 165 572 q 185 223 165 303 q 251 104 204 143 q 382 65 299 65 m 336 -190 l 336 -86 l 429 -86 l 429 -190 l 336 -190 z "},"Ờ":{"ha":765,"x_min":79,"x_max":765,"o":"m 765 875 q 733 790 765 824 q 640 733 700 757 q 686 439 686 632 q 660 192 686 288 q 568 44 635 96 q 382 -7 501 -7 q 197 44 263 -7 q 105 192 131 96 q 79 439 79 289 q 106 684 79 588 q 200 831 133 781 q 382 882 267 882 q 613 783 540 882 q 662 823 646 800 q 678 881 678 846 q 664 942 678 911 l 753 942 q 765 875 765 911 m 382 65 q 514 104 467 65 q 581 223 561 143 q 600 438 600 303 q 580 653 600 572 q 513 772 560 733 q 382 810 465 810 q 252 772 299 810 q 185 653 206 733 q 165 438 165 572 q 185 223 165 303 q 251 104 204 143 q 382 65 299 65 m 497 939 q 408 983 456 957 q 333 1029 360 1010 l 247 1090 l 303 1160 l 524 981 l 497 939 z "},"Ở":{"ha":765,"x_min":79,"x_max":765,"o":"m 765 875 q 733 790 765 824 q 640 733 700 757 q 686 439 686 632 q 660 192 686 288 q 568 44 635 96 q 382 -7 501 -7 q 197 44 263 -7 q 105 192 131 96 q 79 439 79 289 q 106 684 79 588 q 200 831 133 781 q 382 882 267 882 q 613 783 540 882 q 662 823 646 800 q 678 881 678 846 q 664 942 678 911 l 753 942 q 765 875 765 911 m 382 65 q 514 104 467 65 q 581 223 561 143 q 600 438 600 303 q 580 653 600 572 q 513 772 560 733 q 382 810 465 810 q 252 772 299 810 q 185 653 206 733 q 165 438 165 572 q 185 223 165 303 q 251 104 204 143 q 382 65 299 65 m 346 1026 q 428 1045 397 1031 q 458 1097 458 1060 q 442 1133 458 1121 q 399 1146 426 1146 q 332 1132 369 1146 l 322 1186 q 415 1207 371 1207 q 504 1179 472 1207 q 536 1103 536 1151 q 410 993 536 1006 l 417 949 l 346 949 l 346 1026 z "},"Ỡ":{"ha":765,"x_min":79,"x_max":765,"o":"m 765 875 q 733 790 765 824 q 640 733 700 757 q 686 439 686 632 q 660 192 686 288 q 568 44 635 96 q 382 -7 501 -7 q 197 44 263 -7 q 105 192 131 96 q 79 439 79 289 q 106 684 79 588 q 200 831 133 781 q 382 882 267 882 q 613 783 540 882 q 662 823 646 800 q 678 881 678 846 q 664 942 678 911 l 753 942 q 765 875 765 911 m 382 65 q 514 104 467 65 q 581 223 561 143 q 600 438 600 303 q 580 653 600 572 q 513 772 560 733 q 382 810 465 810 q 252 772 299 810 q 185 653 206 733 q 165 438 165 572 q 185 223 165 303 q 251 104 204 143 q 382 65 299 65 m 476 956 q 431 964 453 956 q 379 989 408 972 q 333 1010 350 1003 q 300 1017 317 1017 q 262 1003 279 1017 q 221 957 244 990 l 167 988 q 229 1072 201 1049 q 293 1096 257 1096 q 340 1087 317 1096 q 390 1063 363 1078 q 434 1042 417 1049 q 469 1035 451 1035 q 505 1048 489 1035 q 544 1094 521 1061 l 599 1065 q 542 981 571 1006 q 476 956 514 956 z "},"Ő":{"ha":765,"x_min":79,"x_max":686,"o":"m 382 -7 q 197 44 263 -7 q 105 192 131 96 q 79 439 79 289 q 106 684 79 588 q 200 831 133 781 q 382 882 267 882 q 564 831 497 882 q 658 684 631 781 q 686 439 686 588 q 660 192 686 288 q 568 44 635 96 q 382 -7 501 -7 m 382 65 q 514 104 467 65 q 581 223 561 143 q 600 438 600 303 q 580 653 600 572 q 513 772 560 733 q 382 810 465 810 q 252 772 299 810 q 185 653 206 733 q 165 438 165 572 q 185 223 165 303 q 251 104 204 143 q 382 65 299 65 m 244 964 l 410 1196 l 482 1140 l 417 1067 q 347 994 397 1043 q 281 931 297 946 l 244 964 m 444 964 l 611 1196 l 683 1140 l 617 1067 q 547 994 597 1042 q 481 931 497 946 l 444 964 z "},"Ȏ":{"ha":765,"x_min":79,"x_max":686,"o":"m 382 -7 q 197 44 263 -7 q 105 192 131 96 q 79 439 79 289 q 106 684 79 588 q 200 831 133 781 q 382 882 267 882 q 564 831 497 882 q 658 684 631 781 q 686 439 686 588 q 660 192 686 288 q 568 44 635 96 q 382 -7 501 -7 m 382 65 q 514 104 467 65 q 581 223 561 143 q 600 438 600 303 q 580 653 600 572 q 513 772 560 733 q 382 810 465 810 q 252 772 299 810 q 185 653 206 733 q 165 438 165 572 q 185 223 165 303 q 251 104 204 143 q 382 65 299 65 m 197 1019 q 284 1097 242 1074 q 382 1121 326 1121 q 480 1097 438 1121 q 567 1019 522 1074 l 514 972 q 452 1028 482 1011 q 382 1046 422 1046 q 312 1028 342 1046 q 250 972 282 1011 l 197 1019 z "},"Ō":{"ha":765,"x_min":79,"x_max":686,"o":"m 382 -7 q 197 44 263 -7 q 105 192 131 96 q 79 439 79 289 q 106 684 79 588 q 200 831 133 781 q 382 882 267 882 q 564 831 497 882 q 658 684 631 781 q 686 439 686 588 q 660 192 686 288 q 568 44 635 96 q 382 -7 501 -7 m 382 65 q 514 104 467 65 q 581 223 561 143 q 600 438 600 303 q 580 653 600 572 q 513 772 560 733 q 382 810 465 810 q 252 772 299 810 q 185 653 206 733 q 165 438 165 572 q 185 223 165 303 q 251 104 204 143 q 382 65 299 65 m 219 978 l 219 1050 l 546 1050 l 546 978 l 219 978 z "},"Ǫ":{"ha":765,"x_min":79,"x_max":686,"o":"m 521 17 q 455 -36 485 -4 q 425 -101 425 -68 q 440 -139 425 -126 q 479 -151 454 -151 q 513 -147 496 -151 q 540 -137 531 -143 l 550 -192 q 465 -210 513 -210 q 386 -186 417 -210 q 356 -117 356 -162 q 374 -60 356 -89 q 428 -4 393 -31 q 382 -7 400 -7 q 197 44 263 -7 q 105 192 131 96 q 79 439 79 289 q 106 684 79 588 q 200 831 133 781 q 382 882 267 882 q 564 831 497 882 q 658 684 631 781 q 686 439 686 588 q 650 159 686 263 q 521 17 614 56 m 165 438 q 185 223 165 303 q 251 104 204 143 q 382 65 299 65 q 514 104 467 65 q 581 223 561 143 q 600 438 600 303 q 580 653 600 572 q 513 772 560 733 q 382 810 465 810 q 252 772 299 810 q 185 653 206 733 q 165 438 165 572 z "},"Ø":{"ha":786,"x_min":79,"x_max":686,"o":"m 578 821 q 661 676 636 769 q 686 439 686 582 q 660 192 686 288 q 568 44 635 96 q 382 -7 501 -7 q 254 13 310 -7 l 204 -112 l 150 -87 l 201 42 q 106 187 133 89 q 79 439 79 285 q 106 684 79 588 q 200 831 133 781 q 382 882 267 882 q 526 854 467 882 l 579 985 l 633 958 l 578 821 m 165 438 q 181 239 165 315 q 233 121 196 163 l 499 782 q 382 810 456 810 q 252 772 299 810 q 185 653 206 733 q 165 438 165 572 m 382 65 q 514 104 467 65 q 581 223 561 143 q 600 438 600 303 q 587 621 600 547 q 544 738 574 694 l 283 83 q 382 65 321 65 z "},"Ǿ":{"ha":786,"x_min":79,"x_max":686,"o":"m 578 821 q 661 676 636 769 q 686 439 686 582 q 660 192 686 288 q 568 44 635 96 q 382 -7 501 -7 q 254 13 310 -7 l 204 -112 l 150 -87 l 201 42 q 106 187 133 89 q 79 439 79 285 q 106 684 79 588 q 200 831 133 781 q 382 882 267 882 q 526 854 467 882 l 579 985 l 633 958 l 578 821 m 165 438 q 181 239 165 315 q 233 121 196 163 l 499 782 q 382 810 456 810 q 252 772 299 810 q 185 653 206 733 q 165 438 165 572 m 382 65 q 514 104 467 65 q 581 223 561 143 q 600 438 600 303 q 587 621 600 547 q 544 738 574 694 l 283 83 q 382 65 321 65 m 247 985 l 468 1164 l 524 1094 l 440 1039 q 274 943 388 1004 l 247 985 z "},"Õ":{"ha":765,"x_min":79,"x_max":686,"o":"m 382 -7 q 197 44 263 -7 q 105 192 131 96 q 79 439 79 289 q 106 684 79 588 q 200 831 133 781 q 382 882 267 882 q 564 831 497 882 q 658 684 631 781 q 686 439 686 588 q 660 192 686 288 q 568 44 635 96 q 382 -7 501 -7 m 382 65 q 514 104 467 65 q 581 223 561 143 q 600 438 600 303 q 580 653 600 572 q 513 772 560 733 q 382 810 465 810 q 252 772 299 810 q 185 653 206 733 q 165 438 165 572 q 185 223 165 303 q 251 104 204 143 q 382 65 299 65 m 476 956 q 431 964 453 956 q 379 989 408 972 q 333 1010 350 1003 q 300 1017 317 1017 q 262 1003 279 1017 q 221 957 244 990 l 167 988 q 229 1072 201 1049 q 293 1096 257 1096 q 340 1087 317 1096 q 390 1063 363 1078 q 434 1042 417 1049 q 469 1035 451 1035 q 505 1048 489 1035 q 544 1094 521 1061 l 599 1065 q 542 981 571 1006 q 476 956 514 956 z "},"Ȭ":{"ha":765,"x_min":79,"x_max":686,"o":"m 382 -7 q 197 44 263 -7 q 105 192 131 96 q 79 439 79 289 q 106 684 79 588 q 200 831 133 781 q 382 882 267 882 q 564 831 497 882 q 658 684 631 781 q 686 439 686 588 q 660 192 686 288 q 568 44 635 96 q 382 -7 501 -7 m 382 65 q 514 104 467 65 q 581 223 561 143 q 600 438 600 303 q 580 653 600 572 q 513 772 560 733 q 382 810 465 810 q 252 772 299 810 q 185 653 206 733 q 165 438 165 572 q 185 223 165 303 q 251 104 204 143 q 382 65 299 65 m 476 956 q 431 964 453 956 q 379 989 408 972 q 333 1010 350 1003 q 300 1017 317 1017 q 262 1003 279 1017 q 221 957 244 990 l 167 988 q 229 1072 201 1049 q 293 1096 257 1096 q 340 1087 317 1096 q 390 1063 363 1078 q 434 1042 417 1049 q 469 1035 451 1035 q 505 1048 489 1035 q 544 1094 521 1061 l 599 1065 q 542 981 571 1006 q 476 956 514 956 m 219 1181 l 219 1253 l 546 1253 l 546 1181 l 219 1181 z "},"Œ":{"ha":1124,"x_min":79,"x_max":1067,"o":"m 382 0 q 197 49 263 0 q 105 194 131 99 q 79 439 79 289 q 106 681 79 588 q 200 823 133 775 q 382 871 267 871 l 1064 871 l 1049 803 l 686 803 l 686 490 l 1026 490 l 1026 425 l 686 425 l 686 71 l 1056 71 l 1067 0 l 382 0 m 600 71 l 600 804 l 382 803 q 251 766 299 803 q 185 651 204 729 q 165 438 165 572 q 185 224 165 303 q 251 108 204 146 q 382 71 297 71 l 600 71 z "},"P":{"ha":665,"x_min":101,"x_max":622,"o":"m 101 871 l 338 871 q 551 814 479 871 q 622 614 622 757 q 582 458 622 513 q 465 384 542 404 q 261 364 388 364 l 188 364 l 188 0 l 101 0 l 101 871 m 244 435 q 418 444 361 435 q 505 491 475 453 q 535 613 535 529 q 490 762 535 721 q 343 803 444 803 l 188 803 l 188 435 l 244 435 z "},"Ṗ":{"ha":665,"x_min":101,"x_max":622,"o":"m 101 871 l 338 871 q 551 814 479 871 q 622 614 622 757 q 582 458 622 513 q 465 384 542 404 q 261 364 388 364 l 188 364 l 188 0 l 101 0 l 101 871 m 244 435 q 418 444 361 435 q 505 491 475 453 q 535 613 535 529 q 490 762 535 721 q 343 803 444 803 l 188 803 l 188 435 l 244 435 m 288 971 l 288 1075 l 381 1075 l 381 971 l 288 971 z "},"Þ":{"ha":665,"x_min":101,"x_max":622,"o":"m 101 871 l 189 871 l 189 714 l 317 714 q 543 663 464 714 q 622 472 622 611 q 579 317 622 371 q 457 242 536 263 q 250 222 378 222 l 188 222 l 188 0 l 101 0 l 101 871 m 249 292 q 418 302 361 292 q 505 351 475 313 q 535 471 535 389 q 509 583 535 544 q 439 633 483 621 q 322 646 394 646 l 188 646 l 188 292 l 249 292 z "},"Q":{"ha":768,"x_min":81,"x_max":688,"o":"m 533 19 q 383 -11 469 -11 q 199 41 265 -11 q 106 190 132 93 q 81 439 81 288 q 147 776 81 665 q 383 888 214 888 q 620 776 553 888 q 688 439 688 665 q 664 201 688 296 q 583 54 640 107 l 674 -71 l 625 -108 l 533 19 m 383 65 q 488 85 453 65 l 404 200 l 453 238 l 535 122 q 586 242 571 165 q 601 438 601 319 q 581 653 601 572 q 514 772 561 733 q 383 811 467 811 q 253 772 300 811 q 187 653 207 733 q 167 438 167 572 q 186 223 167 303 q 253 104 206 143 q 383 65 300 65 z "},"R":{"ha":714,"x_min":101,"x_max":661,"o":"m 590 -17 q 474 186 536 71 q 374 389 411 301 q 263 385 324 385 l 188 385 l 188 0 l 101 0 l 101 871 l 272 871 q 473 853 400 871 q 584 782 546 835 q 622 625 622 729 q 581 474 622 526 q 454 401 540 421 l 661 29 l 590 -17 m 247 449 q 424 461 364 449 q 509 510 483 474 q 535 624 535 547 q 506 742 535 704 q 424 792 478 781 q 268 803 369 803 l 188 803 l 188 449 l 247 449 z "},"Ŕ":{"ha":714,"x_min":101,"x_max":661,"o":"m 590 -17 q 474 186 536 71 q 374 389 411 301 q 263 385 324 385 l 188 385 l 188 0 l 101 0 l 101 871 l 272 871 q 473 853 400 871 q 584 782 546 835 q 622 625 622 729 q 581 474 622 526 q 454 401 540 421 l 661 29 l 590 -17 m 247 449 q 424 461 364 449 q 509 510 483 474 q 535 624 535 547 q 506 742 535 704 q 424 792 478 781 q 268 803 369 803 l 188 803 l 188 449 l 247 449 m 219 985 l 440 1164 l 496 1094 l 413 1039 q 246 943 360 1004 l 219 985 z "},"Ř":{"ha":714,"x_min":101,"x_max":661,"o":"m 590 -17 q 474 186 536 71 q 374 389 411 301 q 263 385 324 385 l 188 385 l 188 0 l 101 0 l 101 871 l 272 871 q 473 853 400 871 q 584 782 546 835 q 622 625 622 729 q 581 474 622 526 q 454 401 540 421 l 661 29 l 590 -17 m 247 449 q 424 461 364 449 q 509 510 483 474 q 535 624 535 547 q 506 742 535 704 q 424 792 478 781 q 268 803 369 803 l 188 803 l 188 449 l 247 449 m 357 944 q 322 964 344 944 q 168 1107 238 1036 l 224 1151 l 357 1021 l 492 1151 l 547 1107 q 392 964 485 1043 q 357 944 369 944 z "},"Ŗ":{"ha":714,"x_min":101,"x_max":661,"o":"m 590 -17 q 474 186 536 71 q 374 389 411 301 q 263 385 324 385 l 188 385 l 188 0 l 101 0 l 101 871 l 272 871 q 473 853 400 871 q 584 782 546 835 q 622 625 622 729 q 581 474 622 526 q 454 401 540 421 l 661 29 l 590 -17 m 247 449 q 424 461 364 449 q 509 510 483 474 q 535 624 535 547 q 506 742 535 704 q 424 792 478 781 q 268 803 369 803 l 188 803 l 188 449 l 247 449 m 413 -85 l 413 -162 q 343 -312 413 -247 l 306 -282 q 347 -189 343 -237 l 301 -189 l 301 -85 l 413 -85 z "},"Ȑ":{"ha":714,"x_min":82,"x_max":661,"o":"m 590 -17 q 474 186 536 71 q 374 389 411 301 q 263 385 324 385 l 188 385 l 188 0 l 101 0 l 101 871 l 272 871 q 473 853 400 871 q 584 782 546 835 q 622 625 622 729 q 581 474 622 526 q 454 401 540 421 l 661 29 l 590 -17 m 247 449 q 424 461 364 449 q 509 510 483 474 q 535 624 535 547 q 506 742 535 704 q 424 792 478 781 q 268 803 369 803 l 188 803 l 188 449 l 247 449 m 283 944 q 149 1074 171 1046 l 82 1154 l 154 1208 l 319 978 l 283 944 m 489 944 q 354 1074 386 1035 l 286 1154 l 358 1208 l 525 978 l 489 944 z "},"Ȓ":{"ha":714,"x_min":101,"x_max":661,"o":"m 590 -17 q 474 186 536 71 q 374 389 411 301 q 263 385 324 385 l 188 385 l 188 0 l 101 0 l 101 871 l 272 871 q 473 853 400 871 q 584 782 546 835 q 622 625 622 729 q 581 474 622 526 q 454 401 540 421 l 661 29 l 590 -17 m 247 449 q 424 461 364 449 q 509 510 483 474 q 535 624 535 547 q 506 742 535 704 q 424 792 478 781 q 268 803 369 803 l 188 803 l 188 449 l 247 449 m 172 1019 q 259 1097 217 1074 q 357 1121 301 1121 q 455 1097 413 1121 q 542 1019 497 1074 l 489 972 q 427 1028 457 1011 q 357 1046 397 1046 q 287 1028 317 1046 q 225 972 257 1011 l 172 1019 z "},"S":{"ha":642,"x_min":71,"x_max":592,"o":"m 319 -7 q 71 46 167 -7 l 90 117 q 197 79 146 93 q 319 65 247 65 q 456 108 407 65 q 506 240 506 151 q 488 322 506 292 q 436 369 469 351 q 339 408 403 388 l 256 436 q 117 519 164 468 q 71 657 71 569 q 144 828 71 774 q 338 882 218 882 q 571 840 471 882 l 556 771 q 458 799 507 789 q 349 810 408 810 q 158 660 158 810 q 183 573 158 603 q 283 517 208 543 l 360 489 q 487 438 446 458 q 560 369 528 417 q 592 239 592 322 q 518 57 592 121 q 319 -7 444 -7 z "},"Ś":{"ha":642,"x_min":71,"x_max":592,"o":"m 319 -7 q 71 46 167 -7 l 90 117 q 197 79 146 93 q 319 65 247 65 q 456 108 407 65 q 506 240 506 151 q 488 322 506 292 q 436 369 469 351 q 339 408 403 388 l 256 436 q 117 519 164 468 q 71 657 71 569 q 144 828 71 774 q 338 882 218 882 q 571 840 471 882 l 556 771 q 458 799 507 789 q 349 810 408 810 q 158 660 158 810 q 183 573 158 603 q 283 517 208 543 l 360 489 q 487 438 446 458 q 560 369 528 417 q 592 239 592 322 q 518 57 592 121 q 319 -7 444 -7 m 199 985 l 419 1164 l 475 1094 l 392 1039 q 225 943 339 1004 l 199 985 z "},"Š":{"ha":642,"x_min":71,"x_max":592,"o":"m 319 -7 q 71 46 167 -7 l 90 117 q 197 79 146 93 q 319 65 247 65 q 456 108 407 65 q 506 240 506 151 q 488 322 506 292 q 436 369 469 351 q 339 408 403 388 l 256 436 q 117 519 164 468 q 71 657 71 569 q 144 828 71 774 q 338 882 218 882 q 571 840 471 882 l 556 771 q 458 799 507 789 q 349 810 408 810 q 158 660 158 810 q 183 573 158 603 q 283 517 208 543 l 360 489 q 487 438 446 458 q 560 369 528 417 q 592 239 592 322 q 518 57 592 121 q 319 -7 444 -7 m 336 944 q 301 964 324 944 q 147 1107 217 1036 l 203 1151 l 336 1021 l 471 1151 l 526 1107 q 371 964 464 1043 q 336 944 349 944 z "},"Ş":{"ha":642,"x_min":71,"x_max":592,"o":"m 592 239 q 524 62 592 125 q 338 -7 456 -1 l 332 -46 q 425 -71 392 -46 q 458 -142 458 -96 q 423 -234 458 -203 q 333 -265 388 -265 q 243 -244 289 -265 l 254 -190 q 319 -207 288 -207 q 365 -192 349 -207 q 382 -146 382 -176 q 366 -104 382 -118 q 331 -87 350 -90 q 267 -79 313 -83 l 268 -6 q 71 46 149 4 l 90 117 q 197 79 146 93 q 319 65 247 65 q 456 108 407 65 q 506 240 506 151 q 488 322 506 292 q 436 369 469 351 q 339 408 403 388 l 256 436 q 117 519 164 468 q 71 657 71 569 q 144 828 71 774 q 338 882 218 882 q 571 840 471 882 l 556 771 q 458 799 507 789 q 349 810 408 810 q 158 660 158 810 q 183 573 158 603 q 283 517 208 543 l 360 489 q 487 438 446 458 q 560 369 528 417 q 592 239 592 322 z "},"Ŝ":{"ha":642,"x_min":71,"x_max":592,"o":"m 319 -7 q 71 46 167 -7 l 90 117 q 197 79 146 93 q 319 65 247 65 q 456 108 407 65 q 506 240 506 151 q 488 322 506 292 q 436 369 469 351 q 339 408 403 388 l 256 436 q 117 519 164 468 q 71 657 71 569 q 144 828 71 774 q 338 882 218 882 q 571 840 471 882 l 556 771 q 458 799 507 789 q 349 810 408 810 q 158 660 158 810 q 183 573 158 603 q 283 517 208 543 l 360 489 q 487 438 446 458 q 560 369 528 417 q 592 239 592 322 q 518 57 592 121 q 319 -7 444 -7 m 133 1004 l 157 1024 q 301 1133 235 1088 l 372 1133 q 506 1032 421 1100 q 539 1004 514 1024 l 481 950 l 336 1074 l 192 950 l 133 1004 z "},"Ș":{"ha":642,"x_min":71,"x_max":592,"o":"m 319 -7 q 71 46 167 -7 l 90 117 q 197 79 146 93 q 319 65 247 65 q 456 108 407 65 q 506 240 506 151 q 488 322 506 292 q 436 369 469 351 q 339 408 403 388 l 256 436 q 117 519 164 468 q 71 657 71 569 q 144 828 71 774 q 338 882 218 882 q 571 840 471 882 l 556 771 q 458 799 507 789 q 349 810 408 810 q 158 660 158 810 q 183 573 158 603 q 283 517 208 543 l 360 489 q 487 438 446 458 q 560 369 528 417 q 592 239 592 322 q 518 57 592 121 q 319 -7 444 -7 m 376 -85 l 376 -162 q 307 -312 376 -247 l 269 -282 q 311 -189 307 -237 l 265 -189 l 265 -85 l 376 -85 z "},"Ṡ":{"ha":642,"x_min":71,"x_max":592,"o":"m 319 -7 q 71 46 167 -7 l 90 117 q 197 79 146 93 q 319 65 247 65 q 456 108 407 65 q 506 240 506 151 q 488 322 506 292 q 436 369 469 351 q 339 408 403 388 l 256 436 q 117 519 164 468 q 71 657 71 569 q 144 828 71 774 q 338 882 218 882 q 571 840 471 882 l 556 771 q 458 799 507 789 q 349 810 408 810 q 158 660 158 810 q 183 573 158 603 q 283 517 208 543 l 360 489 q 487 438 446 458 q 560 369 528 417 q 592 239 592 322 q 518 57 592 121 q 319 -7 444 -7 m 290 971 l 290 1075 l 383 1075 l 383 971 l 290 971 z "},"ẞ":{"ha":750,"x_min":101,"x_max":710,"o":"m 411 497 q 629 419 549 488 q 710 235 710 350 q 640 60 710 126 q 461 -7 569 -7 q 268 44 363 -7 l 294 106 q 453 64 381 64 q 577 109 532 64 q 622 235 622 154 q 555 376 622 328 q 364 424 488 424 l 310 424 l 310 499 l 572 765 q 396 810 492 810 q 236 747 285 810 q 188 550 188 685 l 188 0 l 101 0 l 101 557 q 175 801 101 721 q 399 882 249 882 q 531 860 465 882 q 649 801 596 839 l 649 732 l 411 497 z "},"Ə":{"ha":768,"x_min":79,"x_max":689,"o":"m 346 888 q 603 774 518 888 q 689 429 689 660 q 613 101 689 210 q 383 -7 538 -7 q 156 82 232 -7 q 79 344 79 171 q 86 464 79 401 l 603 464 q 351 813 590 813 q 235 797 289 813 q 126 743 181 781 l 92 811 q 216 868 149 849 q 346 888 283 888 m 383 65 q 546 147 493 65 q 603 396 599 228 l 163 396 q 183 203 163 275 q 252 99 204 132 q 383 65 300 65 z "},"T":{"ha":604,"x_min":24,"x_max":581,"o":"m 257 0 l 257 803 l 24 803 l 24 871 l 581 871 l 581 803 l 344 803 l 344 0 l 257 0 z "},"Ŧ":{"ha":604,"x_min":24,"x_max":581,"o":"m 257 0 l 257 413 l 113 413 l 113 483 l 257 483 l 257 803 l 24 803 l 24 871 l 581 871 l 581 803 l 344 803 l 344 483 l 486 483 l 486 413 l 344 413 l 344 0 l 257 0 z "},"Ť":{"ha":604,"x_min":24,"x_max":581,"o":"m 257 0 l 257 803 l 24 803 l 24 871 l 581 871 l 581 803 l 344 803 l 344 0 l 257 0 m 303 944 q 268 964 290 944 q 114 1107 183 1036 l 169 1151 l 303 1021 l 438 1151 l 493 1107 q 338 964 431 1043 q 303 944 315 944 z "},"Ţ":{"ha":604,"x_min":24,"x_max":581,"o":"m 257 0 l 257 803 l 24 803 l 24 871 l 581 871 l 581 803 l 344 803 l 344 0 l 257 0 m 329 -265 q 239 -244 285 -265 l 250 -190 q 315 -207 283 -207 q 361 -192 344 -207 q 378 -146 378 -176 q 362 -104 378 -118 q 327 -87 346 -90 q 263 -79 308 -83 l 264 0 l 335 0 l 328 -46 q 421 -71 388 -46 q 454 -142 454 -96 q 419 -234 454 -203 q 329 -265 383 -265 z "},"Ț":{"ha":604,"x_min":24,"x_max":581,"o":"m 257 0 l 257 803 l 24 803 l 24 871 l 581 871 l 581 803 l 344 803 l 344 0 l 257 0 m 356 -85 l 356 -162 q 286 -312 356 -247 l 249 -282 q 290 -189 286 -237 l 244 -189 l 244 -85 l 356 -85 z "},"Ṫ":{"ha":604,"x_min":24,"x_max":581,"o":"m 257 0 l 257 803 l 24 803 l 24 871 l 581 871 l 581 803 l 344 803 l 344 0 l 257 0 m 257 971 l 257 1075 l 350 1075 l 350 971 l 257 971 z "},"U":{"ha":732,"x_min":85,"x_max":649,"o":"m 367 -11 q 180 39 240 -11 q 102 178 119 89 q 85 431 85 268 l 85 871 l 171 871 l 171 367 q 182 194 171 256 q 235 99 193 133 q 367 65 278 65 q 497 99 456 65 q 550 194 539 133 q 561 367 561 256 l 561 871 l 649 871 l 649 431 q 631 179 649 269 q 553 39 614 89 q 367 -11 492 -11 z "},"Ú":{"ha":732,"x_min":85,"x_max":649,"o":"m 367 -11 q 180 39 240 -11 q 102 178 119 89 q 85 431 85 268 l 85 871 l 171 871 l 171 367 q 182 194 171 256 q 235 99 193 133 q 367 65 278 65 q 497 99 456 65 q 550 194 539 133 q 561 367 561 256 l 561 871 l 649 871 l 649 431 q 631 179 649 269 q 553 39 614 89 q 367 -11 492 -11 m 229 985 l 450 1164 l 506 1094 l 422 1039 q 256 943 369 1004 l 229 985 z "},"Ŭ":{"ha":732,"x_min":85,"x_max":649,"o":"m 367 -11 q 180 39 240 -11 q 102 178 119 89 q 85 431 85 268 l 85 871 l 171 871 l 171 367 q 182 194 171 256 q 235 99 193 133 q 367 65 278 65 q 497 99 456 65 q 550 194 539 133 q 561 367 561 256 l 561 871 l 649 871 l 649 431 q 631 179 649 269 q 553 39 614 89 q 367 -11 492 -11 m 367 949 q 269 972 311 949 q 183 1050 226 996 l 235 1097 q 298 1042 268 1060 q 367 1024 328 1024 q 437 1042 407 1024 q 500 1097 467 1060 l 551 1050 q 466 972 508 996 q 367 949 424 949 z "},"Û":{"ha":732,"x_min":85,"x_max":649,"o":"m 367 -11 q 180 39 240 -11 q 102 178 119 89 q 85 431 85 268 l 85 871 l 171 871 l 171 367 q 182 194 171 256 q 235 99 193 133 q 367 65 278 65 q 497 99 456 65 q 550 194 539 133 q 561 367 561 256 l 561 871 l 649 871 l 649 431 q 631 179 649 269 q 553 39 614 89 q 367 -11 492 -11 m 164 1004 l 188 1024 q 332 1133 265 1088 l 403 1133 q 536 1032 451 1100 q 569 1004 544 1024 l 511 950 l 367 1074 l 222 950 l 164 1004 z "},"Ȕ":{"ha":732,"x_min":85,"x_max":649,"o":"m 367 -11 q 180 39 240 -11 q 102 178 119 89 q 85 431 85 268 l 85 871 l 171 871 l 171 367 q 182 194 171 256 q 235 99 193 133 q 367 65 278 65 q 497 99 456 65 q 550 194 539 133 q 561 367 561 256 l 561 871 l 649 871 l 649 431 q 631 179 649 269 q 553 39 614 89 q 367 -11 492 -11 m 293 944 q 158 1074 181 1046 l 92 1154 l 164 1208 l 329 978 l 293 944 m 499 944 q 364 1074 396 1035 l 296 1154 l 368 1208 l 535 978 l 499 944 z "},"Ü":{"ha":732,"x_min":85,"x_max":649,"o":"m 367 -11 q 180 39 240 -11 q 102 178 119 89 q 85 431 85 268 l 85 871 l 171 871 l 171 367 q 182 194 171 256 q 235 99 193 133 q 367 65 278 65 q 497 99 456 65 q 550 194 539 133 q 561 367 561 256 l 561 871 l 649 871 l 649 431 q 631 179 649 269 q 553 39 614 89 q 367 -11 492 -11 m 214 965 l 214 1051 l 308 1051 l 308 965 l 214 965 m 426 965 l 426 1051 l 519 1051 l 519 965 l 426 965 z "},"Ụ":{"ha":732,"x_min":85,"x_max":649,"o":"m 367 -11 q 180 39 240 -11 q 102 178 119 89 q 85 431 85 268 l 85 871 l 171 871 l 171 367 q 182 194 171 256 q 235 99 193 133 q 367 65 278 65 q 497 99 456 65 q 550 194 539 133 q 561 367 561 256 l 561 871 l 649 871 l 649 431 q 631 179 649 269 q 553 39 614 89 q 367 -11 492 -11 m 321 -190 l 321 -86 l 414 -86 l 414 -190 l 321 -190 z "},"Ù":{"ha":732,"x_min":85,"x_max":649,"o":"m 367 -11 q 180 39 240 -11 q 102 178 119 89 q 85 431 85 268 l 85 871 l 171 871 l 171 367 q 182 194 171 256 q 235 99 193 133 q 367 65 278 65 q 497 99 456 65 q 550 194 539 133 q 561 367 561 256 l 561 871 l 649 871 l 649 431 q 631 179 649 269 q 553 39 614 89 q 367 -11 492 -11 m 482 939 q 392 983 440 957 q 318 1029 344 1010 l 232 1090 l 288 1160 l 508 981 l 482 939 z "},"Ủ":{"ha":732,"x_min":85,"x_max":649,"o":"m 367 -11 q 180 39 240 -11 q 102 178 119 89 q 85 431 85 268 l 85 871 l 171 871 l 171 367 q 182 194 171 256 q 235 99 193 133 q 367 65 278 65 q 497 99 456 65 q 550 194 539 133 q 561 367 561 256 l 561 871 l 649 871 l 649 431 q 631 179 649 269 q 553 39 614 89 q 367 -11 492 -11 m 331 1026 q 413 1045 382 1031 q 443 1097 443 1060 q 427 1133 443 1121 q 383 1146 411 1146 q 317 1132 354 1146 l 307 1186 q 400 1207 356 1207 q 489 1179 457 1207 q 521 1103 521 1151 q 394 993 521 1006 l 401 949 l 331 949 l 331 1026 z "},"Ư":{"ha":776,"x_min":85,"x_max":810,"o":"m 799 942 q 810 875 810 915 q 769 783 810 817 q 656 724 728 749 l 649 721 l 649 431 q 631 179 649 269 q 553 39 614 89 q 367 -11 492 -11 q 180 39 240 -11 q 102 178 119 89 q 85 431 85 268 l 85 871 l 171 871 l 171 367 q 182 194 171 256 q 235 99 193 133 q 367 65 278 65 q 497 99 456 65 q 550 194 539 133 q 561 367 561 256 l 561 871 l 649 871 l 649 779 q 724 881 724 813 q 708 942 724 914 l 799 942 z "},"Ứ":{"ha":776,"x_min":85,"x_max":810,"o":"m 799 942 q 810 875 810 915 q 769 783 810 817 q 656 724 728 749 l 649 721 l 649 431 q 631 179 649 269 q 553 39 614 89 q 367 -11 492 -11 q 180 39 240 -11 q 102 178 119 89 q 85 431 85 268 l 85 871 l 171 871 l 171 367 q 182 194 171 256 q 235 99 193 133 q 367 65 278 65 q 497 99 456 65 q 550 194 539 133 q 561 367 561 256 l 561 871 l 649 871 l 649 779 q 724 881 724 813 q 708 942 724 914 l 799 942 m 229 985 l 450 1164 l 506 1094 l 422 1039 q 256 943 369 1004 l 229 985 z "},"Ự":{"ha":776,"x_min":85,"x_max":810,"o":"m 799 942 q 810 875 810 915 q 769 783 810 817 q 656 724 728 749 l 649 721 l 649 431 q 631 179 649 269 q 553 39 614 89 q 367 -11 492 -11 q 180 39 240 -11 q 102 178 119 89 q 85 431 85 268 l 85 871 l 171 871 l 171 367 q 182 194 171 256 q 235 99 193 133 q 367 65 278 65 q 497 99 456 65 q 550 194 539 133 q 561 367 561 256 l 561 871 l 649 871 l 649 779 q 724 881 724 813 q 708 942 724 914 l 799 942 m 321 -190 l 321 -86 l 414 -86 l 414 -190 l 321 -190 z "},"Ừ":{"ha":776,"x_min":85,"x_max":810,"o":"m 799 942 q 810 875 810 915 q 769 783 810 817 q 656 724 728 749 l 649 721 l 649 431 q 631 179 649 269 q 553 39 614 89 q 367 -11 492 -11 q 180 39 240 -11 q 102 178 119 89 q 85 431 85 268 l 85 871 l 171 871 l 171 367 q 182 194 171 256 q 235 99 193 133 q 367 65 278 65 q 497 99 456 65 q 550 194 539 133 q 561 367 561 256 l 561 871 l 649 871 l 649 779 q 724 881 724 813 q 708 942 724 914 l 799 942 m 482 939 q 392 983 440 957 q 318 1029 344 1010 l 232 1090 l 288 1160 l 508 981 l 482 939 z "},"Ử":{"ha":776,"x_min":85,"x_max":810,"o":"m 799 942 q 810 875 810 915 q 769 783 810 817 q 656 724 728 749 l 649 721 l 649 431 q 631 179 649 269 q 553 39 614 89 q 367 -11 492 -11 q 180 39 240 -11 q 102 178 119 89 q 85 431 85 268 l 85 871 l 171 871 l 171 367 q 182 194 171 256 q 235 99 193 133 q 367 65 278 65 q 497 99 456 65 q 550 194 539 133 q 561 367 561 256 l 561 871 l 649 871 l 649 779 q 724 881 724 813 q 708 942 724 914 l 799 942 m 331 1026 q 413 1045 382 1031 q 443 1097 443 1060 q 427 1133 443 1121 q 383 1146 411 1146 q 317 1132 354 1146 l 307 1186 q 400 1207 356 1207 q 489 1179 457 1207 q 521 1103 521 1151 q 394 993 521 1006 l 401 949 l 331 949 l 331 1026 z "},"Ữ":{"ha":776,"x_min":85,"x_max":810,"o":"m 799 942 q 810 875 810 915 q 769 783 810 817 q 656 724 728 749 l 649 721 l 649 431 q 631 179 649 269 q 553 39 614 89 q 367 -11 492 -11 q 180 39 240 -11 q 102 178 119 89 q 85 431 85 268 l 85 871 l 171 871 l 171 367 q 182 194 171 256 q 235 99 193 133 q 367 65 278 65 q 497 99 456 65 q 550 194 539 133 q 561 367 561 256 l 561 871 l 649 871 l 649 779 q 724 881 724 813 q 708 942 724 914 l 799 942 m 461 956 q 415 964 438 956 q 364 989 393 972 q 318 1010 335 1003 q 285 1017 301 1017 q 247 1003 264 1017 q 206 957 229 990 l 151 988 q 214 1072 186 1049 q 278 1096 242 1096 q 324 1087 301 1096 q 375 1063 347 1078 q 419 1042 401 1049 q 454 1035 436 1035 q 490 1048 474 1035 q 529 1094 506 1061 l 583 1065 q 527 981 556 1006 q 461 956 499 956 z "},"Ű":{"ha":732,"x_min":85,"x_max":668,"o":"m 367 -11 q 180 39 240 -11 q 102 178 119 89 q 85 431 85 268 l 85 871 l 171 871 l 171 367 q 182 194 171 256 q 235 99 193 133 q 367 65 278 65 q 497 99 456 65 q 550 194 539 133 q 561 367 561 256 l 561 871 l 649 871 l 649 431 q 631 179 649 269 q 553 39 614 89 q 367 -11 492 -11 m 229 964 l 394 1196 l 467 1140 l 401 1067 q 332 994 382 1043 q 265 931 282 946 l 229 964 m 429 964 l 596 1196 l 668 1140 l 601 1067 q 532 994 582 1042 q 465 931 482 946 l 429 964 z "},"Ȗ":{"ha":732,"x_min":85,"x_max":649,"o":"m 367 -11 q 180 39 240 -11 q 102 178 119 89 q 85 431 85 268 l 85 871 l 171 871 l 171 367 q 182 194 171 256 q 235 99 193 133 q 367 65 278 65 q 497 99 456 65 q 550 194 539 133 q 561 367 561 256 l 561 871 l 649 871 l 649 431 q 631 179 649 269 q 553 39 614 89 q 367 -11 492 -11 m 182 1019 q 269 1097 226 1074 q 367 1121 311 1121 q 465 1097 422 1121 q 551 1019 507 1074 l 499 972 q 437 1028 467 1011 q 367 1046 407 1046 q 297 1028 326 1046 q 235 972 267 1011 l 182 1019 z "},"Ū":{"ha":732,"x_min":85,"x_max":649,"o":"m 367 -11 q 180 39 240 -11 q 102 178 119 89 q 85 431 85 268 l 85 871 l 171 871 l 171 367 q 182 194 171 256 q 235 99 193 133 q 367 65 278 65 q 497 99 456 65 q 550 194 539 133 q 561 367 561 256 l 561 871 l 649 871 l 649 431 q 631 179 649 269 q 553 39 614 89 q 367 -11 492 -11 m 204 978 l 204 1050 l 531 1050 l 531 978 l 204 978 z "},"Ų":{"ha":732,"x_min":85,"x_max":649,"o":"m 649 871 l 649 431 q 640 231 649 308 q 602 99 631 154 q 517 17 574 44 q 451 -37 479 -6 q 422 -101 422 -68 q 437 -139 422 -126 q 476 -151 451 -151 q 510 -147 493 -151 q 538 -137 528 -143 l 547 -192 q 463 -210 510 -210 q 383 -186 414 -210 q 353 -117 353 -162 q 371 -62 353 -90 q 421 -8 389 -33 q 367 -11 388 -11 q 180 39 240 -11 q 102 178 119 89 q 85 431 85 268 l 85 871 l 171 871 l 171 367 q 182 194 171 256 q 235 99 193 133 q 367 65 278 65 q 497 99 456 65 q 550 194 539 133 q 561 367 561 256 l 561 871 l 649 871 z "},"Ů":{"ha":732,"x_min":85,"x_max":649,"o":"m 367 -11 q 180 39 240 -11 q 102 178 119 89 q 85 431 85 268 l 85 871 l 171 871 l 171 367 q 182 194 171 256 q 235 99 193 133 q 367 65 278 65 q 497 99 456 65 q 550 194 539 133 q 561 367 561 256 l 561 871 l 649 871 l 649 431 q 631 179 649 269 q 553 39 614 89 q 367 -11 492 -11 m 367 881 q 252 918 296 881 q 208 1017 208 956 q 253 1117 208 1081 q 367 1154 297 1154 q 481 1116 436 1154 q 525 1017 525 1078 q 481 918 525 956 q 367 881 436 881 m 367 938 q 435 960 410 938 q 460 1017 460 982 q 435 1076 460 1054 q 367 1097 411 1097 q 299 1075 324 1097 q 275 1017 275 1053 q 299 959 275 981 q 367 938 324 938 z "},"Ũ":{"ha":732,"x_min":85,"x_max":649,"o":"m 367 -11 q 180 39 240 -11 q 102 178 119 89 q 85 431 85 268 l 85 871 l 171 871 l 171 367 q 182 194 171 256 q 235 99 193 133 q 367 65 278 65 q 497 99 456 65 q 550 194 539 133 q 561 367 561 256 l 561 871 l 649 871 l 649 431 q 631 179 649 269 q 553 39 614 89 q 367 -11 492 -11 m 461 956 q 415 964 438 956 q 364 989 393 972 q 318 1010 335 1003 q 285 1017 301 1017 q 247 1003 264 1017 q 206 957 229 990 l 151 988 q 214 1072 186 1049 q 278 1096 242 1096 q 324 1087 301 1096 q 375 1063 347 1078 q 419 1042 401 1049 q 454 1035 436 1035 q 490 1048 474 1035 q 529 1094 506 1061 l 583 1065 q 527 981 556 1006 q 461 956 499 956 z "},"V":{"ha":683,"x_min":38,"x_max":646,"o":"m 38 871 l 128 871 q 256 403 176 683 q 342 90 319 175 q 415 357 367 185 q 554 871 510 699 l 646 871 l 396 0 l 289 0 l 38 871 z "},"W":{"ha":907,"x_min":107,"x_max":817,"o":"m 194 0 l 107 871 l 186 871 l 264 125 l 422 574 l 500 574 l 665 124 l 738 871 l 817 871 l 736 0 l 639 0 l 463 476 l 289 0 l 194 0 z "},"Ẃ":{"ha":907,"x_min":107,"x_max":817,"o":"m 194 0 l 107 871 l 186 871 l 264 125 l 422 574 l 500 574 l 665 124 l 738 871 l 817 871 l 736 0 l 639 0 l 463 476 l 289 0 l 194 0 m 317 985 l 538 1164 l 593 1094 l 510 1039 q 343 943 457 1004 l 317 985 z "},"Ŵ":{"ha":907,"x_min":107,"x_max":817,"o":"m 194 0 l 107 871 l 186 871 l 264 125 l 422 574 l 500 574 l 665 124 l 738 871 l 817 871 l 736 0 l 639 0 l 463 476 l 289 0 l 194 0 m 251 1004 l 275 1024 q 419 1133 353 1088 l 490 1133 q 624 1032 539 1100 q 657 1004 632 1024 l 599 950 l 454 1074 l 310 950 l 251 1004 z "},"Ẅ":{"ha":907,"x_min":107,"x_max":817,"o":"m 194 0 l 107 871 l 186 871 l 264 125 l 422 574 l 500 574 l 665 124 l 738 871 l 817 871 l 736 0 l 639 0 l 463 476 l 289 0 l 194 0 m 301 965 l 301 1051 l 396 1051 l 396 965 l 301 965 m 514 965 l 514 1051 l 607 1051 l 607 965 l 514 965 z "},"Ẁ":{"ha":907,"x_min":107,"x_max":817,"o":"m 194 0 l 107 871 l 186 871 l 264 125 l 422 574 l 500 574 l 665 124 l 738 871 l 817 871 l 736 0 l 639 0 l 463 476 l 289 0 l 194 0 m 569 939 q 480 983 528 957 q 406 1029 432 1010 l 319 1090 l 375 1160 l 596 981 l 569 939 z "},"X":{"ha":610,"x_min":29,"x_max":579,"o":"m 29 0 l 246 446 l 47 871 l 136 871 l 307 506 l 476 871 l 556 871 l 363 446 l 579 0 l 493 0 l 307 386 l 124 0 l 29 0 z "},"Y":{"ha":628,"x_min":10,"x_max":618,"o":"m 271 0 l 271 397 l 10 871 l 107 871 l 314 478 l 519 871 l 618 871 l 357 399 l 357 0 l 271 0 z "},"Ý":{"ha":628,"x_min":10,"x_max":618,"o":"m 271 0 l 271 397 l 10 871 l 107 871 l 314 478 l 519 871 l 618 871 l 357 399 l 357 0 l 271 0 m 175 985 l 396 1164 l 451 1094 l 368 1039 q 201 943 315 1004 l 175 985 z "},"Ŷ":{"ha":628,"x_min":10,"x_max":618,"o":"m 271 0 l 271 397 l 10 871 l 107 871 l 314 478 l 519 871 l 618 871 l 357 399 l 357 0 l 271 0 m 110 1004 l 133 1024 q 278 1133 211 1088 l 349 1133 q 482 1032 397 1100 q 515 1004 490 1024 l 457 950 l 313 1074 l 168 950 l 110 1004 z "},"Ÿ":{"ha":628,"x_min":10,"x_max":618,"o":"m 271 0 l 271 397 l 10 871 l 107 871 l 314 478 l 519 871 l 618 871 l 357 399 l 357 0 l 271 0 m 160 965 l 160 1051 l 254 1051 l 254 965 l 160 965 m 372 965 l 372 1051 l 465 1051 l 465 965 l 372 965 z "},"Ỵ":{"ha":628,"x_min":10,"x_max":618,"o":"m 271 0 l 271 397 l 10 871 l 107 871 l 314 478 l 519 871 l 618 871 l 357 399 l 357 0 l 271 0 m 268 -190 l 268 -86 l 361 -86 l 361 -190 l 268 -190 z "},"Ỳ":{"ha":628,"x_min":10,"x_max":618,"o":"m 271 0 l 271 397 l 10 871 l 107 871 l 314 478 l 519 871 l 618 871 l 357 399 l 357 0 l 271 0 m 428 939 q 338 983 386 957 q 264 1029 290 1010 l 178 1090 l 233 1160 l 454 981 l 428 939 z "},"Ỷ":{"ha":628,"x_min":10,"x_max":618,"o":"m 271 0 l 271 397 l 10 871 l 107 871 l 314 478 l 519 871 l 618 871 l 357 399 l 357 0 l 271 0 m 276 1026 q 358 1045 328 1031 q 389 1097 389 1060 q 373 1133 389 1121 q 329 1146 357 1146 q 263 1132 300 1146 l 253 1186 q 346 1207 301 1207 q 435 1179 403 1207 q 467 1103 467 1151 q 340 993 467 1006 l 347 949 l 276 949 l 276 1026 z "},"Ȳ":{"ha":628,"x_min":10,"x_max":618,"o":"m 271 0 l 271 397 l 10 871 l 107 871 l 314 478 l 519 871 l 618 871 l 357 399 l 357 0 l 271 0 m 150 978 l 150 1050 l 476 1050 l 476 978 l 150 978 z "},"Ỹ":{"ha":628,"x_min":10,"x_max":618,"o":"m 271 0 l 271 397 l 10 871 l 107 871 l 314 478 l 519 871 l 618 871 l 357 399 l 357 0 l 271 0 m 407 956 q 361 964 383 956 q 310 989 339 972 q 264 1010 281 1003 q 231 1017 247 1017 q 192 1003 210 1017 q 151 957 175 990 l 97 988 q 160 1072 132 1049 q 224 1096 188 1096 q 270 1087 247 1096 q 321 1063 293 1078 q 365 1042 347 1049 q 400 1035 382 1035 q 435 1048 419 1035 q 475 1094 451 1061 l 529 1065 q 473 981 501 1006 q 407 956 444 956 z "},"Z":{"ha":629,"x_min":71,"x_max":571,"o":"m 85 0 l 71 67 l 457 803 l 92 803 l 92 871 l 546 871 l 556 797 l 171 68 l 571 68 l 571 0 l 85 0 z "},"Ź":{"ha":629,"x_min":71,"x_max":571,"o":"m 85 0 l 71 67 l 457 803 l 92 803 l 92 871 l 546 871 l 556 797 l 171 68 l 571 68 l 571 0 l 85 0 m 178 985 l 399 1164 l 454 1094 l 371 1039 q 204 943 318 1004 l 178 985 z "},"Ž":{"ha":629,"x_min":71,"x_max":571,"o":"m 85 0 l 71 67 l 457 803 l 92 803 l 92 871 l 546 871 l 556 797 l 171 68 l 571 68 l 571 0 l 85 0 m 315 944 q 281 964 303 944 q 126 1107 196 1036 l 182 1151 l 315 1021 l 450 1151 l 506 1107 q 350 964 443 1043 q 315 944 328 944 z "},"Ż":{"ha":629,"x_min":71,"x_max":571,"o":"m 85 0 l 71 67 l 457 803 l 92 803 l 92 871 l 546 871 l 556 797 l 171 68 l 571 68 l 571 0 l 85 0 m 269 971 l 269 1075 l 363 1075 l 363 971 l 269 971 z "},"a":{"ha":646,"x_min":74,"x_max":550,"o":"m 289 -7 q 133 42 192 -7 q 74 182 74 90 q 151 328 74 271 q 406 385 229 385 l 464 385 l 464 406 q 426 562 464 517 q 318 607 388 607 q 243 599 281 607 q 129 572 206 592 l 113 639 q 321 678 229 678 q 488 616 426 678 q 550 418 550 554 l 550 0 l 488 0 l 474 44 q 394 9 449 25 q 289 -7 340 -7 m 301 63 q 390 76 344 63 q 464 107 436 89 l 464 321 l 426 321 q 233 294 311 321 q 156 189 156 268 q 193 94 156 126 q 301 63 231 63 z "},"á":{"ha":646,"x_min":74,"x_max":550,"o":"m 289 -7 q 133 42 192 -7 q 74 182 74 90 q 151 328 74 271 q 406 385 229 385 l 464 385 l 464 406 q 426 562 464 517 q 318 607 388 607 q 243 599 281 607 q 129 572 206 592 l 113 639 q 321 678 229 678 q 488 616 426 678 q 550 418 550 554 l 550 0 l 488 0 l 474 44 q 394 9 449 25 q 289 -7 340 -7 m 301 63 q 390 76 344 63 q 464 107 436 89 l 464 321 l 426 321 q 233 294 311 321 q 156 189 156 268 q 193 94 156 126 q 301 63 231 63 m 222 778 l 389 1010 l 461 954 l 394 881 q 325 808 375 856 q 258 744 275 760 l 222 778 z "},"ă":{"ha":646,"x_min":74,"x_max":550,"o":"m 289 -7 q 133 42 192 -7 q 74 182 74 90 q 151 328 74 271 q 406 385 229 385 l 464 385 l 464 406 q 426 562 464 517 q 318 607 388 607 q 243 599 281 607 q 129 572 206 592 l 113 639 q 321 678 229 678 q 488 616 426 678 q 550 418 550 554 l 550 0 l 488 0 l 474 44 q 394 9 449 25 q 289 -7 340 -7 m 301 63 q 390 76 344 63 q 464 107 436 89 l 464 321 l 426 321 q 233 294 311 321 q 156 189 156 268 q 193 94 156 126 q 301 63 231 63 m 321 767 q 223 790 265 767 q 138 868 181 814 l 189 915 q 252 860 222 878 q 321 842 282 842 q 391 860 361 842 q 454 915 421 878 l 506 868 q 420 790 463 814 q 321 767 378 767 z "},"ắ":{"ha":646,"x_min":74,"x_max":550,"o":"m 289 -7 q 133 42 192 -7 q 74 182 74 90 q 151 328 74 271 q 406 385 229 385 l 464 385 l 464 406 q 426 562 464 517 q 318 607 388 607 q 243 599 281 607 q 129 572 206 592 l 113 639 q 321 678 229 678 q 488 616 426 678 q 550 418 550 554 l 550 0 l 488 0 l 474 44 q 394 9 449 25 q 289 -7 340 -7 m 301 63 q 390 76 344 63 q 464 107 436 89 l 464 321 l 426 321 q 233 294 311 321 q 156 189 156 268 q 193 94 156 126 q 301 63 231 63 m 164 986 l 433 1079 l 461 993 l 364 971 q 175 938 274 950 l 164 986 m 321 768 q 222 789 264 768 q 136 858 181 810 l 189 906 q 249 858 218 874 q 321 843 279 843 q 393 858 363 843 q 453 906 424 874 l 506 858 q 419 789 461 810 q 321 768 378 768 z "},"ặ":{"ha":646,"x_min":74,"x_max":550,"o":"m 289 -7 q 133 42 192 -7 q 74 182 74 90 q 151 328 74 271 q 406 385 229 385 l 464 385 l 464 406 q 426 562 464 517 q 318 607 388 607 q 243 599 281 607 q 129 572 206 592 l 113 639 q 321 678 229 678 q 488 616 426 678 q 550 418 550 554 l 550 0 l 488 0 l 474 44 q 394 9 449 25 q 289 -7 340 -7 m 301 63 q 390 76 344 63 q 464 107 436 89 l 464 321 l 426 321 q 233 294 311 321 q 156 189 156 268 q 193 94 156 126 q 301 63 231 63 m 278 -190 l 278 -86 l 371 -86 l 371 -190 l 278 -190 m 321 767 q 223 790 265 767 q 138 868 181 814 l 189 915 q 252 860 222 878 q 321 842 282 842 q 391 860 361 842 q 454 915 421 878 l 506 868 q 420 790 463 814 q 321 767 378 767 z "},"ằ":{"ha":646,"x_min":74,"x_max":550,"o":"m 289 -7 q 133 42 192 -7 q 74 182 74 90 q 151 328 74 271 q 406 385 229 385 l 464 385 l 464 406 q 426 562 464 517 q 318 607 388 607 q 243 599 281 607 q 129 572 206 592 l 113 639 q 321 678 229 678 q 488 616 426 678 q 550 418 550 554 l 550 0 l 488 0 l 474 44 q 394 9 449 25 q 289 -7 340 -7 m 301 63 q 390 76 344 63 q 464 107 436 89 l 464 321 l 426 321 q 233 294 311 321 q 156 189 156 268 q 193 94 156 126 q 301 63 231 63 m 450 938 q 261 971 351 950 l 164 993 l 192 1079 l 461 986 l 450 938 m 321 768 q 222 789 264 768 q 136 858 181 810 l 189 906 q 249 858 218 874 q 321 843 279 843 q 393 858 363 843 q 453 906 424 874 l 506 858 q 419 789 461 810 q 321 768 378 768 z "},"ẳ":{"ha":646,"x_min":74,"x_max":550,"o":"m 289 -7 q 133 42 192 -7 q 74 182 74 90 q 151 328 74 271 q 406 385 229 385 l 464 385 l 464 406 q 426 562 464 517 q 318 607 388 607 q 243 599 281 607 q 129 572 206 592 l 113 639 q 321 678 229 678 q 488 616 426 678 q 550 418 550 554 l 550 0 l 488 0 l 474 44 q 394 9 449 25 q 289 -7 340 -7 m 301 63 q 390 76 344 63 q 464 107 436 89 l 464 321 l 426 321 q 233 294 311 321 q 156 189 156 268 q 193 94 156 126 q 301 63 231 63 m 285 971 q 367 990 336 975 q 397 1042 397 1004 q 381 1078 397 1065 q 338 1090 365 1090 q 271 1076 308 1090 l 261 1131 q 354 1151 310 1151 q 443 1124 411 1151 q 475 1047 475 1096 q 349 938 475 950 l 356 893 l 285 893 l 285 971 m 321 768 q 222 789 264 768 q 136 858 181 810 l 189 906 q 249 858 218 874 q 321 843 279 843 q 393 858 363 843 q 453 906 424 874 l 506 858 q 419 789 461 810 q 321 768 378 768 z "},"ẵ":{"ha":646,"x_min":74,"x_max":550,"o":"m 289 -7 q 133 42 192 -7 q 74 182 74 90 q 151 328 74 271 q 406 385 229 385 l 464 385 l 464 406 q 426 562 464 517 q 318 607 388 607 q 243 599 281 607 q 129 572 206 592 l 113 639 q 321 678 229 678 q 488 616 426 678 q 550 418 550 554 l 550 0 l 488 0 l 474 44 q 394 9 449 25 q 289 -7 340 -7 m 301 63 q 390 76 344 63 q 464 107 436 89 l 464 321 l 426 321 q 233 294 311 321 q 156 189 156 268 q 193 94 156 126 q 301 63 231 63 m 415 931 q 369 939 392 931 q 318 964 347 947 q 272 985 289 978 q 239 992 256 992 q 201 978 218 992 q 160 932 183 965 l 106 963 q 168 1047 140 1024 q 232 1071 196 1071 q 278 1062 256 1071 q 329 1038 301 1053 q 408 1008 379 1008 q 444 1022 428 1008 q 483 1069 460 1035 l 538 1039 q 481 956 510 981 q 415 931 453 931 m 321 768 q 222 789 264 768 q 136 858 181 810 l 189 906 q 249 858 218 874 q 321 843 279 843 q 393 858 363 843 q 453 906 424 874 l 506 858 q 419 789 461 810 q 321 768 378 768 z "},"â":{"ha":646,"x_min":74,"x_max":550,"o":"m 289 -7 q 133 42 192 -7 q 74 182 74 90 q 151 328 74 271 q 406 385 229 385 l 464 385 l 464 406 q 426 562 464 517 q 318 607 388 607 q 243 599 281 607 q 129 572 206 592 l 113 639 q 321 678 229 678 q 488 616 426 678 q 550 418 550 554 l 550 0 l 488 0 l 474 44 q 394 9 449 25 q 289 -7 340 -7 m 301 63 q 390 76 344 63 q 464 107 436 89 l 464 321 l 426 321 q 233 294 311 321 q 156 189 156 268 q 193 94 156 126 q 301 63 231 63 m 118 815 q 149 850 119 817 q 286 993 233 943 l 357 993 q 485 860 390 960 l 524 815 l 465 761 l 321 922 l 176 761 l 118 815 z "},"ấ":{"ha":646,"x_min":74,"x_max":635,"o":"m 289 -7 q 133 42 192 -7 q 74 182 74 90 q 151 328 74 271 q 406 385 229 385 l 464 385 l 464 406 q 426 562 464 517 q 318 607 388 607 q 243 599 281 607 q 129 572 206 592 l 113 639 q 321 678 229 678 q 488 616 426 678 q 550 418 550 554 l 550 0 l 488 0 l 474 44 q 394 9 449 25 q 289 -7 340 -7 m 301 63 q 390 76 344 63 q 464 107 436 89 l 464 321 l 426 321 q 233 294 311 321 q 156 189 156 268 q 193 94 156 126 q 301 63 231 63 m 446 914 l 525 1060 l 635 1060 l 564 965 q 518 914 540 935 l 446 914 m 118 796 q 286 939 218 886 l 357 939 q 524 796 432 881 l 465 742 l 321 881 l 176 742 l 118 796 z "},"ậ":{"ha":646,"x_min":74,"x_max":550,"o":"m 289 -7 q 133 42 192 -7 q 74 182 74 90 q 151 328 74 271 q 406 385 229 385 l 464 385 l 464 406 q 426 562 464 517 q 318 607 388 607 q 243 599 281 607 q 129 572 206 592 l 113 639 q 321 678 229 678 q 488 616 426 678 q 550 418 550 554 l 550 0 l 488 0 l 474 44 q 394 9 449 25 q 289 -7 340 -7 m 301 63 q 390 76 344 63 q 464 107 436 89 l 464 321 l 426 321 q 233 294 311 321 q 156 189 156 268 q 193 94 156 126 q 301 63 231 63 m 278 -190 l 278 -86 l 371 -86 l 371 -190 l 278 -190 m 118 815 q 149 850 119 817 q 286 993 233 943 l 357 993 q 485 860 390 960 l 524 815 l 465 761 l 321 922 l 176 761 l 118 815 z "},"ầ":{"ha":646,"x_min":74,"x_max":553,"o":"m 289 -7 q 133 42 192 -7 q 74 182 74 90 q 151 328 74 271 q 406 385 229 385 l 464 385 l 464 406 q 426 562 464 517 q 318 607 388 607 q 243 599 281 607 q 129 572 206 592 l 113 639 q 321 678 229 678 q 488 616 426 678 q 550 418 550 554 l 550 0 l 488 0 l 474 44 q 394 9 449 25 q 289 -7 340 -7 m 301 63 q 390 76 344 63 q 464 107 436 89 l 464 321 l 426 321 q 233 294 311 321 q 156 189 156 268 q 193 94 156 126 q 301 63 231 63 m 482 914 q 436 965 460 935 l 365 1060 l 474 1060 l 553 914 l 482 914 m 118 796 q 286 939 218 886 l 357 939 q 524 796 432 881 l 465 742 l 321 881 l 176 742 l 118 796 z "},"ẩ":{"ha":646,"x_min":74,"x_max":626,"o":"m 289 -7 q 133 42 192 -7 q 74 182 74 90 q 151 328 74 271 q 406 385 229 385 l 464 385 l 464 406 q 426 562 464 517 q 318 607 388 607 q 243 599 281 607 q 129 572 206 592 l 113 639 q 321 678 229 678 q 488 616 426 678 q 550 418 550 554 l 550 0 l 488 0 l 474 44 q 394 9 449 25 q 289 -7 340 -7 m 301 63 q 390 76 344 63 q 464 107 436 89 l 464 321 l 426 321 q 233 294 311 321 q 156 189 156 268 q 193 94 156 126 q 301 63 231 63 m 443 963 q 520 981 492 967 q 549 1031 549 994 q 533 1067 549 1054 q 490 1081 518 1081 q 429 1068 461 1081 l 419 1122 q 514 1142 465 1142 q 597 1114 567 1142 q 626 1038 626 1086 q 594 960 626 985 q 507 929 563 935 l 511 897 l 443 897 l 443 963 m 118 796 q 286 939 218 886 l 357 939 q 524 796 432 881 l 465 742 l 321 881 l 176 742 l 118 796 z "},"ẫ":{"ha":646,"x_min":74,"x_max":550,"o":"m 289 -7 q 133 42 192 -7 q 74 182 74 90 q 151 328 74 271 q 406 385 229 385 l 464 385 l 464 406 q 426 562 464 517 q 318 607 388 607 q 243 599 281 607 q 129 572 206 592 l 113 639 q 321 678 229 678 q 488 616 426 678 q 550 418 550 554 l 550 0 l 488 0 l 474 44 q 394 9 449 25 q 289 -7 340 -7 m 301 63 q 390 76 344 63 q 464 107 436 89 l 464 321 l 426 321 q 233 294 311 321 q 156 189 156 268 q 193 94 156 126 q 301 63 231 63 m 415 971 q 369 979 392 971 q 318 1004 347 988 q 272 1025 289 1018 q 239 1032 256 1032 q 201 1019 218 1032 q 160 972 183 1006 l 106 1003 q 168 1088 140 1064 q 232 1111 196 1111 q 278 1102 256 1111 q 329 1078 301 1093 q 408 1049 379 1049 q 443 1062 428 1049 q 483 1110 458 1075 l 538 1079 q 481 996 510 1021 q 415 971 453 971 m 118 796 q 286 939 218 886 l 357 939 q 524 796 432 881 l 465 742 l 321 881 l 176 742 l 118 796 z "},"ȁ":{"ha":646,"x_min":46,"x_max":550,"o":"m 289 -7 q 133 42 192 -7 q 74 182 74 90 q 151 328 74 271 q 406 385 229 385 l 464 385 l 464 406 q 426 562 464 517 q 318 607 388 607 q 243 599 281 607 q 129 572 206 592 l 113 639 q 321 678 229 678 q 488 616 426 678 q 550 418 550 554 l 550 0 l 488 0 l 474 44 q 394 9 449 25 q 289 -7 340 -7 m 301 63 q 390 76 344 63 q 464 107 436 89 l 464 321 l 426 321 q 233 294 311 321 q 156 189 156 268 q 193 94 156 126 q 301 63 231 63 m 247 742 q 113 871 135 843 l 46 951 l 118 1006 l 283 775 l 247 742 m 453 742 q 318 871 350 832 l 250 951 l 322 1006 l 489 775 l 453 742 z "},"ä":{"ha":646,"x_min":74,"x_max":550,"o":"m 289 -7 q 133 42 192 -7 q 74 182 74 90 q 151 328 74 271 q 406 385 229 385 l 464 385 l 464 406 q 426 562 464 517 q 318 607 388 607 q 243 599 281 607 q 129 572 206 592 l 113 639 q 321 678 229 678 q 488 616 426 678 q 550 418 550 554 l 550 0 l 488 0 l 474 44 q 394 9 449 25 q 289 -7 340 -7 m 301 63 q 390 76 344 63 q 464 107 436 89 l 464 321 l 426 321 q 233 294 311 321 q 156 189 156 268 q 193 94 156 126 q 301 63 231 63 m 168 776 l 168 863 l 263 863 l 263 776 l 168 776 m 381 776 l 381 863 l 474 863 l 474 776 l 381 776 z "},"ạ":{"ha":646,"x_min":74,"x_max":550,"o":"m 289 -7 q 133 42 192 -7 q 74 182 74 90 q 151 328 74 271 q 406 385 229 385 l 464 385 l 464 406 q 426 562 464 517 q 318 607 388 607 q 243 599 281 607 q 129 572 206 592 l 113 639 q 321 678 229 678 q 488 616 426 678 q 550 418 550 554 l 550 0 l 488 0 l 474 44 q 394 9 449 25 q 289 -7 340 -7 m 301 63 q 390 76 344 63 q 464 107 436 89 l 464 321 l 426 321 q 233 294 311 321 q 156 189 156 268 q 193 94 156 126 q 301 63 231 63 m 278 -190 l 278 -86 l 371 -86 l 371 -190 l 278 -190 z "},"à":{"ha":646,"x_min":74,"x_max":550,"o":"m 289 -7 q 133 42 192 -7 q 74 182 74 90 q 151 328 74 271 q 406 385 229 385 l 464 385 l 464 406 q 426 562 464 517 q 318 607 388 607 q 243 599 281 607 q 129 572 206 592 l 113 639 q 321 678 229 678 q 488 616 426 678 q 550 418 550 554 l 550 0 l 488 0 l 474 44 q 394 9 449 25 q 289 -7 340 -7 m 301 63 q 390 76 344 63 q 464 107 436 89 l 464 321 l 426 321 q 233 294 311 321 q 156 189 156 268 q 193 94 156 126 q 301 63 231 63 m 404 744 q 338 804 388 758 q 269 874 289 850 l 201 954 l 274 1010 l 440 778 l 404 744 z "},"ả":{"ha":646,"x_min":74,"x_max":550,"o":"m 289 -7 q 133 42 192 -7 q 74 182 74 90 q 151 328 74 271 q 406 385 229 385 l 464 385 l 464 406 q 426 562 464 517 q 318 607 388 607 q 243 599 281 607 q 129 572 206 592 l 113 639 q 321 678 229 678 q 488 616 426 678 q 550 418 550 554 l 550 0 l 488 0 l 474 44 q 394 9 449 25 q 289 -7 340 -7 m 301 63 q 390 76 344 63 q 464 107 436 89 l 464 321 l 426 321 q 233 294 311 321 q 156 189 156 268 q 193 94 156 126 q 301 63 231 63 m 285 817 q 367 835 336 821 q 397 888 397 850 q 381 924 397 911 q 338 936 365 936 q 271 922 308 936 l 261 976 q 354 997 310 997 q 443 969 411 997 q 475 893 475 942 q 349 783 475 796 l 356 739 l 285 739 l 285 817 z "},"ȃ":{"ha":646,"x_min":74,"x_max":550,"o":"m 289 -7 q 133 42 192 -7 q 74 182 74 90 q 151 328 74 271 q 406 385 229 385 l 464 385 l 464 406 q 426 562 464 517 q 318 607 388 607 q 243 599 281 607 q 129 572 206 592 l 113 639 q 321 678 229 678 q 488 616 426 678 q 550 418 550 554 l 550 0 l 488 0 l 474 44 q 394 9 449 25 q 289 -7 340 -7 m 301 63 q 390 76 344 63 q 464 107 436 89 l 464 321 l 426 321 q 233 294 311 321 q 156 189 156 268 q 193 94 156 126 q 301 63 231 63 m 136 817 q 223 894 181 871 q 321 918 265 918 q 419 894 376 918 q 506 817 461 871 l 453 769 q 391 826 421 808 q 321 843 361 843 q 251 826 281 843 q 189 769 221 808 l 136 817 z "},"ā":{"ha":646,"x_min":74,"x_max":550,"o":"m 289 -7 q 133 42 192 -7 q 74 182 74 90 q 151 328 74 271 q 406 385 229 385 l 464 385 l 464 406 q 426 562 464 517 q 318 607 388 607 q 243 599 281 607 q 129 572 206 592 l 113 639 q 321 678 229 678 q 488 616 426 678 q 550 418 550 554 l 550 0 l 488 0 l 474 44 q 394 9 449 25 q 289 -7 340 -7 m 301 63 q 390 76 344 63 q 464 107 436 89 l 464 321 l 426 321 q 233 294 311 321 q 156 189 156 268 q 193 94 156 126 q 301 63 231 63 m 158 774 l 158 846 l 485 846 l 485 774 l 158 774 z "},"ą":{"ha":646,"x_min":74,"x_max":574,"o":"m 574 -212 q 489 -231 536 -231 q 410 -207 440 -231 q 379 -137 379 -183 q 409 -66 379 -103 q 492 0 439 -29 l 488 0 l 474 44 q 394 9 449 25 q 289 -7 340 -7 q 133 42 192 -7 q 74 182 74 90 q 151 328 74 271 q 406 385 229 385 l 464 385 l 464 406 q 426 562 464 517 q 318 607 388 607 q 243 599 281 607 q 129 572 206 592 l 113 639 q 321 678 229 678 q 488 616 426 678 q 550 418 550 554 l 550 0 q 480 -56 511 -24 q 449 -122 449 -87 q 463 -160 449 -147 q 503 -172 478 -172 q 537 -168 519 -172 q 564 -158 554 -164 l 574 -212 m 464 321 l 426 321 q 233 294 311 321 q 156 189 156 268 q 193 94 156 126 q 301 63 231 63 q 390 76 344 63 q 464 107 436 89 l 464 321 z "},"å":{"ha":646,"x_min":74,"x_max":550,"o":"m 289 -7 q 133 42 192 -7 q 74 182 74 90 q 151 328 74 271 q 406 385 229 385 l 464 385 l 464 406 q 426 562 464 517 q 318 607 388 607 q 243 599 281 607 q 129 572 206 592 l 113 639 q 321 678 229 678 q 488 616 426 678 q 550 418 550 554 l 550 0 l 488 0 l 474 44 q 394 9 449 25 q 289 -7 340 -7 m 301 63 q 390 76 344 63 q 464 107 436 89 l 464 321 l 426 321 q 233 294 311 321 q 156 189 156 268 q 193 94 156 126 q 301 63 231 63 m 322 725 q 208 767 251 725 q 164 875 164 808 q 208 985 164 944 q 322 1026 251 1026 q 435 985 392 1026 q 479 875 479 943 q 435 766 479 807 q 322 725 390 725 m 322 782 q 389 808 364 782 q 414 875 414 833 q 390 944 414 919 q 322 969 365 969 q 254 944 279 969 q 229 875 229 918 q 254 807 229 832 q 322 782 279 782 z "},"ǻ":{"ha":646,"x_min":74,"x_max":550,"o":"m 289 -7 q 133 42 192 -7 q 74 182 74 90 q 151 328 74 271 q 406 385 229 385 l 464 385 l 464 406 q 426 562 464 517 q 318 607 388 607 q 243 599 281 607 q 129 572 206 592 l 113 639 q 321 678 229 678 q 488 616 426 678 q 550 418 550 554 l 550 0 l 488 0 l 474 44 q 394 9 449 25 q 289 -7 340 -7 m 301 63 q 390 76 344 63 q 464 107 436 89 l 464 321 l 426 321 q 233 294 311 321 q 156 189 156 268 q 193 94 156 126 q 301 63 231 63 m 321 724 q 206 761 250 724 q 163 860 163 799 q 207 960 163 924 q 321 997 251 997 q 435 959 390 997 q 479 860 479 921 q 435 761 479 799 q 321 724 390 724 m 321 781 q 389 803 364 781 q 414 860 414 825 q 390 919 414 897 q 321 940 365 940 q 253 918 278 940 q 229 860 229 896 q 253 802 229 824 q 321 781 278 781 m 183 1054 l 404 1233 l 460 1164 l 376 1108 q 210 1013 324 1074 l 183 1054 z "},"ã":{"ha":646,"x_min":74,"x_max":550,"o":"m 289 -7 q 133 42 192 -7 q 74 182 74 90 q 151 328 74 271 q 406 385 229 385 l 464 385 l 464 406 q 426 562 464 517 q 318 607 388 607 q 243 599 281 607 q 129 572 206 592 l 113 639 q 321 678 229 678 q 488 616 426 678 q 550 418 550 554 l 550 0 l 488 0 l 474 44 q 394 9 449 25 q 289 -7 340 -7 m 301 63 q 390 76 344 63 q 464 107 436 89 l 464 321 l 426 321 q 233 294 311 321 q 156 189 156 268 q 193 94 156 126 q 301 63 231 63 m 106 819 l 107 819 q 160 907 136 882 q 218 932 185 932 q 267 922 239 932 q 344 892 296 913 q 378 878 351 889 q 421 868 406 868 q 450 881 438 868 q 483 926 463 893 l 538 896 q 485 815 511 839 q 422 790 458 790 q 300 826 383 790 q 257 845 276 838 q 225 853 238 853 q 193 838 207 853 q 160 788 179 824 l 106 819 z "},"æ":{"ha":1044,"x_min":74,"x_max":976,"o":"m 974 347 l 971 318 l 550 318 q 609 120 557 175 q 747 65 661 65 q 846 78 800 65 q 938 119 892 90 l 964 51 q 860 8 917 22 q 753 -7 804 -7 q 528 92 599 -7 q 423 20 483 47 q 289 -7 363 -7 q 133 42 192 -7 q 74 182 74 90 q 151 325 74 269 q 406 381 229 381 l 464 381 l 464 406 q 426 562 464 517 q 318 607 388 607 q 243 599 281 607 q 129 572 206 592 l 113 639 q 321 678 229 678 q 521 568 467 678 q 735 678 590 678 q 912 605 847 678 q 976 410 976 532 l 974 347 m 896 413 q 853 554 896 501 q 736 607 810 607 q 603 547 650 607 q 551 381 557 488 l 896 381 l 896 413 m 497 144 q 464 318 465 218 l 426 318 q 234 292 313 318 q 156 189 156 267 q 193 94 156 126 q 301 63 231 63 q 410 86 357 63 q 497 144 463 110 z "},"ǽ":{"ha":1044,"x_min":74,"x_max":976,"o":"m 974 347 l 971 318 l 550 318 q 609 120 557 175 q 747 65 661 65 q 846 78 800 65 q 938 119 892 90 l 964 51 q 860 8 917 22 q 753 -7 804 -7 q 528 92 599 -7 q 423 20 483 47 q 289 -7 363 -7 q 133 42 192 -7 q 74 182 74 90 q 151 325 74 269 q 406 381 229 381 l 464 381 l 464 406 q 426 562 464 517 q 318 607 388 607 q 243 599 281 607 q 129 572 206 592 l 113 639 q 321 678 229 678 q 521 568 467 678 q 735 678 590 678 q 912 605 847 678 q 976 410 976 532 l 974 347 m 896 413 q 853 554 896 501 q 736 607 810 607 q 603 547 650 607 q 551 381 557 488 l 896 381 l 896 413 m 497 144 q 464 318 465 218 l 426 318 q 234 292 313 318 q 156 189 156 267 q 193 94 156 126 q 301 63 231 63 q 410 86 357 63 q 497 144 463 110 m 424 778 l 590 1010 l 663 954 l 596 881 q 526 808 576 856 q 460 744 476 760 l 424 778 z "},"b":{"ha":667,"x_min":94,"x_max":594,"o":"m 346 -7 q 258 3 304 -7 q 172 33 211 13 l 165 0 l 94 0 l 94 921 l 182 921 l 182 626 q 275 667 231 656 q 367 678 319 678 q 533 594 472 678 q 594 335 594 510 q 533 73 594 153 q 346 -7 471 -7 m 333 65 q 466 127 425 65 q 507 333 507 189 q 471 541 507 475 q 356 607 435 607 q 182 549 282 607 l 182 93 q 249 70 219 75 q 314 65 278 65 l 333 65 z "},"ḃ":{"ha":667,"x_min":93,"x_max":594,"o":"m 346 -7 q 258 3 304 -7 q 172 33 211 13 l 165 0 l 94 0 l 94 921 l 182 921 l 182 626 q 275 667 231 656 q 367 678 319 678 q 533 594 472 678 q 594 335 594 510 q 533 73 594 153 q 346 -7 471 -7 m 333 65 q 466 127 425 65 q 507 333 507 189 q 471 541 507 475 q 356 607 435 607 q 182 549 282 607 l 182 93 q 249 70 219 75 q 314 65 278 65 l 333 65 m 93 1021 l 93 1125 l 186 1125 l 186 1021 l 93 1021 z "},"c":{"ha":586,"x_min":74,"x_max":542,"o":"m 344 -7 q 206 32 267 -7 q 109 148 144 71 q 74 336 74 225 q 336 678 74 678 q 515 638 431 678 l 515 463 l 446 456 l 446 592 q 335 608 404 608 q 199 538 239 608 q 160 335 160 467 q 212 135 160 206 q 353 64 264 64 q 508 115 433 64 l 542 54 q 448 7 496 21 q 344 -7 400 -7 z "},"ć":{"ha":586,"x_min":74,"x_max":542,"o":"m 344 -7 q 206 32 267 -7 q 109 148 144 71 q 74 336 74 225 q 336 678 74 678 q 515 638 431 678 l 515 463 l 446 456 l 446 592 q 335 608 404 608 q 199 538 239 608 q 160 335 160 467 q 212 135 160 206 q 353 64 264 64 q 508 115 433 64 l 542 54 q 448 7 496 21 q 344 -7 400 -7 m 238 778 l 404 1010 l 476 954 l 410 881 q 340 808 390 856 q 274 744 290 760 l 238 778 z "},"č":{"ha":586,"x_min":74,"x_max":542,"o":"m 344 -7 q 206 32 267 -7 q 109 148 144 71 q 74 336 74 225 q 336 678 74 678 q 515 638 431 678 l 515 463 l 446 456 l 446 592 q 335 608 404 608 q 199 538 239 608 q 160 335 160 467 q 212 135 160 206 q 353 64 264 64 q 508 115 433 64 l 542 54 q 448 7 496 21 q 344 -7 400 -7 m 336 749 q 301 768 318 749 q 147 958 203 883 l 207 1000 l 336 825 l 467 1000 l 526 958 q 371 768 465 875 q 336 749 356 749 z "},"ç":{"ha":586,"x_min":74,"x_max":542,"o":"m 365 -46 q 458 -71 425 -46 q 492 -142 492 -96 q 456 -234 492 -203 q 367 -265 421 -265 q 276 -244 322 -265 l 288 -190 q 353 -207 321 -207 q 399 -192 382 -207 q 415 -146 415 -176 q 399 -104 415 -118 q 365 -87 383 -90 q 300 -79 346 -83 l 301 -4 q 136 99 199 13 q 74 336 74 186 q 336 678 74 678 q 515 638 431 678 l 515 463 l 446 456 l 446 592 q 335 608 404 608 q 199 538 239 608 q 160 335 160 467 q 212 135 160 206 q 353 64 264 64 q 508 115 433 64 l 542 54 q 371 -6 468 -1 l 365 -46 z "},"ĉ":{"ha":586,"x_min":74,"x_max":542,"o":"m 344 -7 q 206 32 267 -7 q 109 148 144 71 q 74 336 74 225 q 336 678 74 678 q 515 638 431 678 l 515 463 l 446 456 l 446 592 q 335 608 404 608 q 199 538 239 608 q 160 335 160 467 q 212 135 160 206 q 353 64 264 64 q 508 115 433 64 l 542 54 q 448 7 496 21 q 344 -7 400 -7 m 133 815 q 164 850 135 817 q 301 993 249 943 l 372 993 q 500 860 406 960 l 539 815 l 481 761 l 336 922 l 192 761 l 133 815 z "},"ċ":{"ha":586,"x_min":74,"x_max":542,"o":"m 344 -7 q 206 32 267 -7 q 109 148 144 71 q 74 336 74 225 q 336 678 74 678 q 515 638 431 678 l 515 463 l 446 456 l 446 592 q 335 608 404 608 q 199 538 239 608 q 160 335 160 467 q 212 135 160 206 q 353 64 264 64 q 508 115 433 64 l 542 54 q 448 7 496 21 q 344 -7 400 -7 m 290 782 l 290 886 l 383 886 l 383 782 l 290 782 z "},"d":{"ha":685,"x_min":74,"x_max":590,"o":"m 349 -7 q 147 75 219 -7 q 74 335 74 157 q 108 528 74 451 q 199 642 142 606 q 328 678 257 678 q 414 667 374 678 q 503 626 454 656 l 503 921 l 590 921 l 590 0 l 519 0 l 513 33 q 349 -7 436 -7 m 379 65 q 439 70 413 65 q 503 93 465 75 l 503 549 q 411 594 449 581 q 339 607 374 607 q 208 538 256 607 q 160 333 160 469 q 361 65 160 65 l 379 65 z "},"ð":{"ha":676,"x_min":60,"x_max":596,"o":"m 329 -7 q 133 63 207 -7 q 60 267 60 132 q 96 420 60 357 q 192 515 132 483 q 322 546 251 546 q 434 522 383 546 q 517 456 485 497 q 479 627 513 535 q 399 753 446 719 l 260 656 l 224 701 l 347 788 q 151 844 267 835 l 167 917 q 415 833 329 888 l 557 933 l 593 888 l 464 797 q 561 628 526 740 q 596 369 596 517 q 531 88 596 182 q 329 -7 465 -7 m 332 65 q 467 123 424 65 q 510 306 510 181 q 449 435 510 396 q 318 475 388 475 q 194 422 242 475 q 146 268 146 368 q 194 112 146 158 q 332 65 242 65 z "},"ď":{"ha":793,"x_min":74,"x_max":765,"o":"m 349 -7 q 147 75 219 -7 q 74 335 74 157 q 108 528 74 451 q 199 642 142 606 q 328 678 257 678 q 414 667 374 678 q 503 626 454 656 l 503 921 l 590 921 l 590 0 l 519 0 l 513 33 q 349 -7 436 -7 m 379 65 q 439 70 413 65 q 503 93 465 75 l 503 549 q 411 594 449 581 q 339 607 374 607 q 208 538 256 607 q 160 333 160 469 q 361 65 160 65 l 379 65 m 765 921 l 765 842 q 697 692 765 760 l 658 724 q 701 815 697 768 l 656 815 l 656 921 l 765 921 z "},"đ":{"ha":685,"x_min":74,"x_max":685,"o":"m 349 -7 q 147 75 219 -7 q 74 335 74 157 q 108 528 74 451 q 199 642 142 606 q 328 678 257 678 q 414 667 374 678 q 503 626 454 656 l 503 751 l 360 751 l 360 810 l 503 810 l 503 921 l 590 921 l 590 810 l 685 810 l 685 751 l 590 751 l 590 0 l 519 0 l 513 33 q 349 -7 436 -7 m 379 65 q 439 70 413 65 q 503 93 465 75 l 503 549 q 411 594 449 581 q 339 607 374 607 q 208 538 256 607 q 160 333 160 469 q 361 65 160 65 l 379 65 z "},"ḋ":{"ha":685,"x_min":74,"x_max":594,"o":"m 349 -7 q 147 75 219 -7 q 74 335 74 157 q 108 528 74 451 q 199 642 142 606 q 328 678 257 678 q 414 667 374 678 q 503 626 454 656 l 503 921 l 590 921 l 590 0 l 519 0 l 513 33 q 349 -7 436 -7 m 379 65 q 439 70 413 65 q 503 93 465 75 l 503 549 q 411 594 449 581 q 339 607 374 607 q 208 538 256 607 q 160 333 160 469 q 361 65 160 65 l 379 65 m 501 1021 l 501 1125 l 594 1125 l 594 1021 l 501 1021 z "},"ǳ":{"ha":1158,"x_min":74,"x_max":1108,"o":"m 349 -7 q 147 75 219 -7 q 74 335 74 157 q 108 528 74 451 q 199 642 142 606 q 328 678 257 678 q 414 667 374 678 q 503 626 454 656 l 503 921 l 590 921 l 590 0 l 519 0 l 513 33 q 349 -7 436 -7 m 379 65 q 439 70 413 65 q 503 93 465 75 l 503 549 q 411 594 449 581 q 339 607 374 607 q 208 538 256 607 q 160 333 160 469 q 361 65 160 65 l 379 65 m 707 0 l 697 65 l 1004 607 l 704 607 l 704 668 l 1092 668 l 1099 610 l 793 61 l 1108 61 l 1108 0 l 707 0 z "},"ǆ":{"ha":1158,"x_min":74,"x_max":1108,"o":"m 349 -7 q 147 75 219 -7 q 74 335 74 157 q 108 528 74 451 q 199 642 142 606 q 328 678 257 678 q 414 667 374 678 q 503 626 454 656 l 503 921 l 590 921 l 590 0 l 519 0 l 513 33 q 349 -7 436 -7 m 379 65 q 439 70 413 65 q 503 93 465 75 l 503 549 q 411 594 449 581 q 339 607 374 607 q 208 538 256 607 q 160 333 160 469 q 361 65 160 65 l 379 65 m 707 0 l 697 65 l 1004 607 l 704 607 l 704 668 l 1092 668 l 1099 610 l 793 61 l 1108 61 l 1108 0 l 707 0 m 911 749 q 876 768 893 749 q 722 958 778 883 l 782 1000 l 911 825 l 1042 1000 l 1101 958 q 946 768 1040 875 q 911 749 931 749 z "},"e":{"ha":654,"x_min":74,"x_max":585,"o":"m 361 -7 q 74 336 74 -7 q 147 592 74 507 q 344 678 221 678 q 520 605 456 678 q 585 410 585 532 l 582 347 l 579 318 l 160 318 q 215 120 161 175 q 356 65 269 65 q 454 78 408 65 q 546 119 500 90 l 572 51 q 469 8 525 22 q 361 -7 413 -7 m 504 379 l 504 413 q 461 554 504 501 q 344 607 418 607 q 214 547 260 607 q 160 379 168 488 l 504 379 z "},"é":{"ha":654,"x_min":74,"x_max":585,"o":"m 361 -7 q 74 336 74 -7 q 147 592 74 507 q 344 678 221 678 q 520 605 456 678 q 585 410 585 532 l 582 347 l 579 318 l 160 318 q 215 120 161 175 q 356 65 269 65 q 454 78 408 65 q 546 119 500 90 l 572 51 q 469 8 525 22 q 361 -7 413 -7 m 504 379 l 504 413 q 461 554 504 501 q 344 607 418 607 q 214 547 260 607 q 160 379 168 488 l 504 379 m 246 778 l 413 1010 l 485 954 l 418 881 q 349 808 399 856 q 282 744 299 760 l 246 778 z "},"ĕ":{"ha":654,"x_min":74,"x_max":585,"o":"m 361 -7 q 74 336 74 -7 q 147 592 74 507 q 344 678 221 678 q 520 605 456 678 q 585 410 585 532 l 582 347 l 579 318 l 160 318 q 215 120 161 175 q 356 65 269 65 q 454 78 408 65 q 546 119 500 90 l 572 51 q 469 8 525 22 q 361 -7 413 -7 m 504 379 l 504 413 q 461 554 504 501 q 344 607 418 607 q 214 547 260 607 q 160 379 168 488 l 504 379 m 344 767 q 247 790 289 767 q 161 868 204 814 l 213 915 q 276 860 246 878 q 344 842 306 842 q 415 860 385 842 q 478 915 444 878 l 529 868 q 444 790 486 814 q 344 767 401 767 z "},"ě":{"ha":654,"x_min":74,"x_max":585,"o":"m 361 -7 q 74 336 74 -7 q 147 592 74 507 q 344 678 221 678 q 520 605 456 678 q 585 410 585 532 l 582 347 l 579 318 l 160 318 q 215 120 161 175 q 356 65 269 65 q 454 78 408 65 q 546 119 500 90 l 572 51 q 469 8 525 22 q 361 -7 413 -7 m 504 379 l 504 413 q 461 554 504 501 q 344 607 418 607 q 214 547 260 607 q 160 379 168 488 l 504 379 m 344 749 q 310 768 326 749 q 156 958 211 883 l 215 1000 l 344 825 l 475 1000 l 535 958 q 379 768 474 875 q 344 749 364 749 z "},"ê":{"ha":654,"x_min":74,"x_max":585,"o":"m 361 -7 q 74 336 74 -7 q 147 592 74 507 q 344 678 221 678 q 520 605 456 678 q 585 410 585 532 l 582 347 l 579 318 l 160 318 q 215 120 161 175 q 356 65 269 65 q 454 78 408 65 q 546 119 500 90 l 572 51 q 469 8 525 22 q 361 -7 413 -7 m 504 379 l 504 413 q 461 554 504 501 q 344 607 418 607 q 214 547 260 607 q 160 379 168 488 l 504 379 m 142 815 q 172 850 143 817 q 310 993 257 943 l 381 993 q 508 860 414 960 l 547 815 l 489 761 l 344 922 l 200 761 l 142 815 z "},"ế":{"ha":654,"x_min":74,"x_max":658,"o":"m 361 -7 q 74 336 74 -7 q 147 592 74 507 q 344 678 221 678 q 520 605 456 678 q 585 410 585 532 l 582 347 l 579 318 l 160 318 q 215 120 161 175 q 356 65 269 65 q 454 78 408 65 q 546 119 500 90 l 572 51 q 469 8 525 22 q 361 -7 413 -7 m 504 379 l 504 413 q 461 554 504 501 q 344 607 418 607 q 214 547 260 607 q 160 379 168 488 l 504 379 m 469 914 l 549 1060 l 658 1060 l 588 965 q 542 914 564 935 l 469 914 m 142 796 q 310 939 242 886 l 381 939 q 547 796 456 881 l 489 742 l 344 881 l 200 742 l 142 796 z "},"ệ":{"ha":654,"x_min":74,"x_max":585,"o":"m 361 -7 q 74 336 74 -7 q 147 592 74 507 q 344 678 221 678 q 520 605 456 678 q 585 410 585 532 l 582 347 l 579 318 l 160 318 q 215 120 161 175 q 356 65 269 65 q 454 78 408 65 q 546 119 500 90 l 572 51 q 469 8 525 22 q 361 -7 413 -7 m 504 379 l 504 413 q 461 554 504 501 q 344 607 418 607 q 214 547 260 607 q 160 379 168 488 l 504 379 m 315 -190 l 315 -86 l 408 -86 l 408 -190 l 315 -190 m 142 815 q 172 850 143 817 q 310 993 257 943 l 381 993 q 508 860 414 960 l 547 815 l 489 761 l 344 922 l 200 761 l 142 815 z "},"ề":{"ha":654,"x_min":74,"x_max":585,"o":"m 361 -7 q 74 336 74 -7 q 147 592 74 507 q 344 678 221 678 q 520 605 456 678 q 585 410 585 532 l 582 347 l 579 318 l 160 318 q 215 120 161 175 q 356 65 269 65 q 454 78 408 65 q 546 119 500 90 l 572 51 q 469 8 525 22 q 361 -7 413 -7 m 504 379 l 504 413 q 461 554 504 501 q 344 607 418 607 q 214 547 260 607 q 160 379 168 488 l 504 379 m 506 914 q 460 965 483 935 l 389 1060 l 497 1060 l 576 914 l 506 914 m 142 796 q 310 939 242 886 l 381 939 q 547 796 456 881 l 489 742 l 344 881 l 200 742 l 142 796 z "},"ể":{"ha":654,"x_min":74,"x_max":650,"o":"m 361 -7 q 74 336 74 -7 q 147 592 74 507 q 344 678 221 678 q 520 605 456 678 q 585 410 585 532 l 582 347 l 579 318 l 160 318 q 215 120 161 175 q 356 65 269 65 q 454 78 408 65 q 546 119 500 90 l 572 51 q 469 8 525 22 q 361 -7 413 -7 m 504 379 l 504 413 q 461 554 504 501 q 344 607 418 607 q 214 547 260 607 q 160 379 168 488 l 504 379 m 467 963 q 544 981 515 967 q 572 1031 572 994 q 557 1067 572 1054 q 514 1081 542 1081 q 453 1068 485 1081 l 443 1122 q 538 1142 489 1142 q 620 1114 590 1142 q 650 1038 650 1086 q 618 960 650 985 q 531 929 586 935 l 535 897 l 467 897 l 467 963 m 142 796 q 310 939 242 886 l 381 939 q 547 796 456 881 l 489 742 l 344 881 l 200 742 l 142 796 z "},"ễ":{"ha":654,"x_min":74,"x_max":585,"o":"m 361 -7 q 74 336 74 -7 q 147 592 74 507 q 344 678 221 678 q 520 605 456 678 q 585 410 585 532 l 582 347 l 579 318 l 160 318 q 215 120 161 175 q 356 65 269 65 q 454 78 408 65 q 546 119 500 90 l 572 51 q 469 8 525 22 q 361 -7 413 -7 m 504 379 l 504 413 q 461 554 504 501 q 344 607 418 607 q 214 547 260 607 q 160 379 168 488 l 504 379 m 439 971 q 393 979 415 971 q 342 1004 371 988 q 296 1025 313 1018 q 263 1032 279 1032 q 224 1019 242 1032 q 183 972 207 1006 l 129 1003 q 192 1088 164 1064 q 256 1111 219 1111 q 302 1102 279 1111 q 353 1078 325 1093 q 432 1049 403 1049 q 467 1062 451 1049 q 507 1110 482 1075 l 561 1079 q 505 996 533 1021 q 439 971 476 971 m 142 796 q 310 939 242 886 l 381 939 q 547 796 456 881 l 489 742 l 344 881 l 200 742 l 142 796 z "},"ȅ":{"ha":654,"x_min":69,"x_max":585,"o":"m 361 -7 q 74 336 74 -7 q 147 592 74 507 q 344 678 221 678 q 520 605 456 678 q 585 410 585 532 l 582 347 l 579 318 l 160 318 q 215 120 161 175 q 356 65 269 65 q 454 78 408 65 q 546 119 500 90 l 572 51 q 469 8 525 22 q 361 -7 413 -7 m 504 379 l 504 413 q 461 554 504 501 q 344 607 418 607 q 214 547 260 607 q 160 379 168 488 l 504 379 m 271 742 q 136 871 158 843 l 69 951 l 142 1006 l 307 775 l 271 742 m 476 742 q 342 871 374 832 l 274 951 l 346 1006 l 513 775 l 476 742 z "},"ë":{"ha":654,"x_min":74,"x_max":585,"o":"m 361 -7 q 74 336 74 -7 q 147 592 74 507 q 344 678 221 678 q 520 605 456 678 q 585 410 585 532 l 582 347 l 579 318 l 160 318 q 215 120 161 175 q 356 65 269 65 q 454 78 408 65 q 546 119 500 90 l 572 51 q 469 8 525 22 q 361 -7 413 -7 m 504 379 l 504 413 q 461 554 504 501 q 344 607 418 607 q 214 547 260 607 q 160 379 168 488 l 504 379 m 192 776 l 192 863 l 286 863 l 286 776 l 192 776 m 404 776 l 404 863 l 497 863 l 497 776 l 404 776 z "},"ė":{"ha":654,"x_min":74,"x_max":585,"o":"m 361 -7 q 74 336 74 -7 q 147 592 74 507 q 344 678 221 678 q 520 605 456 678 q 585 410 585 532 l 582 347 l 579 318 l 160 318 q 215 120 161 175 q 356 65 269 65 q 454 78 408 65 q 546 119 500 90 l 572 51 q 469 8 525 22 q 361 -7 413 -7 m 504 379 l 504 413 q 461 554 504 501 q 344 607 418 607 q 214 547 260 607 q 160 379 168 488 l 504 379 m 299 782 l 299 886 l 392 886 l 392 782 l 299 782 z "},"ẹ":{"ha":654,"x_min":74,"x_max":585,"o":"m 361 -7 q 74 336 74 -7 q 147 592 74 507 q 344 678 221 678 q 520 605 456 678 q 585 410 585 532 l 582 347 l 579 318 l 160 318 q 215 120 161 175 q 356 65 269 65 q 454 78 408 65 q 546 119 500 90 l 572 51 q 469 8 525 22 q 361 -7 413 -7 m 504 379 l 504 413 q 461 554 504 501 q 344 607 418 607 q 214 547 260 607 q 160 379 168 488 l 504 379 m 315 -190 l 315 -86 l 408 -86 l 408 -190 l 315 -190 z "},"è":{"ha":654,"x_min":74,"x_max":585,"o":"m 361 -7 q 74 336 74 -7 q 147 592 74 507 q 344 678 221 678 q 520 605 456 678 q 585 410 585 532 l 582 347 l 579 318 l 160 318 q 215 120 161 175 q 356 65 269 65 q 454 78 408 65 q 546 119 500 90 l 572 51 q 469 8 525 22 q 361 -7 413 -7 m 504 379 l 504 413 q 461 554 504 501 q 344 607 418 607 q 214 547 260 607 q 160 379 168 488 l 504 379 m 428 744 q 362 804 411 758 q 293 874 313 850 l 225 954 l 297 1010 l 464 778 l 428 744 z "},"ẻ":{"ha":654,"x_min":74,"x_max":585,"o":"m 361 -7 q 74 336 74 -7 q 147 592 74 507 q 344 678 221 678 q 520 605 456 678 q 585 410 585 532 l 582 347 l 579 318 l 160 318 q 215 120 161 175 q 356 65 269 65 q 454 78 408 65 q 546 119 500 90 l 572 51 q 469 8 525 22 q 361 -7 413 -7 m 504 379 l 504 413 q 461 554 504 501 q 344 607 418 607 q 214 547 260 607 q 160 379 168 488 l 504 379 m 308 817 q 390 835 360 821 q 421 888 421 850 q 405 924 421 911 q 361 936 389 936 q 294 922 332 936 l 285 976 q 378 997 333 997 q 467 969 435 997 q 499 893 499 942 q 372 783 499 796 l 379 739 l 308 739 l 308 817 z "},"ȇ":{"ha":654,"x_min":74,"x_max":585,"o":"m 361 -7 q 74 336 74 -7 q 147 592 74 507 q 344 678 221 678 q 520 605 456 678 q 585 410 585 532 l 582 347 l 579 318 l 160 318 q 215 120 161 175 q 356 65 269 65 q 454 78 408 65 q 546 119 500 90 l 572 51 q 469 8 525 22 q 361 -7 413 -7 m 504 379 l 504 413 q 461 554 504 501 q 344 607 418 607 q 214 547 260 607 q 160 379 168 488 l 504 379 m 160 817 q 247 894 204 871 q 344 918 289 918 q 442 894 400 918 q 529 817 485 871 l 476 769 q 415 826 444 808 q 344 843 385 843 q 274 826 304 843 q 213 769 244 808 l 160 817 z "},"ē":{"ha":654,"x_min":74,"x_max":585,"o":"m 361 -7 q 74 336 74 -7 q 147 592 74 507 q 344 678 221 678 q 520 605 456 678 q 585 410 585 532 l 582 347 l 579 318 l 160 318 q 215 120 161 175 q 356 65 269 65 q 454 78 408 65 q 546 119 500 90 l 572 51 q 469 8 525 22 q 361 -7 413 -7 m 504 379 l 504 413 q 461 554 504 501 q 344 607 418 607 q 214 547 260 607 q 160 379 168 488 l 504 379 m 182 774 l 182 846 l 508 846 l 508 774 l 182 774 z "},"ę":{"ha":654,"x_min":74,"x_max":585,"o":"m 582 347 l 579 318 l 160 318 q 215 120 161 175 q 356 65 269 65 q 454 78 408 65 q 546 119 500 90 l 572 51 l 553 40 l 556 40 q 485 -15 517 17 q 454 -82 454 -47 q 469 -119 454 -107 q 508 -132 483 -132 q 542 -128 525 -132 q 569 -118 560 -124 l 579 -172 q 494 -190 542 -190 q 415 -167 446 -190 q 385 -97 385 -143 q 442 1 385 -47 q 361 -7 399 -7 q 74 336 74 -7 q 147 592 74 507 q 344 678 221 678 q 520 605 456 678 q 585 410 585 532 l 582 347 m 504 413 q 461 554 504 501 q 344 607 418 607 q 214 547 260 607 q 160 379 168 488 l 504 379 l 504 413 z "},"ẽ":{"ha":654,"x_min":74,"x_max":585,"o":"m 361 -7 q 74 336 74 -7 q 147 592 74 507 q 344 678 221 678 q 520 605 456 678 q 585 410 585 532 l 582 347 l 579 318 l 160 318 q 215 120 161 175 q 356 65 269 65 q 454 78 408 65 q 546 119 500 90 l 572 51 q 469 8 525 22 q 361 -7 413 -7 m 504 379 l 504 413 q 461 554 504 501 q 344 607 418 607 q 214 547 260 607 q 160 379 168 488 l 504 379 m 129 819 l 131 819 q 184 907 160 882 q 242 932 208 932 q 291 922 263 932 q 368 892 319 913 q 402 878 375 889 q 444 868 429 868 q 474 881 461 868 q 507 926 486 893 l 561 896 q 508 815 535 839 q 446 790 482 790 q 324 826 407 790 q 281 845 300 838 q 249 853 261 853 q 217 838 231 853 q 183 788 203 824 l 129 819 z "},"ə":{"ha":654,"x_min":69,"x_max":581,"o":"m 310 -7 q 134 67 199 -7 q 69 261 69 140 q 75 353 69 301 l 493 353 q 438 551 492 496 q 297 607 385 607 q 108 551 194 607 l 82 621 q 185 664 128 650 q 293 678 242 678 q 505 595 429 678 q 581 335 581 513 q 507 79 581 165 q 310 -7 433 -7 m 310 64 q 440 124 394 64 q 493 292 486 183 l 150 292 l 150 258 q 193 117 150 169 q 310 64 236 64 z "},"f":{"ha":465,"x_min":42,"x_max":474,"o":"m 172 606 l 42 606 l 42 668 l 172 668 q 186 828 172 771 q 238 915 200 886 q 347 946 275 943 q 474 928 419 946 l 463 860 q 415 869 444 864 q 367 874 385 874 q 303 859 325 874 q 270 801 281 844 q 260 668 260 757 l 411 668 l 411 606 l 260 606 l 260 0 l 172 0 l 172 606 z "},"ḟ":{"ha":465,"x_min":42,"x_max":474,"o":"m 172 606 l 42 606 l 42 668 l 172 668 q 186 828 172 771 q 238 915 200 886 q 347 946 275 943 q 474 928 419 946 l 463 860 q 415 869 444 864 q 367 874 385 874 q 303 859 325 874 q 270 801 281 844 q 260 668 260 757 l 411 668 l 411 606 l 260 606 l 260 0 l 172 0 l 172 606 m 301 1021 l 301 1125 l 394 1125 l 394 1021 l 301 1021 z "},"g":{"ha":740,"x_min":81,"x_max":697,"o":"m 349 -231 q 140 -178 199 -231 q 81 -62 81 -126 q 106 13 81 -25 q 156 65 131 51 q 120 108 133 81 q 107 161 107 135 q 122 228 107 197 q 176 315 138 260 q 101 467 101 381 q 175 626 101 574 q 365 678 249 678 q 439 669 397 678 q 465 665 446 668 q 503 663 483 663 l 697 663 l 697 599 l 547 599 q 601 533 582 572 q 619 457 619 494 q 551 310 619 365 q 369 256 482 256 q 229 281 290 256 q 185 172 185 211 q 190 142 185 156 q 199 122 194 129 q 206 113 204 114 l 463 113 q 612 78 569 113 q 654 -28 654 44 q 626 -122 654 -76 q 529 -199 597 -168 q 349 -231 461 -231 m 363 322 q 495 357 450 322 q 540 460 540 392 q 497 570 540 526 q 369 614 454 614 q 232 574 275 614 q 189 467 189 533 q 235 360 189 397 q 363 322 281 322 m 353 -160 q 518 -122 463 -160 q 574 -33 574 -85 q 553 25 574 6 q 474 44 533 44 l 217 44 q 167 -54 167 -3 q 178 -106 167 -83 q 230 -144 189 -128 q 353 -160 271 -160 z "},"ǵ":{"ha":740,"x_min":81,"x_max":697,"o":"m 349 -231 q 140 -178 199 -231 q 81 -62 81 -126 q 106 13 81 -25 q 156 65 131 51 q 120 108 133 81 q 107 161 107 135 q 122 228 107 197 q 176 315 138 260 q 101 467 101 381 q 175 626 101 574 q 365 678 249 678 q 439 669 397 678 q 465 665 446 668 q 503 663 483 663 l 697 663 l 697 599 l 547 599 q 601 533 582 572 q 619 457 619 494 q 551 310 619 365 q 369 256 482 256 q 229 281 290 256 q 185 172 185 211 q 190 142 185 156 q 199 122 194 129 q 206 113 204 114 l 463 113 q 612 78 569 113 q 654 -28 654 44 q 626 -122 654 -76 q 529 -199 597 -168 q 349 -231 461 -231 m 363 322 q 495 357 450 322 q 540 460 540 392 q 497 570 540 526 q 369 614 454 614 q 232 574 275 614 q 189 467 189 533 q 235 360 189 397 q 363 322 281 322 m 353 -160 q 518 -122 463 -160 q 574 -33 574 -85 q 553 25 574 6 q 474 44 533 44 l 217 44 q 167 -54 167 -3 q 178 -106 167 -83 q 230 -144 189 -128 q 353 -160 271 -160 m 267 778 l 433 1010 l 506 954 l 439 881 q 369 808 419 856 q 303 744 319 760 l 267 778 z "},"ğ":{"ha":740,"x_min":81,"x_max":697,"o":"m 349 -231 q 140 -178 199 -231 q 81 -62 81 -126 q 106 13 81 -25 q 156 65 131 51 q 120 108 133 81 q 107 161 107 135 q 122 228 107 197 q 176 315 138 260 q 101 467 101 381 q 175 626 101 574 q 365 678 249 678 q 439 669 397 678 q 465 665 446 668 q 503 663 483 663 l 697 663 l 697 599 l 547 599 q 601 533 582 572 q 619 457 619 494 q 551 310 619 365 q 369 256 482 256 q 229 281 290 256 q 185 172 185 211 q 190 142 185 156 q 199 122 194 129 q 206 113 204 114 l 463 113 q 612 78 569 113 q 654 -28 654 44 q 626 -122 654 -76 q 529 -199 597 -168 q 349 -231 461 -231 m 363 322 q 495 357 450 322 q 540 460 540 392 q 497 570 540 526 q 369 614 454 614 q 232 574 275 614 q 189 467 189 533 q 235 360 189 397 q 363 322 281 322 m 353 -160 q 518 -122 463 -160 q 574 -33 574 -85 q 553 25 574 6 q 474 44 533 44 l 217 44 q 167 -54 167 -3 q 178 -106 167 -83 q 230 -144 189 -128 q 353 -160 271 -160 m 365 767 q 267 790 310 767 q 182 868 225 814 l 233 915 q 297 860 267 878 q 365 842 326 842 q 435 860 406 842 q 499 915 465 878 l 550 868 q 465 790 507 814 q 365 767 422 767 z "},"ǧ":{"ha":740,"x_min":81,"x_max":697,"o":"m 349 -231 q 140 -178 199 -231 q 81 -62 81 -126 q 106 13 81 -25 q 156 65 131 51 q 120 108 133 81 q 107 161 107 135 q 122 228 107 197 q 176 315 138 260 q 101 467 101 381 q 175 626 101 574 q 365 678 249 678 q 439 669 397 678 q 465 665 446 668 q 503 663 483 663 l 697 663 l 697 599 l 547 599 q 601 533 582 572 q 619 457 619 494 q 551 310 619 365 q 369 256 482 256 q 229 281 290 256 q 185 172 185 211 q 190 142 185 156 q 199 122 194 129 q 206 113 204 114 l 463 113 q 612 78 569 113 q 654 -28 654 44 q 626 -122 654 -76 q 529 -199 597 -168 q 349 -231 461 -231 m 363 322 q 495 357 450 322 q 540 460 540 392 q 497 570 540 526 q 369 614 454 614 q 232 574 275 614 q 189 467 189 533 q 235 360 189 397 q 363 322 281 322 m 353 -160 q 518 -122 463 -160 q 574 -33 574 -85 q 553 25 574 6 q 474 44 533 44 l 217 44 q 167 -54 167 -3 q 178 -106 167 -83 q 230 -144 189 -128 q 353 -160 271 -160 m 365 749 q 331 768 347 749 q 176 958 232 883 l 236 1000 l 365 825 l 496 1000 l 556 958 q 400 768 494 875 q 365 749 385 749 z "},"ĝ":{"ha":740,"x_min":81,"x_max":697,"o":"m 349 -231 q 140 -178 199 -231 q 81 -62 81 -126 q 106 13 81 -25 q 156 65 131 51 q 120 108 133 81 q 107 161 107 135 q 122 228 107 197 q 176 315 138 260 q 101 467 101 381 q 175 626 101 574 q 365 678 249 678 q 439 669 397 678 q 465 665 446 668 q 503 663 483 663 l 697 663 l 697 599 l 547 599 q 601 533 582 572 q 619 457 619 494 q 551 310 619 365 q 369 256 482 256 q 229 281 290 256 q 185 172 185 211 q 190 142 185 156 q 199 122 194 129 q 206 113 204 114 l 463 113 q 612 78 569 113 q 654 -28 654 44 q 626 -122 654 -76 q 529 -199 597 -168 q 349 -231 461 -231 m 363 322 q 495 357 450 322 q 540 460 540 392 q 497 570 540 526 q 369 614 454 614 q 232 574 275 614 q 189 467 189 533 q 235 360 189 397 q 363 322 281 322 m 353 -160 q 518 -122 463 -160 q 574 -33 574 -85 q 553 25 574 6 q 474 44 533 44 l 217 44 q 167 -54 167 -3 q 178 -106 167 -83 q 230 -144 189 -128 q 353 -160 271 -160 m 163 815 q 193 850 164 817 q 331 993 278 943 l 401 993 q 529 860 435 960 l 568 815 l 510 761 l 365 922 l 221 761 l 163 815 z "},"ģ":{"ha":740,"x_min":81,"x_max":697,"o":"m 349 -231 q 140 -178 199 -231 q 81 -62 81 -126 q 106 13 81 -25 q 156 65 131 51 q 120 108 133 81 q 107 161 107 135 q 122 228 107 197 q 176 315 138 260 q 101 467 101 381 q 175 626 101 574 q 365 678 249 678 q 439 669 397 678 q 465 665 446 668 q 503 663 483 663 l 697 663 l 697 599 l 547 599 q 601 533 582 572 q 619 457 619 494 q 551 310 619 365 q 369 256 482 256 q 229 281 290 256 q 185 172 185 211 q 190 142 185 156 q 199 122 194 129 q 206 113 204 114 l 463 113 q 612 78 569 113 q 654 -28 654 44 q 626 -122 654 -76 q 529 -199 597 -168 q 349 -231 461 -231 m 363 322 q 495 357 450 322 q 540 460 540 392 q 497 570 540 526 q 369 614 454 614 q 232 574 275 614 q 189 467 189 533 q 235 360 189 397 q 363 322 281 322 m 353 -160 q 518 -122 463 -160 q 574 -33 574 -85 q 553 25 574 6 q 474 44 533 44 l 217 44 q 167 -54 167 -3 q 178 -106 167 -83 q 230 -144 189 -128 q 353 -160 271 -160 m 421 850 l 421 746 l 310 746 l 310 824 q 379 974 310 908 l 417 943 q 375 850 379 899 l 421 850 z "},"ġ":{"ha":740,"x_min":81,"x_max":697,"o":"m 349 -231 q 140 -178 199 -231 q 81 -62 81 -126 q 106 13 81 -25 q 156 65 131 51 q 120 108 133 81 q 107 161 107 135 q 122 228 107 197 q 176 315 138 260 q 101 467 101 381 q 175 626 101 574 q 365 678 249 678 q 439 669 397 678 q 465 665 446 668 q 503 663 483 663 l 697 663 l 697 599 l 547 599 q 601 533 582 572 q 619 457 619 494 q 551 310 619 365 q 369 256 482 256 q 229 281 290 256 q 185 172 185 211 q 190 142 185 156 q 199 122 194 129 q 206 113 204 114 l 463 113 q 612 78 569 113 q 654 -28 654 44 q 626 -122 654 -76 q 529 -199 597 -168 q 349 -231 461 -231 m 363 322 q 495 357 450 322 q 540 460 540 392 q 497 570 540 526 q 369 614 454 614 q 232 574 275 614 q 189 467 189 533 q 235 360 189 397 q 363 322 281 322 m 353 -160 q 518 -122 463 -160 q 574 -33 574 -85 q 553 25 574 6 q 474 44 533 44 l 217 44 q 167 -54 167 -3 q 178 -106 167 -83 q 230 -144 189 -128 q 353 -160 271 -160 m 319 782 l 319 886 l 413 886 l 413 782 l 319 782 z "},"h":{"ha":660,"x_min":94,"x_max":572,"o":"m 94 921 l 182 921 l 182 618 q 385 678 289 678 q 526 623 481 678 q 572 450 572 568 l 572 0 l 486 0 l 486 454 q 463 571 486 535 q 379 607 439 607 q 182 543 300 607 l 182 0 l 94 0 l 94 921 z "},"ħ":{"ha":672,"x_min":-21,"x_max":585,"o":"m 108 746 l -21 746 l -21 810 l 108 810 l 108 921 l 194 921 l 194 810 l 339 810 l 339 746 l 194 746 l 194 618 q 397 678 301 678 q 539 623 493 678 q 585 450 585 568 l 585 0 l 499 0 l 499 454 q 475 571 499 535 q 392 607 451 607 q 194 543 315 607 l 194 0 l 108 0 l 108 746 z "},"ĥ":{"ha":660,"x_min":-64,"x_max":572,"o":"m 94 921 l 182 921 l 182 618 q 385 678 289 678 q 526 623 481 678 q 572 450 572 568 l 572 0 l 486 0 l 486 454 q 463 571 486 535 q 379 607 439 607 q 182 543 300 607 l 182 0 l 94 0 l 94 921 m -64 1054 l -40 1074 q 104 1183 38 1138 l 175 1183 q 308 1082 224 1150 q 342 1054 317 1074 l 283 1000 l 139 1124 l -6 1000 l -64 1054 z "},"i":{"ha":461,"x_min":81,"x_max":428,"o":"m 254 797 q 210 813 228 797 q 192 857 192 829 q 210 902 192 885 q 254 919 228 919 q 298 903 281 919 q 315 858 315 888 q 298 813 315 829 q 254 797 281 797 m 81 0 l 81 61 l 210 61 l 210 607 l 81 607 l 81 668 l 297 668 l 297 61 l 428 61 l 428 0 l 81 0 z "},"ı":{"ha":457,"x_min":75,"x_max":422,"o":"m 75 0 l 75 61 l 206 61 l 206 607 l 75 607 l 75 668 l 292 668 l 292 61 l 422 61 l 422 0 l 75 0 z "},"í":{"ha":457,"x_min":75,"x_max":422,"o":"m 75 0 l 75 61 l 206 61 l 206 607 l 75 607 l 75 668 l 292 668 l 292 61 l 422 61 l 422 0 l 75 0 m 118 811 l 285 1043 l 357 988 l 290 914 q 221 841 271 889 q 154 778 171 793 l 118 811 z "},"ĭ":{"ha":457,"x_min":33,"x_max":422,"o":"m 75 0 l 75 61 l 206 61 l 206 607 l 75 607 l 75 668 l 292 668 l 292 61 l 422 61 l 422 0 l 75 0 m 217 800 q 119 824 161 800 q 33 901 76 847 l 85 949 q 148 893 118 911 q 217 875 178 875 q 287 893 257 875 q 350 949 317 911 l 401 901 q 316 824 358 847 q 217 800 274 800 z "},"î":{"ha":457,"x_min":14,"x_max":422,"o":"m 75 0 l 75 61 l 206 61 l 206 607 l 75 607 l 75 668 l 292 668 l 292 61 l 422 61 l 422 0 l 75 0 m 14 849 q 44 883 15 850 q 182 1026 129 976 l 253 1026 q 381 893 286 993 l 419 849 l 361 794 l 217 956 l 72 794 l 14 849 z "},"ȉ":{"ha":457,"x_min":-58,"x_max":422,"o":"m 75 0 l 75 61 l 206 61 l 206 607 l 75 607 l 75 668 l 292 668 l 292 61 l 422 61 l 422 0 l 75 0 m 143 775 q 8 904 31 876 l -58 985 l 14 1039 l 179 808 l 143 775 m 349 775 q 214 904 246 865 l 146 985 l 218 1039 l 385 808 l 349 775 z "},"ï":{"ha":457,"x_min":64,"x_max":422,"o":"m 75 0 l 75 61 l 206 61 l 206 607 l 75 607 l 75 668 l 292 668 l 292 61 l 422 61 l 422 0 l 75 0 m 64 810 l 64 896 l 158 896 l 158 810 l 64 810 m 276 810 l 276 896 l 369 896 l 369 810 l 276 810 z "},"ị":{"ha":461,"x_min":81,"x_max":428,"o":"m 254 797 q 210 813 228 797 q 192 857 192 829 q 210 902 192 885 q 254 919 228 919 q 298 903 281 919 q 315 858 315 888 q 298 813 315 829 q 254 797 281 797 m 81 0 l 81 61 l 210 61 l 210 607 l 81 607 l 81 668 l 297 668 l 297 61 l 428 61 l 428 0 l 81 0 m 208 -190 l 208 -86 l 301 -86 l 301 -190 l 208 -190 z "},"ì":{"ha":457,"x_min":75,"x_max":422,"o":"m 75 0 l 75 61 l 206 61 l 206 607 l 75 607 l 75 668 l 292 668 l 292 61 l 422 61 l 422 0 l 75 0 m 300 778 q 234 838 283 792 q 165 907 185 883 l 97 988 l 169 1043 l 336 811 l 300 778 z "},"ỉ":{"ha":457,"x_min":75,"x_max":422,"o":"m 75 0 l 75 61 l 206 61 l 206 607 l 75 607 l 75 668 l 292 668 l 292 61 l 422 61 l 422 0 l 75 0 m 181 850 q 263 869 232 854 q 293 921 293 883 q 277 957 293 944 q 233 969 261 969 q 167 956 204 969 l 157 1010 q 250 1031 206 1031 q 339 1003 307 1031 q 371 926 371 975 q 244 817 371 829 l 251 772 l 181 772 l 181 850 z "},"ȋ":{"ha":457,"x_min":32,"x_max":422,"o":"m 75 0 l 75 61 l 206 61 l 206 607 l 75 607 l 75 668 l 292 668 l 292 61 l 422 61 l 422 0 l 75 0 m 32 850 q 119 928 76 904 q 217 951 161 951 q 315 928 272 951 q 401 850 357 904 l 349 803 q 287 859 317 842 q 217 876 257 876 q 147 859 176 876 q 85 803 117 842 l 32 850 z "},"ĳ":{"ha":886,"x_min":81,"x_max":794,"o":"m 254 797 q 210 813 228 797 q 192 857 192 829 q 210 902 192 885 q 254 919 228 919 q 298 903 281 919 q 315 858 315 888 q 298 813 315 829 q 254 797 281 797 m 81 0 l 81 61 l 210 61 l 210 607 l 81 607 l 81 668 l 297 668 l 297 61 l 428 61 l 428 0 l 81 0 m 733 797 q 689 813 707 797 q 671 857 671 829 q 689 902 671 885 q 733 919 707 919 q 778 903 761 919 q 794 858 794 888 q 778 813 794 829 q 733 797 761 797 m 601 -200 q 488 -186 532 -200 l 497 -112 q 599 -124 546 -124 q 673 -92 654 -124 q 692 19 692 -61 l 692 607 l 539 607 l 539 668 l 778 668 l 778 13 q 734 -149 778 -99 q 601 -200 690 -200 z "},"ī":{"ha":457,"x_min":54,"x_max":422,"o":"m 75 0 l 75 61 l 206 61 l 206 607 l 75 607 l 75 668 l 292 668 l 292 61 l 422 61 l 422 0 l 75 0 m 54 807 l 54 879 l 381 879 l 381 807 l 54 807 z "},"į":{"ha":461,"x_min":81,"x_max":428,"o":"m 254 797 q 210 813 228 797 q 192 857 192 829 q 210 902 192 885 q 254 919 228 919 q 298 903 281 919 q 315 858 315 888 q 298 813 315 829 q 254 797 281 797 m 81 0 l 81 61 l 210 61 l 210 607 l 81 607 l 81 668 l 297 668 l 297 61 l 428 61 l 428 0 l 81 0 m 235 -231 q 156 -207 186 -231 q 125 -137 125 -183 q 155 -66 125 -103 q 238 0 185 -29 l 296 0 q 226 -56 257 -24 q 194 -122 194 -87 q 209 -160 194 -147 q 249 -172 224 -172 q 283 -168 265 -172 q 310 -158 300 -164 l 319 -212 q 235 -231 282 -231 z "},"ĩ":{"ha":457,"x_min":1,"x_max":433,"o":"m 75 0 l 75 61 l 206 61 l 206 607 l 75 607 l 75 668 l 292 668 l 292 61 l 422 61 l 422 0 l 75 0 m 1 853 l 3 853 q 56 940 32 915 q 114 965 81 965 q 163 956 135 965 q 240 925 192 946 q 274 912 247 922 q 317 901 301 901 q 346 914 333 901 q 379 960 358 926 l 433 929 q 381 848 407 872 q 318 824 354 824 q 196 860 279 824 q 153 878 172 871 q 121 886 133 886 q 89 872 103 886 q 56 821 75 857 l 1 853 z "},"j":{"ha":425,"x_min":26,"x_max":333,"o":"m 272 797 q 228 813 246 797 q 210 857 210 829 q 228 902 210 885 q 272 919 246 919 q 317 903 300 919 q 333 858 333 888 q 317 813 333 829 q 272 797 300 797 m 140 -200 q 26 -186 71 -200 l 36 -112 q 138 -124 85 -124 q 212 -92 193 -124 q 231 19 231 -61 l 231 607 l 78 607 l 78 668 l 317 668 l 317 13 q 273 -149 317 -99 q 140 -200 229 -200 z "},"ȷ":{"ha":421,"x_min":26,"x_max":317,"o":"m 140 -200 q 26 -186 71 -200 l 36 -112 q 138 -124 85 -124 q 212 -92 193 -124 q 231 19 231 -61 l 231 607 l 78 607 l 78 668 l 317 668 l 317 13 q 273 -149 317 -99 q 140 -200 229 -200 z "},"ĵ":{"ha":421,"x_min":7,"x_max":413,"o":"m 140 -200 q 26 -186 71 -200 l 36 -112 q 138 -124 85 -124 q 212 -92 193 -124 q 231 19 231 -61 l 231 607 l 78 607 l 78 668 l 317 668 l 317 13 q 273 -149 317 -99 q 140 -200 229 -200 m 7 815 q 38 850 8 817 q 175 993 122 943 l 246 993 q 374 860 279 960 l 413 815 l 354 761 l 210 922 l 65 761 l 7 815 z "},"k":{"ha":636,"x_min":94,"x_max":615,"o":"m 94 921 l 182 921 l 182 335 q 488 668 360 524 l 592 668 l 310 354 l 615 0 l 515 0 l 243 311 l 182 256 l 182 0 l 94 0 l 94 921 z "},"ķ":{"ha":636,"x_min":94,"x_max":615,"o":"m 94 921 l 182 921 l 182 335 q 488 668 360 524 l 592 668 l 310 354 l 615 0 l 515 0 l 243 311 l 182 256 l 182 0 l 94 0 l 94 921 m 394 -85 l 394 -162 q 325 -312 394 -247 l 288 -282 q 329 -189 325 -237 l 283 -189 l 283 -85 l 394 -85 z "},"ĸ":{"ha":646,"x_min":94,"x_max":625,"o":"m 94 668 l 182 668 l 182 326 l 226 375 q 323 482 246 397 q 488 668 400 567 l 600 668 l 310 342 l 625 0 l 515 0 q 351 181 421 104 q 261 282 282 258 l 243 301 l 182 247 l 182 0 l 94 0 l 94 668 z "},"l":{"ha":463,"x_min":47,"x_max":429,"o":"m 47 0 l 47 61 l 199 61 l 199 860 l 49 860 l 49 921 l 286 921 l 286 61 l 429 61 l 429 0 l 47 0 z "},"ĺ":{"ha":463,"x_min":47,"x_max":429,"o":"m 47 0 l 47 61 l 199 61 l 199 860 l 49 860 l 49 921 l 286 921 l 286 61 l 429 61 l 429 0 l 47 0 m 104 1035 l 325 1214 l 381 1144 l 297 1089 q 131 993 244 1054 l 104 1035 z "},"ľ":{"ha":463,"x_min":47,"x_max":463,"o":"m 47 0 l 47 61 l 199 61 l 199 860 l 49 860 l 49 921 l 286 921 l 286 61 l 429 61 l 429 0 l 47 0 m 463 921 l 463 842 q 394 692 463 760 l 356 724 q 399 815 394 768 l 353 815 l 353 921 l 463 921 z "},"ļ":{"ha":463,"x_min":47,"x_max":429,"o":"m 47 0 l 47 61 l 199 61 l 199 860 l 49 860 l 49 921 l 286 921 l 286 61 l 429 61 l 429 0 l 47 0 m 297 -85 l 297 -162 q 228 -312 297 -247 l 190 -282 q 232 -189 228 -237 l 186 -189 l 186 -85 l 297 -85 z "},"ŀ":{"ha":463,"x_min":47,"x_max":532,"o":"m 47 0 l 47 61 l 199 61 l 199 860 l 49 860 l 49 921 l 286 921 l 286 61 l 429 61 l 429 0 l 47 0 m 417 413 l 417 556 l 532 556 l 532 413 l 417 413 z "},"ǉ":{"ha":888,"x_min":47,"x_max":796,"o":"m 47 0 l 47 61 l 199 61 l 199 860 l 49 860 l 49 921 l 286 921 l 286 61 l 429 61 l 429 0 l 47 0 m 735 797 q 690 813 708 797 q 672 857 672 829 q 690 902 672 885 q 735 919 708 919 q 779 903 763 919 q 796 858 796 888 q 779 813 796 829 q 735 797 763 797 m 603 -200 q 489 -186 533 -200 l 499 -112 q 600 -124 547 -124 q 674 -92 656 -124 q 693 19 693 -61 l 693 607 l 540 607 l 540 668 l 779 668 l 779 13 q 735 -149 779 -99 q 603 -200 692 -200 z "},"ł":{"ha":504,"x_min":56,"x_max":532,"o":"m 89 0 l 89 61 l 240 61 l 240 400 l 94 285 l 56 338 l 240 482 l 240 860 l 90 860 l 90 921 l 328 921 l 328 550 l 492 678 l 532 626 l 328 467 l 328 61 l 471 61 l 471 0 l 89 0 z "},"m":{"ha":1018,"x_min":94,"x_max":931,"o":"m 94 668 l 175 668 l 178 625 q 379 678 272 678 q 522 622 485 678 q 732 678 626 678 q 879 622 828 678 q 931 456 931 567 l 931 0 l 844 0 l 844 456 q 735 607 844 607 q 554 563 624 607 q 560 513 557 549 q 563 450 563 478 l 563 0 l 475 0 l 475 453 q 451 571 475 535 q 368 608 428 607 l 367 608 q 280 596 331 608 q 182 558 229 583 l 182 0 l 94 0 l 94 668 z "},"ṁ":{"ha":1018,"x_min":94,"x_max":931,"o":"m 94 668 l 175 668 l 178 625 q 379 678 272 678 q 522 622 485 678 q 732 678 626 678 q 879 622 828 678 q 931 456 931 567 l 931 0 l 844 0 l 844 456 q 735 607 844 607 q 554 563 624 607 q 560 513 557 549 q 563 450 563 478 l 563 0 l 475 0 l 475 453 q 451 571 475 535 q 368 608 428 607 l 367 608 q 280 596 331 608 q 182 558 229 583 l 182 0 l 94 0 l 94 668 m 464 782 l 464 886 l 557 886 l 557 782 l 464 782 z "},"n":{"ha":668,"x_min":94,"x_max":581,"o":"m 94 668 l 167 668 l 172 625 q 283 667 239 656 q 379 678 328 678 q 532 622 483 678 q 581 450 581 567 l 581 0 l 494 0 l 494 453 q 468 571 494 535 q 375 607 442 607 q 281 597 326 607 q 182 557 236 588 l 182 0 l 94 0 l 94 668 z "},"ń":{"ha":668,"x_min":94,"x_max":581,"o":"m 94 668 l 167 668 l 172 625 q 283 667 239 656 q 379 678 328 678 q 532 622 483 678 q 581 450 581 567 l 581 0 l 494 0 l 494 453 q 468 571 494 535 q 375 607 442 607 q 281 597 326 607 q 182 557 236 588 l 182 0 l 94 0 l 94 668 m 236 778 l 403 1010 l 475 954 l 408 881 q 339 808 389 856 q 272 744 289 760 l 236 778 z "},"ŉ":{"ha":781,"x_min":67,"x_max":693,"o":"m 207 668 l 279 668 l 285 625 q 396 667 351 656 q 492 678 440 678 q 644 622 596 678 q 693 450 693 567 l 693 0 l 607 0 l 607 453 q 581 571 607 535 q 488 607 554 607 q 394 597 439 607 q 294 557 349 588 l 294 0 l 207 0 l 207 668 m 178 933 l 178 856 q 108 706 178 771 l 71 736 q 113 829 108 781 l 67 829 l 67 933 l 178 933 z "},"ň":{"ha":668,"x_min":94,"x_max":581,"o":"m 94 668 l 167 668 l 172 625 q 283 667 239 656 q 379 678 328 678 q 532 622 483 678 q 581 450 581 567 l 581 0 l 494 0 l 494 453 q 468 571 494 535 q 375 607 442 607 q 281 597 326 607 q 182 557 236 588 l 182 0 l 94 0 l 94 668 m 335 749 q 300 768 317 749 q 146 958 201 883 l 206 1000 l 335 825 l 465 1000 l 525 958 q 369 768 464 875 q 335 749 354 749 z "},"ņ":{"ha":668,"x_min":94,"x_max":581,"o":"m 94 668 l 167 668 l 172 625 q 283 667 239 656 q 379 678 328 678 q 532 622 483 678 q 581 450 581 567 l 581 0 l 494 0 l 494 453 q 468 571 494 535 q 375 607 442 607 q 281 597 326 607 q 182 557 236 588 l 182 0 l 94 0 l 94 668 m 394 -85 l 394 -162 q 325 -312 394 -247 l 288 -282 q 329 -189 325 -237 l 283 -189 l 283 -85 l 394 -85 z "},"ŋ":{"ha":664,"x_min":90,"x_max":576,"o":"m 289 -125 q 405 -110 363 -125 q 469 -51 447 -94 q 490 74 490 -8 l 490 453 q 464 571 490 535 q 371 607 438 607 q 277 597 322 607 q 176 557 232 588 l 176 0 l 90 0 l 90 668 l 161 668 l 168 625 q 279 667 235 656 q 375 678 324 678 q 527 622 478 678 q 576 450 576 565 l 576 88 q 504 -135 576 -74 q 289 -196 432 -196 l 289 -125 z "},"ǌ":{"ha":1093,"x_min":94,"x_max":1001,"o":"m 94 668 l 167 668 l 172 625 q 283 667 239 656 q 379 678 328 678 q 532 622 483 678 q 581 450 581 567 l 581 0 l 494 0 l 494 453 q 468 571 494 535 q 375 607 442 607 q 281 597 326 607 q 182 557 236 588 l 182 0 l 94 0 l 94 668 m 940 797 q 896 813 914 797 q 878 857 878 829 q 896 902 878 885 q 940 919 914 919 q 985 903 968 919 q 1001 858 1001 888 q 985 813 1001 829 q 940 797 968 797 m 808 -200 q 694 -186 739 -200 l 704 -112 q 806 -124 753 -124 q 880 -92 861 -124 q 899 19 899 -61 l 899 607 l 746 607 l 746 668 l 985 668 l 985 13 q 941 -149 985 -99 q 808 -200 897 -200 z "},"ñ":{"ha":668,"x_min":94,"x_max":581,"o":"m 94 668 l 167 668 l 172 625 q 283 667 239 656 q 379 678 328 678 q 532 622 483 678 q 581 450 581 567 l 581 0 l 494 0 l 494 453 q 468 571 494 535 q 375 607 442 607 q 281 597 326 607 q 182 557 236 588 l 182 0 l 94 0 l 94 668 m 119 819 l 121 819 q 174 907 150 882 q 232 932 199 932 q 281 922 253 932 q 358 892 310 913 q 392 878 365 889 q 435 868 419 868 q 464 881 451 868 q 497 926 476 893 l 551 896 q 499 815 525 839 q 436 790 472 790 q 314 826 397 790 q 271 845 290 838 q 239 853 251 853 q 207 838 221 853 q 174 788 193 824 l 119 819 z "},"o":{"ha":667,"x_min":74,"x_max":594,"o":"m 333 -7 q 138 83 201 -7 q 74 336 74 172 q 136 592 74 507 q 333 678 199 678 q 531 592 468 678 q 594 336 594 507 q 531 83 594 172 q 333 -7 467 -7 m 333 65 q 468 135 429 65 q 507 336 507 204 q 467 536 507 465 q 333 607 428 607 q 199 536 239 607 q 160 336 160 465 q 199 135 160 204 q 333 65 238 65 z "},"ó":{"ha":667,"x_min":74,"x_max":594,"o":"m 333 -7 q 138 83 201 -7 q 74 336 74 172 q 136 592 74 507 q 333 678 199 678 q 531 592 468 678 q 594 336 594 507 q 531 83 594 172 q 333 -7 467 -7 m 333 65 q 468 135 429 65 q 507 336 507 204 q 467 536 507 465 q 333 607 428 607 q 199 536 239 607 q 160 336 160 465 q 199 135 160 204 q 333 65 238 65 m 235 778 l 401 1010 l 474 954 l 407 881 q 338 808 388 856 q 271 744 288 760 l 235 778 z "},"ŏ":{"ha":667,"x_min":74,"x_max":594,"o":"m 333 -7 q 138 83 201 -7 q 74 336 74 172 q 136 592 74 507 q 333 678 199 678 q 531 592 468 678 q 594 336 594 507 q 531 83 594 172 q 333 -7 467 -7 m 333 65 q 468 135 429 65 q 507 336 507 204 q 467 536 507 465 q 333 607 428 607 q 199 536 239 607 q 160 336 160 465 q 199 135 160 204 q 333 65 238 65 m 333 767 q 235 790 278 767 q 150 868 193 814 l 201 915 q 265 860 235 878 q 333 842 294 842 q 403 860 374 842 q 467 915 433 878 l 518 868 q 433 790 475 814 q 333 767 390 767 z "},"ô":{"ha":667,"x_min":74,"x_max":594,"o":"m 333 -7 q 138 83 201 -7 q 74 336 74 172 q 136 592 74 507 q 333 678 199 678 q 531 592 468 678 q 594 336 594 507 q 531 83 594 172 q 333 -7 467 -7 m 333 65 q 468 135 429 65 q 507 336 507 204 q 467 536 507 465 q 333 607 428 607 q 199 536 239 607 q 160 336 160 465 q 199 135 160 204 q 333 65 238 65 m 131 815 q 161 850 132 817 q 299 993 246 943 l 369 993 q 497 860 403 960 l 536 815 l 478 761 l 333 922 l 189 761 l 131 815 z "},"ố":{"ha":667,"x_min":74,"x_max":647,"o":"m 333 -7 q 138 83 201 -7 q 74 336 74 172 q 136 592 74 507 q 333 678 199 678 q 531 592 468 678 q 594 336 594 507 q 531 83 594 172 q 333 -7 467 -7 m 333 65 q 468 135 429 65 q 507 336 507 204 q 467 536 507 465 q 333 607 428 607 q 199 536 239 607 q 160 336 160 465 q 199 135 160 204 q 333 65 238 65 m 458 914 l 538 1060 l 647 1060 l 576 965 q 531 914 553 935 l 458 914 m 131 796 q 299 939 231 886 l 369 939 q 536 796 444 881 l 478 742 l 333 881 l 189 742 l 131 796 z "},"ộ":{"ha":667,"x_min":74,"x_max":594,"o":"m 333 -7 q 138 83 201 -7 q 74 336 74 172 q 136 592 74 507 q 333 678 199 678 q 531 592 468 678 q 594 336 594 507 q 531 83 594 172 q 333 -7 467 -7 m 333 65 q 468 135 429 65 q 507 336 507 204 q 467 536 507 465 q 333 607 428 607 q 199 536 239 607 q 160 336 160 465 q 199 135 160 204 q 333 65 238 65 m 288 -190 l 288 -86 l 381 -86 l 381 -190 l 288 -190 m 131 815 q 161 850 132 817 q 299 993 246 943 l 369 993 q 497 860 403 960 l 536 815 l 478 761 l 333 922 l 189 761 l 131 815 z "},"ồ":{"ha":667,"x_min":74,"x_max":594,"o":"m 333 -7 q 138 83 201 -7 q 74 336 74 172 q 136 592 74 507 q 333 678 199 678 q 531 592 468 678 q 594 336 594 507 q 531 83 594 172 q 333 -7 467 -7 m 333 65 q 468 135 429 65 q 507 336 507 204 q 467 536 507 465 q 333 607 428 607 q 199 536 239 607 q 160 336 160 465 q 199 135 160 204 q 333 65 238 65 m 494 914 q 449 965 472 935 l 378 1060 l 486 1060 l 565 914 l 494 914 m 131 796 q 299 939 231 886 l 369 939 q 536 796 444 881 l 478 742 l 333 881 l 189 742 l 131 796 z "},"ổ":{"ha":667,"x_min":74,"x_max":639,"o":"m 333 -7 q 138 83 201 -7 q 74 336 74 172 q 136 592 74 507 q 333 678 199 678 q 531 592 468 678 q 594 336 594 507 q 531 83 594 172 q 333 -7 467 -7 m 333 65 q 468 135 429 65 q 507 336 507 204 q 467 536 507 465 q 333 607 428 607 q 199 536 239 607 q 160 336 160 465 q 199 135 160 204 q 333 65 238 65 m 456 963 q 533 981 504 967 q 561 1031 561 994 q 546 1067 561 1054 q 503 1081 531 1081 q 442 1068 474 1081 l 432 1122 q 526 1142 478 1142 q 609 1114 579 1142 q 639 1038 639 1086 q 607 960 639 985 q 519 929 575 935 l 524 897 l 456 897 l 456 963 m 131 796 q 299 939 231 886 l 369 939 q 536 796 444 881 l 478 742 l 333 881 l 189 742 l 131 796 z "},"ỗ":{"ha":667,"x_min":74,"x_max":594,"o":"m 333 -7 q 138 83 201 -7 q 74 336 74 172 q 136 592 74 507 q 333 678 199 678 q 531 592 468 678 q 594 336 594 507 q 531 83 594 172 q 333 -7 467 -7 m 333 65 q 468 135 429 65 q 507 336 507 204 q 467 536 507 465 q 333 607 428 607 q 199 536 239 607 q 160 336 160 465 q 199 135 160 204 q 333 65 238 65 m 428 971 q 382 979 404 971 q 331 1004 360 988 q 285 1025 301 1018 q 251 1032 268 1032 q 213 1019 231 1032 q 172 972 196 1006 l 118 1003 q 181 1088 153 1064 q 244 1111 208 1111 q 291 1102 268 1111 q 342 1078 314 1093 q 421 1049 392 1049 q 456 1062 440 1049 q 496 1110 471 1075 l 550 1079 q 494 996 522 1021 q 428 971 465 971 m 131 796 q 299 939 231 886 l 369 939 q 536 796 444 881 l 478 742 l 333 881 l 189 742 l 131 796 z "},"ȍ":{"ha":667,"x_min":58,"x_max":594,"o":"m 333 -7 q 138 83 201 -7 q 74 336 74 172 q 136 592 74 507 q 333 678 199 678 q 531 592 468 678 q 594 336 594 507 q 531 83 594 172 q 333 -7 467 -7 m 333 65 q 468 135 429 65 q 507 336 507 204 q 467 536 507 465 q 333 607 428 607 q 199 536 239 607 q 160 336 160 465 q 199 135 160 204 q 333 65 238 65 m 260 742 q 125 871 147 843 l 58 951 l 131 1006 l 296 775 l 260 742 m 465 742 q 331 871 363 832 l 263 951 l 335 1006 l 501 775 l 465 742 z "},"ö":{"ha":667,"x_min":74,"x_max":594,"o":"m 333 -7 q 138 83 201 -7 q 74 336 74 172 q 136 592 74 507 q 333 678 199 678 q 531 592 468 678 q 594 336 594 507 q 531 83 594 172 q 333 -7 467 -7 m 333 65 q 468 135 429 65 q 507 336 507 204 q 467 536 507 465 q 333 607 428 607 q 199 536 239 607 q 160 336 160 465 q 199 135 160 204 q 333 65 238 65 m 181 776 l 181 863 l 275 863 l 275 776 l 181 776 m 393 776 l 393 863 l 486 863 l 486 776 l 393 776 z "},"ȫ":{"ha":667,"x_min":74,"x_max":594,"o":"m 333 -7 q 138 83 201 -7 q 74 336 74 172 q 136 592 74 507 q 333 678 199 678 q 531 592 468 678 q 594 336 594 507 q 531 83 594 172 q 333 -7 467 -7 m 333 65 q 468 135 429 65 q 507 336 507 204 q 467 536 507 465 q 333 607 428 607 q 199 536 239 607 q 160 336 160 465 q 199 135 160 204 q 333 65 238 65 m 181 776 l 181 863 l 275 863 l 275 776 l 181 776 m 393 776 l 393 863 l 486 863 l 486 776 l 393 776 m 171 978 l 171 1050 l 497 1050 l 497 978 l 171 978 z "},"ȱ":{"ha":667,"x_min":74,"x_max":594,"o":"m 333 -7 q 138 83 201 -7 q 74 336 74 172 q 136 592 74 507 q 333 678 199 678 q 531 592 468 678 q 594 336 594 507 q 531 83 594 172 q 333 -7 467 -7 m 333 65 q 468 135 429 65 q 507 336 507 204 q 467 536 507 465 q 333 607 428 607 q 199 536 239 607 q 160 336 160 465 q 199 135 160 204 q 333 65 238 65 m 288 782 l 288 886 l 381 886 l 381 782 l 288 782 m 171 992 l 171 1064 l 497 1064 l 497 992 l 171 992 z "},"ọ":{"ha":667,"x_min":74,"x_max":594,"o":"m 333 -7 q 138 83 201 -7 q 74 336 74 172 q 136 592 74 507 q 333 678 199 678 q 531 592 468 678 q 594 336 594 507 q 531 83 594 172 q 333 -7 467 -7 m 333 65 q 468 135 429 65 q 507 336 507 204 q 467 536 507 465 q 333 607 428 607 q 199 536 239 607 q 160 336 160 465 q 199 135 160 204 q 333 65 238 65 m 288 -190 l 288 -86 l 381 -86 l 381 -190 l 288 -190 z "},"ò":{"ha":667,"x_min":74,"x_max":594,"o":"m 333 -7 q 138 83 201 -7 q 74 336 74 172 q 136 592 74 507 q 333 678 199 678 q 531 592 468 678 q 594 336 594 507 q 531 83 594 172 q 333 -7 467 -7 m 333 65 q 468 135 429 65 q 507 336 507 204 q 467 536 507 465 q 333 607 428 607 q 199 536 239 607 q 160 336 160 465 q 199 135 160 204 q 333 65 238 65 m 417 744 q 351 804 400 758 q 282 874 301 850 l 214 954 l 286 1010 l 453 778 l 417 744 z "},"ỏ":{"ha":667,"x_min":74,"x_max":594,"o":"m 333 -7 q 138 83 201 -7 q 74 336 74 172 q 136 592 74 507 q 333 678 199 678 q 531 592 468 678 q 594 336 594 507 q 531 83 594 172 q 333 -7 467 -7 m 333 65 q 468 135 429 65 q 507 336 507 204 q 467 536 507 465 q 333 607 428 607 q 199 536 239 607 q 160 336 160 465 q 199 135 160 204 q 333 65 238 65 m 297 817 q 379 835 349 821 q 410 888 410 850 q 394 924 410 911 q 350 936 378 936 q 283 922 321 936 l 274 976 q 367 997 322 997 q 456 969 424 997 q 488 893 488 942 q 361 783 488 796 l 368 739 l 297 739 l 297 817 z "},"ơ":{"ha":667,"x_min":74,"x_max":694,"o":"m 694 665 q 660 579 694 613 q 567 524 626 546 q 594 336 594 444 q 531 83 594 172 q 333 -7 467 -7 q 138 83 201 -7 q 74 336 74 172 q 136 592 74 507 q 333 678 199 678 q 543 574 482 678 q 592 613 576 590 q 608 671 608 636 q 593 732 608 701 l 683 732 q 694 665 694 703 m 333 65 q 468 135 429 65 q 507 336 507 204 q 467 536 507 465 q 333 607 428 607 q 199 536 239 607 q 160 336 160 465 q 199 135 160 204 q 333 65 238 65 z "},"ớ":{"ha":667,"x_min":74,"x_max":694,"o":"m 694 665 q 660 579 694 613 q 567 524 626 546 q 594 336 594 444 q 531 83 594 172 q 333 -7 467 -7 q 138 83 201 -7 q 74 336 74 172 q 136 592 74 507 q 333 678 199 678 q 543 574 482 678 q 592 613 576 590 q 608 671 608 636 q 593 732 608 701 l 683 732 q 694 665 694 703 m 333 65 q 468 135 429 65 q 507 336 507 204 q 467 536 507 465 q 333 607 428 607 q 199 536 239 607 q 160 336 160 465 q 199 135 160 204 q 333 65 238 65 m 235 778 l 401 1010 l 474 954 l 407 881 q 338 808 388 856 q 271 744 288 760 l 235 778 z "},"ợ":{"ha":667,"x_min":74,"x_max":694,"o":"m 694 665 q 660 579 694 613 q 567 524 626 546 q 594 336 594 444 q 531 83 594 172 q 333 -7 467 -7 q 138 83 201 -7 q 74 336 74 172 q 136 592 74 507 q 333 678 199 678 q 543 574 482 678 q 592 613 576 590 q 608 671 608 636 q 593 732 608 701 l 683 732 q 694 665 694 703 m 333 65 q 468 135 429 65 q 507 336 507 204 q 467 536 507 465 q 333 607 428 607 q 199 536 239 607 q 160 336 160 465 q 199 135 160 204 q 333 65 238 65 m 288 -190 l 288 -86 l 381 -86 l 381 -190 l 288 -190 z "},"ờ":{"ha":667,"x_min":74,"x_max":694,"o":"m 694 665 q 660 579 694 613 q 567 524 626 546 q 594 336 594 444 q 531 83 594 172 q 333 -7 467 -7 q 138 83 201 -7 q 74 336 74 172 q 136 592 74 507 q 333 678 199 678 q 543 574 482 678 q 592 613 576 590 q 608 671 608 636 q 593 732 608 701 l 683 732 q 694 665 694 703 m 333 65 q 468 135 429 65 q 507 336 507 204 q 467 536 507 465 q 333 607 428 607 q 199 536 239 607 q 160 336 160 465 q 199 135 160 204 q 333 65 238 65 m 417 744 q 351 804 400 758 q 282 874 301 850 l 214 954 l 286 1010 l 453 778 l 417 744 z "},"ở":{"ha":667,"x_min":74,"x_max":694,"o":"m 694 665 q 660 579 694 613 q 567 524 626 546 q 594 336 594 444 q 531 83 594 172 q 333 -7 467 -7 q 138 83 201 -7 q 74 336 74 172 q 136 592 74 507 q 333 678 199 678 q 543 574 482 678 q 592 613 576 590 q 608 671 608 636 q 593 732 608 701 l 683 732 q 694 665 694 703 m 333 65 q 468 135 429 65 q 507 336 507 204 q 467 536 507 465 q 333 607 428 607 q 199 536 239 607 q 160 336 160 465 q 199 135 160 204 q 333 65 238 65 m 297 817 q 379 835 349 821 q 410 888 410 850 q 394 924 410 911 q 350 936 378 936 q 283 922 321 936 l 274 976 q 367 997 322 997 q 456 969 424 997 q 488 893 488 942 q 361 783 488 796 l 368 739 l 297 739 l 297 817 z "},"ỡ":{"ha":667,"x_min":74,"x_max":694,"o":"m 694 665 q 660 579 694 613 q 567 524 626 546 q 594 336 594 444 q 531 83 594 172 q 333 -7 467 -7 q 138 83 201 -7 q 74 336 74 172 q 136 592 74 507 q 333 678 199 678 q 543 574 482 678 q 592 613 576 590 q 608 671 608 636 q 593 732 608 701 l 683 732 q 694 665 694 703 m 333 65 q 468 135 429 65 q 507 336 507 204 q 467 536 507 465 q 333 607 428 607 q 199 536 239 607 q 160 336 160 465 q 199 135 160 204 q 333 65 238 65 m 118 819 l 119 819 q 173 907 149 882 q 231 932 197 932 q 280 922 251 932 q 357 892 308 913 q 391 878 364 889 q 433 868 418 868 q 463 881 450 868 q 496 926 475 893 l 550 896 q 497 815 524 839 q 435 790 471 790 q 313 826 396 790 q 269 845 289 838 q 238 853 250 853 q 206 838 219 853 q 172 788 192 824 l 118 819 z "},"ő":{"ha":667,"x_min":74,"x_max":608,"o":"m 333 -7 q 138 83 201 -7 q 74 336 74 172 q 136 592 74 507 q 333 678 199 678 q 531 592 468 678 q 594 336 594 507 q 531 83 594 172 q 333 -7 467 -7 m 333 65 q 468 135 429 65 q 507 336 507 204 q 467 536 507 465 q 333 607 428 607 q 199 536 239 607 q 160 336 160 465 q 199 135 160 204 q 333 65 238 65 m 169 768 l 335 1000 l 407 944 l 342 871 q 272 799 322 847 q 206 735 222 750 l 169 768 m 369 768 l 536 1000 l 608 944 l 542 871 q 472 799 522 847 q 406 735 422 750 l 369 768 z "},"ȏ":{"ha":667,"x_min":74,"x_max":594,"o":"m 333 -7 q 138 83 201 -7 q 74 336 74 172 q 136 592 74 507 q 333 678 199 678 q 531 592 468 678 q 594 336 594 507 q 531 83 594 172 q 333 -7 467 -7 m 333 65 q 468 135 429 65 q 507 336 507 204 q 467 536 507 465 q 333 607 428 607 q 199 536 239 607 q 160 336 160 465 q 199 135 160 204 q 333 65 238 65 m 149 817 q 235 894 193 871 q 333 918 278 918 q 431 894 389 918 q 518 817 474 871 l 465 769 q 403 826 433 808 q 333 843 374 843 q 263 826 293 843 q 201 769 233 808 l 149 817 z "},"ō":{"ha":667,"x_min":74,"x_max":594,"o":"m 333 -7 q 138 83 201 -7 q 74 336 74 172 q 136 592 74 507 q 333 678 199 678 q 531 592 468 678 q 594 336 594 507 q 531 83 594 172 q 333 -7 467 -7 m 333 65 q 468 135 429 65 q 507 336 507 204 q 467 536 507 465 q 333 607 428 607 q 199 536 239 607 q 160 336 160 465 q 199 135 160 204 q 333 65 238 65 m 171 774 l 171 846 l 497 846 l 497 774 l 171 774 z "},"ǫ":{"ha":667,"x_min":74,"x_max":594,"o":"m 454 18 q 387 -35 417 -4 q 357 -101 357 -67 q 372 -139 357 -126 q 411 -151 386 -151 q 445 -147 428 -151 q 472 -137 463 -143 l 482 -192 q 397 -210 444 -210 q 318 -186 349 -210 q 288 -117 288 -162 q 358 -6 288 -61 q 333 -7 350 -7 q 138 83 201 -7 q 74 336 74 172 q 136 592 74 507 q 333 678 199 678 q 531 592 468 678 q 594 336 594 507 q 454 18 594 89 m 160 336 q 199 135 160 204 q 333 65 238 65 q 468 135 429 65 q 507 336 507 204 q 467 536 507 465 q 333 607 428 607 q 199 536 239 607 q 160 336 160 465 z "},"ø":{"ha":689,"x_min":74,"x_max":594,"o":"m 493 632 q 594 336 594 553 q 531 83 594 172 q 333 -7 467 -7 q 232 11 274 -7 l 193 -81 l 144 -61 l 185 35 q 74 336 74 115 q 136 592 74 507 q 333 678 199 678 q 447 658 396 678 l 485 749 l 533 729 l 493 632 m 160 336 q 217 111 160 174 l 417 588 q 333 607 382 607 q 199 536 239 607 q 160 336 160 465 m 333 65 q 468 135 429 65 q 507 336 507 204 q 458 550 507 485 l 260 79 q 333 65 289 65 z "},"ǿ":{"ha":689,"x_min":74,"x_max":594,"o":"m 493 632 q 594 336 594 553 q 531 83 594 172 q 333 -7 467 -7 q 232 11 274 -7 l 193 -81 l 144 -61 l 185 35 q 74 336 74 115 q 136 592 74 507 q 333 678 199 678 q 447 658 396 678 l 485 749 l 533 729 l 493 632 m 160 336 q 217 111 160 174 l 417 588 q 333 607 382 607 q 199 536 239 607 q 160 336 160 465 m 333 65 q 468 135 429 65 q 507 336 507 204 q 458 550 507 485 l 260 79 q 333 65 289 65 m 235 778 l 401 1010 l 474 954 l 407 881 q 338 808 388 856 q 271 744 288 760 l 235 778 z "},"õ":{"ha":667,"x_min":74,"x_max":594,"o":"m 333 -7 q 138 83 201 -7 q 74 336 74 172 q 136 592 74 507 q 333 678 199 678 q 531 592 468 678 q 594 336 594 507 q 531 83 594 172 q 333 -7 467 -7 m 333 65 q 468 135 429 65 q 507 336 507 204 q 467 536 507 465 q 333 607 428 607 q 199 536 239 607 q 160 336 160 465 q 199 135 160 204 q 333 65 238 65 m 118 819 l 119 819 q 173 907 149 882 q 231 932 197 932 q 280 922 251 932 q 357 892 308 913 q 391 878 364 889 q 433 868 418 868 q 463 881 450 868 q 496 926 475 893 l 550 896 q 497 815 524 839 q 435 790 471 790 q 313 826 396 790 q 269 845 289 838 q 238 853 250 853 q 206 838 219 853 q 172 788 192 824 l 118 819 z "},"ȭ":{"ha":667,"x_min":74,"x_max":594,"o":"m 333 -7 q 138 83 201 -7 q 74 336 74 172 q 136 592 74 507 q 333 678 199 678 q 531 592 468 678 q 594 336 594 507 q 531 83 594 172 q 333 -7 467 -7 m 333 65 q 468 135 429 65 q 507 336 507 204 q 467 536 507 465 q 333 607 428 607 q 199 536 239 607 q 160 336 160 465 q 199 135 160 204 q 333 65 238 65 m 118 819 l 119 819 q 173 907 149 882 q 231 932 197 932 q 280 922 251 932 q 357 892 308 913 q 391 878 364 889 q 433 868 418 868 q 463 881 450 868 q 496 926 475 893 l 550 896 q 497 815 524 839 q 435 790 471 790 q 313 826 396 790 q 269 845 289 838 q 238 853 250 853 q 206 838 219 853 q 172 788 192 824 l 118 819 m 171 1063 l 171 1135 l 497 1135 l 497 1063 l 171 1063 z "},"œ":{"ha":1088,"x_min":74,"x_max":1018,"o":"m 333 -7 q 138 83 201 -7 q 74 336 74 172 q 136 592 74 507 q 333 678 199 678 q 554 547 492 678 q 648 644 590 611 q 778 678 706 678 q 953 605 889 678 q 1018 410 1018 532 q 1013 318 1018 372 l 594 318 q 650 120 596 175 q 790 65 704 65 q 889 78 843 65 q 981 119 935 90 l 1007 51 q 903 8 960 22 q 794 -7 846 -7 q 651 28 714 -7 q 553 131 589 64 q 465 30 521 67 q 333 -7 410 -7 m 333 65 q 468 135 429 65 q 507 336 507 204 q 467 536 507 465 q 333 607 428 607 q 199 536 239 607 q 160 336 160 465 q 199 135 160 204 q 333 65 238 65 m 938 379 l 938 413 q 894 554 938 501 q 779 607 851 607 q 647 547 693 607 q 594 379 601 488 l 938 379 z "},"p":{"ha":665,"x_min":94,"x_max":594,"o":"m 94 668 l 167 668 l 174 621 q 270 665 224 653 q 367 678 317 678 q 533 594 472 678 q 594 335 594 510 q 533 73 594 153 q 346 -7 471 -7 q 182 29 254 -7 l 182 -264 l 94 -264 l 94 668 m 333 65 q 466 127 425 65 q 507 333 507 189 q 471 541 507 475 q 356 607 435 607 q 182 549 282 607 l 182 93 q 249 70 219 75 q 314 65 278 65 l 333 65 z "},"ṗ":{"ha":665,"x_min":94,"x_max":594,"o":"m 94 668 l 167 668 l 174 621 q 270 665 224 653 q 367 678 317 678 q 533 594 472 678 q 594 335 594 510 q 533 73 594 153 q 346 -7 471 -7 q 182 29 254 -7 l 182 -264 l 94 -264 l 94 668 m 333 65 q 466 127 425 65 q 507 333 507 189 q 471 541 507 475 q 356 607 435 607 q 182 549 282 607 l 182 93 q 249 70 219 75 q 314 65 278 65 l 333 65 m 288 782 l 288 886 l 381 886 l 381 782 l 288 782 z "},"þ":{"ha":665,"x_min":94,"x_max":594,"o":"m 94 882 l 182 882 l 182 621 q 274 665 229 653 q 367 678 319 678 q 533 594 472 678 q 594 335 594 510 q 533 73 594 153 q 346 -7 471 -7 q 182 29 254 -7 l 182 -264 l 94 -264 l 94 882 m 333 65 q 466 127 425 65 q 507 333 507 189 q 471 541 507 475 q 356 607 435 607 q 182 549 282 607 l 182 93 q 249 70 219 75 q 314 65 278 65 l 333 65 z "},"q":{"ha":667,"x_min":74,"x_max":572,"o":"m 486 29 q 326 -7 422 -7 q 138 74 201 -7 q 74 335 74 154 q 138 597 74 515 q 314 678 201 678 q 399 667 360 678 q 486 626 438 656 l 500 668 l 572 668 l 572 -264 l 486 -264 l 486 29 m 331 65 q 412 70 376 65 q 486 93 447 75 l 486 557 q 397 597 433 588 q 321 607 361 607 q 160 333 160 607 q 199 127 160 189 q 331 65 239 65 z "},"r":{"ha":442,"x_min":99,"x_max":400,"o":"m 99 668 l 182 668 l 185 610 q 285 656 224 636 q 400 678 347 675 l 400 606 q 280 588 340 606 q 186 546 219 569 l 186 0 l 99 0 l 99 668 z "},"ŕ":{"ha":442,"x_min":99,"x_max":400,"o":"m 99 668 l 182 668 l 185 610 q 285 656 224 636 q 400 678 347 675 l 400 606 q 280 588 340 606 q 186 546 219 569 l 186 0 l 99 0 l 99 668 m 147 778 l 314 1010 l 386 954 l 319 881 q 250 808 300 856 q 183 744 200 760 l 147 778 z "},"ř":{"ha":442,"x_min":57,"x_max":436,"o":"m 99 668 l 182 668 l 185 610 q 285 656 224 636 q 400 678 347 675 l 400 606 q 280 588 340 606 q 186 546 219 569 l 186 0 l 99 0 l 99 668 m 246 749 q 211 768 228 749 q 57 958 113 883 l 117 1000 l 246 825 l 376 1000 l 436 958 q 281 768 375 875 q 246 749 265 749 z "},"ŗ":{"ha":442,"x_min":88,"x_max":400,"o":"m 99 668 l 182 668 l 185 610 q 285 656 224 636 q 400 678 347 675 l 400 606 q 280 588 340 606 q 186 546 219 569 l 186 0 l 99 0 l 99 668 m 199 -85 l 199 -162 q 129 -312 199 -247 l 92 -282 q 133 -189 129 -237 l 88 -189 l 88 -85 l 199 -85 z "},"ȑ":{"ha":442,"x_min":-29,"x_max":414,"o":"m 99 668 l 182 668 l 185 610 q 285 656 224 636 q 400 678 347 675 l 400 606 q 280 588 340 606 q 186 546 219 569 l 186 0 l 99 0 l 99 668 m 172 742 q 38 871 60 843 l -29 951 l 43 1006 l 208 775 l 172 742 m 378 742 q 243 871 275 832 l 175 951 l 247 1006 l 414 775 l 378 742 z "},"ȓ":{"ha":442,"x_min":61,"x_max":431,"o":"m 99 668 l 182 668 l 185 610 q 285 656 224 636 q 400 678 347 675 l 400 606 q 280 588 340 606 q 186 546 219 569 l 186 0 l 99 0 l 99 668 m 61 817 q 148 894 106 871 q 246 918 190 918 q 344 894 301 918 q 431 817 386 871 l 378 769 q 316 826 346 808 q 246 843 286 843 q 176 826 206 843 q 114 769 146 808 l 61 817 z "},"s":{"ha":568,"x_min":74,"x_max":517,"o":"m 297 -7 q 184 8 243 -7 q 74 47 125 22 l 101 114 q 190 80 136 94 q 293 65 243 65 q 394 92 356 65 q 432 179 432 119 q 410 250 432 226 q 343 289 389 274 l 242 319 q 153 357 186 338 q 101 410 119 376 q 83 499 83 444 q 146 633 83 589 q 303 678 208 678 q 483 639 401 678 l 458 574 q 387 598 426 589 q 310 607 347 607 q 207 580 247 607 q 167 494 167 553 q 178 447 167 464 q 208 421 189 431 q 267 399 228 411 l 367 367 q 483 301 449 340 q 517 183 517 263 q 455 39 517 85 q 297 -7 393 -7 z "},"ś":{"ha":568,"x_min":74,"x_max":517,"o":"m 297 -7 q 184 8 243 -7 q 74 47 125 22 l 101 114 q 190 80 136 94 q 293 65 243 65 q 394 92 356 65 q 432 179 432 119 q 410 250 432 226 q 343 289 389 274 l 242 319 q 153 357 186 338 q 101 410 119 376 q 83 499 83 444 q 146 633 83 589 q 303 678 208 678 q 483 639 401 678 l 458 574 q 387 598 426 589 q 310 607 347 607 q 207 580 247 607 q 167 494 167 553 q 178 447 167 464 q 208 421 189 431 q 267 399 228 411 l 367 367 q 483 301 449 340 q 517 183 517 263 q 455 39 517 85 q 297 -7 393 -7 m 186 778 l 353 1010 l 425 954 l 358 881 q 289 808 339 856 q 222 744 239 760 l 186 778 z "},"š":{"ha":568,"x_min":74,"x_max":517,"o":"m 297 -7 q 184 8 243 -7 q 74 47 125 22 l 101 114 q 190 80 136 94 q 293 65 243 65 q 394 92 356 65 q 432 179 432 119 q 410 250 432 226 q 343 289 389 274 l 242 319 q 153 357 186 338 q 101 410 119 376 q 83 499 83 444 q 146 633 83 589 q 303 678 208 678 q 483 639 401 678 l 458 574 q 387 598 426 589 q 310 607 347 607 q 207 580 247 607 q 167 494 167 553 q 178 447 167 464 q 208 421 189 431 q 267 399 228 411 l 367 367 q 483 301 449 340 q 517 183 517 263 q 455 39 517 85 q 297 -7 393 -7 m 285 749 q 250 768 267 749 q 96 958 151 883 l 156 1000 l 285 825 l 415 1000 l 475 958 q 319 768 414 875 q 285 749 304 749 z "},"ş":{"ha":568,"x_min":74,"x_max":517,"o":"m 517 183 q 460 42 517 89 q 313 -7 403 -4 l 307 -46 q 400 -71 367 -46 q 433 -142 433 -96 q 398 -234 433 -203 q 308 -265 363 -265 q 218 -244 264 -265 l 229 -190 q 294 -207 263 -207 q 340 -192 324 -207 q 357 -146 357 -176 q 341 -104 357 -118 q 306 -87 325 -90 q 242 -79 288 -83 l 243 -3 q 74 47 154 8 l 101 114 q 190 80 136 94 q 293 65 243 65 q 394 92 356 65 q 432 179 432 119 q 410 250 432 226 q 343 289 389 274 l 242 319 q 153 357 186 338 q 101 410 119 376 q 83 499 83 444 q 146 633 83 589 q 303 678 208 678 q 483 639 401 678 l 458 574 q 387 598 426 589 q 310 607 347 607 q 207 580 247 607 q 167 494 167 553 q 178 447 167 464 q 208 421 189 431 q 267 399 228 411 l 367 367 q 483 301 449 340 q 517 183 517 263 z "},"ŝ":{"ha":568,"x_min":74,"x_max":517,"o":"m 297 -7 q 184 8 243 -7 q 74 47 125 22 l 101 114 q 190 80 136 94 q 293 65 243 65 q 394 92 356 65 q 432 179 432 119 q 410 250 432 226 q 343 289 389 274 l 242 319 q 153 357 186 338 q 101 410 119 376 q 83 499 83 444 q 146 633 83 589 q 303 678 208 678 q 483 639 401 678 l 458 574 q 387 598 426 589 q 310 607 347 607 q 207 580 247 607 q 167 494 167 553 q 178 447 167 464 q 208 421 189 431 q 267 399 228 411 l 367 367 q 483 301 449 340 q 517 183 517 263 q 455 39 517 85 q 297 -7 393 -7 m 82 815 q 113 850 83 817 q 250 993 197 943 l 321 993 q 449 860 354 960 l 488 815 l 429 761 l 285 922 l 140 761 l 82 815 z "},"ș":{"ha":568,"x_min":74,"x_max":517,"o":"m 297 -7 q 184 8 243 -7 q 74 47 125 22 l 101 114 q 190 80 136 94 q 293 65 243 65 q 394 92 356 65 q 432 179 432 119 q 410 250 432 226 q 343 289 389 274 l 242 319 q 153 357 186 338 q 101 410 119 376 q 83 499 83 444 q 146 633 83 589 q 303 678 208 678 q 483 639 401 678 l 458 574 q 387 598 426 589 q 310 607 347 607 q 207 580 247 607 q 167 494 167 553 q 178 447 167 464 q 208 421 189 431 q 267 399 228 411 l 367 367 q 483 301 449 340 q 517 183 517 263 q 455 39 517 85 q 297 -7 393 -7 m 340 -85 l 340 -162 q 271 -312 340 -247 l 233 -282 q 275 -189 271 -237 l 229 -189 l 229 -85 l 340 -85 z "},"ṡ":{"ha":568,"x_min":74,"x_max":517,"o":"m 297 -7 q 184 8 243 -7 q 74 47 125 22 l 101 114 q 190 80 136 94 q 293 65 243 65 q 394 92 356 65 q 432 179 432 119 q 410 250 432 226 q 343 289 389 274 l 242 319 q 153 357 186 338 q 101 410 119 376 q 83 499 83 444 q 146 633 83 589 q 303 678 208 678 q 483 639 401 678 l 458 574 q 387 598 426 589 q 310 607 347 607 q 207 580 247 607 q 167 494 167 553 q 178 447 167 464 q 208 421 189 431 q 267 399 228 411 l 367 367 q 483 301 449 340 q 517 183 517 263 q 455 39 517 85 q 297 -7 393 -7 m 239 782 l 239 886 l 332 886 l 332 782 l 239 782 z "},"ß":{"ha":676,"x_min":90,"x_max":633,"o":"m 422 -7 q 258 44 336 -7 l 283 106 q 414 64 349 64 q 508 95 472 64 q 544 189 544 126 q 508 274 544 244 q 403 332 472 303 q 310 383 340 360 q 279 450 279 407 q 304 519 279 489 q 367 571 329 549 q 469 625 404 593 q 457 735 469 696 q 413 792 444 774 q 324 810 382 810 q 211 762 246 810 q 176 611 176 714 l 176 0 l 90 0 l 90 618 q 149 817 90 751 q 326 882 207 882 q 471 849 419 882 q 542 751 522 815 q 563 579 563 686 q 364 457 364 515 q 386 421 364 436 q 454 385 408 406 q 544 337 508 360 q 607 276 581 314 q 633 183 633 238 q 573 42 633 90 q 422 -7 513 -7 z "},"t":{"ha":503,"x_min":38,"x_max":449,"o":"m 319 -7 q 210 24 249 -6 q 156 110 171 53 q 142 263 142 167 l 142 607 l 38 607 l 38 668 l 144 668 l 161 860 l 229 860 l 229 668 l 438 668 l 438 607 l 229 607 l 229 261 q 242 133 229 175 q 278 78 256 92 q 343 65 301 65 q 444 69 418 65 l 449 0 q 319 -7 394 -7 z "},"ŧ":{"ha":503,"x_min":38,"x_max":449,"o":"m 319 -7 q 210 24 249 -6 q 156 110 171 53 q 142 263 142 167 l 142 374 l 49 374 l 49 436 l 142 436 l 142 607 l 38 607 l 38 668 l 144 668 l 161 860 l 229 860 l 229 668 l 438 668 l 438 607 l 229 607 l 229 436 l 379 436 l 379 374 l 229 374 l 229 261 q 242 133 229 175 q 278 78 256 92 q 343 65 301 65 q 444 69 418 65 l 449 0 q 319 -7 394 -7 z "},"ť":{"ha":503,"x_min":38,"x_max":449,"o":"m 319 -7 q 210 24 249 -6 q 156 110 171 53 q 142 263 142 167 l 142 607 l 38 607 l 38 668 l 144 668 l 161 860 l 229 860 l 229 668 l 438 668 l 438 607 l 229 607 l 229 261 q 242 133 229 175 q 278 78 256 92 q 343 65 301 65 q 444 69 418 65 l 449 0 q 319 -7 394 -7 m 431 968 l 431 889 q 363 739 431 807 l 324 771 q 367 863 363 815 l 321 863 l 321 968 l 431 968 z "},"ţ":{"ha":503,"x_min":38,"x_max":471,"o":"m 344 -46 q 438 -71 404 -46 q 471 -142 471 -96 q 435 -234 471 -203 q 346 -265 400 -265 q 256 -244 301 -265 l 267 -190 q 332 -207 300 -207 q 378 -192 361 -207 q 394 -146 394 -176 q 378 -104 394 -118 q 344 -87 363 -90 q 279 -79 325 -83 l 281 -4 q 171 71 200 8 q 142 263 142 133 l 142 607 l 38 607 l 38 668 l 144 668 l 161 860 l 229 860 l 229 668 l 438 668 l 438 607 l 229 607 l 229 261 q 242 133 229 175 q 278 78 256 92 q 343 65 301 65 q 444 69 418 65 l 449 0 q 350 -7 417 -4 l 344 -46 z "},"ț":{"ha":503,"x_min":38,"x_max":449,"o":"m 319 -7 q 210 24 249 -6 q 156 110 171 53 q 142 263 142 167 l 142 607 l 38 607 l 38 668 l 144 668 l 161 860 l 229 860 l 229 668 l 438 668 l 438 607 l 229 607 l 229 261 q 242 133 229 175 q 278 78 256 92 q 343 65 301 65 q 444 69 418 65 l 449 0 q 319 -7 394 -7 m 361 -85 l 361 -162 q 292 -312 361 -247 l 254 -282 q 296 -189 292 -237 l 250 -189 l 250 -85 l 361 -85 z "},"ṫ":{"ha":503,"x_min":38,"x_max":449,"o":"m 319 -7 q 210 24 249 -6 q 156 110 171 53 q 142 263 142 167 l 142 607 l 38 607 l 38 668 l 144 668 l 161 860 l 229 860 l 229 668 l 438 668 l 438 607 l 229 607 l 229 261 q 242 133 229 175 q 278 78 256 92 q 343 65 301 65 q 444 69 418 65 l 449 0 q 319 -7 394 -7 m 283 974 l 283 1078 l 376 1078 l 376 974 l 283 974 z "},"u":{"ha":668,"x_min":88,"x_max":574,"o":"m 286 -7 q 135 47 183 -7 q 88 218 88 101 l 88 668 l 174 668 l 174 214 q 200 99 174 133 q 294 65 226 65 q 391 73 349 65 q 486 111 433 81 l 486 668 l 574 668 l 574 0 l 501 0 l 496 43 q 386 3 432 13 q 286 -7 340 -7 z "},"ú":{"ha":668,"x_min":88,"x_max":574,"o":"m 286 -7 q 135 47 183 -7 q 88 218 88 101 l 88 668 l 174 668 l 174 214 q 200 99 174 133 q 294 65 226 65 q 391 73 349 65 q 486 111 433 81 l 486 668 l 574 668 l 574 0 l 501 0 l 496 43 q 386 3 432 13 q 286 -7 340 -7 m 236 778 l 403 1010 l 475 954 l 408 881 q 339 808 389 856 q 272 744 289 760 l 236 778 z "},"ŭ":{"ha":668,"x_min":88,"x_max":574,"o":"m 286 -7 q 135 47 183 -7 q 88 218 88 101 l 88 668 l 174 668 l 174 214 q 200 99 174 133 q 294 65 226 65 q 391 73 349 65 q 486 111 433 81 l 486 668 l 574 668 l 574 0 l 501 0 l 496 43 q 386 3 432 13 q 286 -7 340 -7 m 335 767 q 237 790 279 767 q 151 868 194 814 l 203 915 q 266 860 236 878 q 335 842 296 842 q 405 860 375 842 q 468 915 435 878 l 519 868 q 434 790 476 814 q 335 767 392 767 z "},"û":{"ha":668,"x_min":88,"x_max":574,"o":"m 286 -7 q 135 47 183 -7 q 88 218 88 101 l 88 668 l 174 668 l 174 214 q 200 99 174 133 q 294 65 226 65 q 391 73 349 65 q 486 111 433 81 l 486 668 l 574 668 l 574 0 l 501 0 l 496 43 q 386 3 432 13 q 286 -7 340 -7 m 132 815 q 163 850 133 817 q 300 993 247 943 l 371 993 q 499 860 404 960 l 538 815 l 479 761 l 335 922 l 190 761 l 132 815 z "},"ȕ":{"ha":668,"x_min":60,"x_max":574,"o":"m 286 -7 q 135 47 183 -7 q 88 218 88 101 l 88 668 l 174 668 l 174 214 q 200 99 174 133 q 294 65 226 65 q 391 73 349 65 q 486 111 433 81 l 486 668 l 574 668 l 574 0 l 501 0 l 496 43 q 386 3 432 13 q 286 -7 340 -7 m 261 742 q 126 871 149 843 l 60 951 l 132 1006 l 297 775 l 261 742 m 467 742 q 332 871 364 832 l 264 951 l 336 1006 l 503 775 l 467 742 z "},"ü":{"ha":668,"x_min":88,"x_max":574,"o":"m 286 -7 q 135 47 183 -7 q 88 218 88 101 l 88 668 l 174 668 l 174 214 q 200 99 174 133 q 294 65 226 65 q 391 73 349 65 q 486 111 433 81 l 486 668 l 574 668 l 574 0 l 501 0 l 496 43 q 386 3 432 13 q 286 -7 340 -7 m 182 776 l 182 863 l 276 863 l 276 776 l 182 776 m 394 776 l 394 863 l 488 863 l 488 776 l 394 776 z "},"ụ":{"ha":668,"x_min":88,"x_max":574,"o":"m 286 -7 q 135 47 183 -7 q 88 218 88 101 l 88 668 l 174 668 l 174 214 q 200 99 174 133 q 294 65 226 65 q 391 73 349 65 q 486 111 433 81 l 486 668 l 574 668 l 574 0 l 501 0 l 496 43 q 386 3 432 13 q 286 -7 340 -7 m 289 -190 l 289 -86 l 382 -86 l 382 -190 l 289 -190 z "},"ù":{"ha":668,"x_min":88,"x_max":574,"o":"m 286 -7 q 135 47 183 -7 q 88 218 88 101 l 88 668 l 174 668 l 174 214 q 200 99 174 133 q 294 65 226 65 q 391 73 349 65 q 486 111 433 81 l 486 668 l 574 668 l 574 0 l 501 0 l 496 43 q 386 3 432 13 q 286 -7 340 -7 m 418 744 q 352 804 401 758 q 283 874 303 850 l 215 954 l 288 1010 l 454 778 l 418 744 z "},"ủ":{"ha":668,"x_min":88,"x_max":574,"o":"m 286 -7 q 135 47 183 -7 q 88 218 88 101 l 88 668 l 174 668 l 174 214 q 200 99 174 133 q 294 65 226 65 q 391 73 349 65 q 486 111 433 81 l 486 668 l 574 668 l 574 0 l 501 0 l 496 43 q 386 3 432 13 q 286 -7 340 -7 m 299 817 q 381 835 350 821 q 411 888 411 850 q 395 924 411 911 q 351 936 379 936 q 285 922 322 936 l 275 976 q 368 997 324 997 q 457 969 425 997 q 489 893 489 942 q 363 783 489 796 l 369 739 l 299 739 l 299 817 z "},"ư":{"ha":704,"x_min":88,"x_max":738,"o":"m 726 732 q 738 665 738 703 q 697 572 738 607 q 583 513 656 538 l 574 510 l 574 0 l 501 0 l 496 43 q 386 3 432 13 q 286 -7 340 -7 q 135 47 183 -7 q 88 218 88 101 l 88 668 l 174 668 l 174 214 q 200 99 174 133 q 294 65 226 65 q 391 73 349 65 q 486 111 433 81 l 486 668 l 574 668 l 574 568 l 576 569 q 633 610 614 586 q 651 671 651 633 q 636 732 651 701 l 726 732 z "},"ứ":{"ha":704,"x_min":88,"x_max":738,"o":"m 726 732 q 738 665 738 703 q 697 572 738 607 q 583 513 656 538 l 574 510 l 574 0 l 501 0 l 496 43 q 386 3 432 13 q 286 -7 340 -7 q 135 47 183 -7 q 88 218 88 101 l 88 668 l 174 668 l 174 214 q 200 99 174 133 q 294 65 226 65 q 391 73 349 65 q 486 111 433 81 l 486 668 l 574 668 l 574 568 l 576 569 q 633 610 614 586 q 651 671 651 633 q 636 732 651 701 l 726 732 m 236 778 l 403 1010 l 475 954 l 408 881 q 339 808 389 856 q 272 744 289 760 l 236 778 z "},"ự":{"ha":704,"x_min":88,"x_max":738,"o":"m 726 732 q 738 665 738 703 q 697 572 738 607 q 583 513 656 538 l 574 510 l 574 0 l 501 0 l 496 43 q 386 3 432 13 q 286 -7 340 -7 q 135 47 183 -7 q 88 218 88 101 l 88 668 l 174 668 l 174 214 q 200 99 174 133 q 294 65 226 65 q 391 73 349 65 q 486 111 433 81 l 486 668 l 574 668 l 574 568 l 576 569 q 633 610 614 586 q 651 671 651 633 q 636 732 651 701 l 726 732 m 289 -190 l 289 -86 l 382 -86 l 382 -190 l 289 -190 z "},"ừ":{"ha":704,"x_min":88,"x_max":738,"o":"m 726 732 q 738 665 738 703 q 697 572 738 607 q 583 513 656 538 l 574 510 l 574 0 l 501 0 l 496 43 q 386 3 432 13 q 286 -7 340 -7 q 135 47 183 -7 q 88 218 88 101 l 88 668 l 174 668 l 174 214 q 200 99 174 133 q 294 65 226 65 q 391 73 349 65 q 486 111 433 81 l 486 668 l 574 668 l 574 568 l 576 569 q 633 610 614 586 q 651 671 651 633 q 636 732 651 701 l 726 732 m 418 744 q 352 804 401 758 q 283 874 303 850 l 215 954 l 288 1010 l 454 778 l 418 744 z "},"ử":{"ha":704,"x_min":88,"x_max":738,"o":"m 726 732 q 738 665 738 703 q 697 572 738 607 q 583 513 656 538 l 574 510 l 574 0 l 501 0 l 496 43 q 386 3 432 13 q 286 -7 340 -7 q 135 47 183 -7 q 88 218 88 101 l 88 668 l 174 668 l 174 214 q 200 99 174 133 q 294 65 226 65 q 391 73 349 65 q 486 111 433 81 l 486 668 l 574 668 l 574 568 l 576 569 q 633 610 614 586 q 651 671 651 633 q 636 732 651 701 l 726 732 m 299 817 q 381 835 350 821 q 411 888 411 850 q 395 924 411 911 q 351 936 379 936 q 285 922 322 936 l 275 976 q 368 997 324 997 q 457 969 425 997 q 489 893 489 942 q 363 783 489 796 l 369 739 l 299 739 l 299 817 z "},"ữ":{"ha":704,"x_min":88,"x_max":738,"o":"m 726 732 q 738 665 738 703 q 697 572 738 607 q 583 513 656 538 l 574 510 l 574 0 l 501 0 l 496 43 q 386 3 432 13 q 286 -7 340 -7 q 135 47 183 -7 q 88 218 88 101 l 88 668 l 174 668 l 174 214 q 200 99 174 133 q 294 65 226 65 q 391 73 349 65 q 486 111 433 81 l 486 668 l 574 668 l 574 568 l 576 569 q 633 610 614 586 q 651 671 651 633 q 636 732 651 701 l 726 732 m 119 819 l 121 819 q 174 907 150 882 q 232 932 199 932 q 281 922 253 932 q 358 892 310 913 q 392 878 365 889 q 435 868 419 868 q 464 881 451 868 q 497 926 476 893 l 551 896 q 499 815 525 839 q 436 790 472 790 q 314 826 397 790 q 271 845 290 838 q 239 853 251 853 q 207 838 221 853 q 174 788 193 824 l 119 819 z "},"ű":{"ha":668,"x_min":88,"x_max":610,"o":"m 286 -7 q 135 47 183 -7 q 88 218 88 101 l 88 668 l 174 668 l 174 214 q 200 99 174 133 q 294 65 226 65 q 391 73 349 65 q 486 111 433 81 l 486 668 l 574 668 l 574 0 l 501 0 l 496 43 q 386 3 432 13 q 286 -7 340 -7 m 171 768 l 336 1000 l 408 944 l 343 871 q 274 799 324 847 q 207 735 224 750 l 171 768 m 371 768 l 538 1000 l 610 944 l 543 871 q 474 799 524 847 q 407 735 424 750 l 371 768 z "},"ȗ":{"ha":668,"x_min":88,"x_max":574,"o":"m 286 -7 q 135 47 183 -7 q 88 218 88 101 l 88 668 l 174 668 l 174 214 q 200 99 174 133 q 294 65 226 65 q 391 73 349 65 q 486 111 433 81 l 486 668 l 574 668 l 574 0 l 501 0 l 496 43 q 386 3 432 13 q 286 -7 340 -7 m 150 817 q 237 894 194 871 q 335 918 279 918 q 433 894 390 918 q 519 817 475 871 l 467 769 q 405 826 435 808 q 335 843 375 843 q 265 826 294 843 q 203 769 235 808 l 150 817 z "},"ū":{"ha":668,"x_min":88,"x_max":574,"o":"m 286 -7 q 135 47 183 -7 q 88 218 88 101 l 88 668 l 174 668 l 174 214 q 200 99 174 133 q 294 65 226 65 q 391 73 349 65 q 486 111 433 81 l 486 668 l 574 668 l 574 0 l 501 0 l 496 43 q 386 3 432 13 q 286 -7 340 -7 m 172 774 l 172 846 l 499 846 l 499 774 l 172 774 z "},"ų":{"ha":668,"x_min":88,"x_max":597,"o":"m 597 -212 q 513 -231 560 -231 q 433 -207 464 -231 q 403 -137 403 -183 q 433 -66 403 -103 q 515 0 463 -29 l 501 0 l 496 43 q 386 3 432 13 q 286 -7 340 -7 q 135 47 183 -7 q 88 218 88 101 l 88 668 l 174 668 l 174 214 q 200 99 174 133 q 294 65 226 65 q 391 73 349 65 q 486 111 433 81 l 486 668 l 574 668 l 574 0 q 503 -56 535 -24 q 472 -122 472 -87 q 487 -160 472 -147 q 526 -172 501 -172 q 560 -168 543 -172 q 588 -158 578 -164 l 597 -212 z "},"ů":{"ha":668,"x_min":88,"x_max":574,"o":"m 286 -7 q 135 47 183 -7 q 88 218 88 101 l 88 668 l 174 668 l 174 214 q 200 99 174 133 q 294 65 226 65 q 391 73 349 65 q 486 111 433 81 l 486 668 l 574 668 l 574 0 l 501 0 l 496 43 q 386 3 432 13 q 286 -7 340 -7 m 336 725 q 222 767 265 725 q 178 875 178 808 q 222 985 178 944 q 336 1026 265 1026 q 449 985 406 1026 q 493 875 493 943 q 449 766 493 807 q 336 725 404 725 m 336 782 q 403 808 378 782 q 428 875 428 833 q 403 944 428 919 q 336 969 379 969 q 268 944 293 969 q 243 875 243 918 q 268 807 243 832 q 336 782 293 782 z "},"ũ":{"ha":668,"x_min":88,"x_max":574,"o":"m 286 -7 q 135 47 183 -7 q 88 218 88 101 l 88 668 l 174 668 l 174 214 q 200 99 174 133 q 294 65 226 65 q 391 73 349 65 q 486 111 433 81 l 486 668 l 574 668 l 574 0 l 501 0 l 496 43 q 386 3 432 13 q 286 -7 340 -7 m 119 819 l 121 819 q 174 907 150 882 q 232 932 199 932 q 281 922 253 932 q 358 892 310 913 q 392 878 365 889 q 435 868 419 868 q 464 881 451 868 q 497 926 476 893 l 551 896 q 499 815 525 839 q 436 790 472 790 q 314 826 397 790 q 271 845 290 838 q 239 853 251 853 q 207 838 221 853 q 174 788 193 824 l 119 819 z "},"v":{"ha":618,"x_min":44,"x_max":575,"o":"m 267 0 l 44 668 l 132 668 l 314 93 l 486 668 l 575 668 l 360 0 l 267 0 z "},"w":{"ha":881,"x_min":44,"x_max":836,"o":"m 206 0 l 44 668 l 129 668 l 258 76 l 406 518 l 486 518 l 631 76 l 751 668 l 836 668 l 685 0 l 589 0 l 446 425 l 303 0 l 206 0 z "},"ẃ":{"ha":881,"x_min":44,"x_max":836,"o":"m 206 0 l 44 668 l 129 668 l 258 76 l 406 518 l 486 518 l 631 76 l 751 668 l 836 668 l 685 0 l 589 0 l 446 425 l 303 0 l 206 0 m 342 778 l 508 1010 l 581 954 l 514 881 q 444 808 494 856 q 378 744 394 760 l 342 778 z "},"ŵ":{"ha":881,"x_min":44,"x_max":836,"o":"m 206 0 l 44 668 l 129 668 l 258 76 l 406 518 l 486 518 l 631 76 l 751 668 l 836 668 l 685 0 l 589 0 l 446 425 l 303 0 l 206 0 m 238 815 q 268 850 239 817 q 406 993 353 943 l 476 993 q 604 860 510 960 l 643 815 l 585 761 l 440 922 l 296 761 l 238 815 z "},"ẅ":{"ha":881,"x_min":44,"x_max":836,"o":"m 206 0 l 44 668 l 129 668 l 258 76 l 406 518 l 486 518 l 631 76 l 751 668 l 836 668 l 685 0 l 589 0 l 446 425 l 303 0 l 206 0 m 288 776 l 288 863 l 382 863 l 382 776 l 288 776 m 500 776 l 500 863 l 593 863 l 593 776 l 500 776 z "},"ẁ":{"ha":881,"x_min":44,"x_max":836,"o":"m 206 0 l 44 668 l 129 668 l 258 76 l 406 518 l 486 518 l 631 76 l 751 668 l 836 668 l 685 0 l 589 0 l 446 425 l 303 0 l 206 0 m 524 744 q 458 804 507 758 q 389 874 408 850 l 321 954 l 393 1010 l 560 778 l 524 744 z "},"x":{"ha":572,"x_min":39,"x_max":533,"o":"m 39 0 l 240 342 l 47 668 l 133 668 l 289 393 l 433 668 l 521 668 l 340 342 l 533 0 l 450 0 l 290 288 l 128 0 l 39 0 z "},"y":{"ha":653,"x_min":35,"x_max":619,"o":"m 193 -264 q 82 -240 139 -264 l 94 -172 l 96 -171 q 188 -189 154 -189 q 243 -158 224 -189 q 275 -89 263 -128 q 292 -37 288 -50 l 310 18 l 35 668 l 128 668 l 347 113 l 528 668 l 619 668 l 385 -11 q 328 -157 351 -107 q 274 -235 306 -207 q 193 -264 242 -264 z "},"ý":{"ha":653,"x_min":35,"x_max":619,"o":"m 193 -264 q 82 -240 139 -264 l 94 -172 l 96 -171 q 188 -189 154 -189 q 243 -158 224 -189 q 275 -89 263 -128 q 292 -37 288 -50 l 310 18 l 35 668 l 128 668 l 347 113 l 528 668 l 619 668 l 385 -11 q 328 -157 351 -107 q 274 -235 306 -207 q 193 -264 242 -264 m 228 778 l 394 1010 l 467 954 l 400 881 q 331 808 381 856 q 264 744 281 760 l 228 778 z "},"ŷ":{"ha":653,"x_min":35,"x_max":619,"o":"m 193 -264 q 82 -240 139 -264 l 94 -172 l 96 -171 q 188 -189 154 -189 q 243 -158 224 -189 q 275 -89 263 -128 q 292 -37 288 -50 l 310 18 l 35 668 l 128 668 l 347 113 l 528 668 l 619 668 l 385 -11 q 328 -157 351 -107 q 274 -235 306 -207 q 193 -264 242 -264 m 124 815 q 154 850 125 817 q 292 993 239 943 l 363 993 q 490 860 396 960 l 529 815 l 471 761 l 326 922 l 182 761 l 124 815 z "},"ÿ":{"ha":653,"x_min":35,"x_max":619,"o":"m 193 -264 q 82 -240 139 -264 l 94 -172 l 96 -171 q 188 -189 154 -189 q 243 -158 224 -189 q 275 -89 263 -128 q 292 -37 288 -50 l 310 18 l 35 668 l 128 668 l 347 113 l 528 668 l 619 668 l 385 -11 q 328 -157 351 -107 q 274 -235 306 -207 q 193 -264 242 -264 m 174 776 l 174 863 l 268 863 l 268 776 l 174 776 m 386 776 l 386 863 l 479 863 l 479 776 l 386 776 z "},"ỵ":{"ha":653,"x_min":35,"x_max":619,"o":"m 193 -264 q 82 -240 139 -264 l 94 -172 l 96 -171 q 188 -189 154 -189 q 243 -158 224 -189 q 275 -89 263 -128 q 292 -37 288 -50 l 310 18 l 35 668 l 128 668 l 347 113 l 528 668 l 619 668 l 385 -11 q 328 -157 351 -107 q 274 -235 306 -207 q 193 -264 242 -264 m 438 -190 l 438 -86 l 531 -86 l 531 -190 l 438 -190 z "},"ỳ":{"ha":653,"x_min":35,"x_max":619,"o":"m 193 -264 q 82 -240 139 -264 l 94 -172 l 96 -171 q 188 -189 154 -189 q 243 -158 224 -189 q 275 -89 263 -128 q 292 -37 288 -50 l 310 18 l 35 668 l 128 668 l 347 113 l 528 668 l 619 668 l 385 -11 q 328 -157 351 -107 q 274 -235 306 -207 q 193 -264 242 -264 m 410 744 q 344 804 393 758 q 275 874 294 850 l 207 954 l 279 1010 l 446 778 l 410 744 z "},"ỷ":{"ha":653,"x_min":35,"x_max":619,"o":"m 193 -264 q 82 -240 139 -264 l 94 -172 l 96 -171 q 188 -189 154 -189 q 243 -158 224 -189 q 275 -89 263 -128 q 292 -37 288 -50 l 310 18 l 35 668 l 128 668 l 347 113 l 528 668 l 619 668 l 385 -11 q 328 -157 351 -107 q 274 -235 306 -207 q 193 -264 242 -264 m 290 817 q 372 835 342 821 q 403 888 403 850 q 387 924 403 911 q 343 936 371 936 q 276 922 314 936 l 267 976 q 360 997 315 997 q 449 969 417 997 q 481 893 481 942 q 354 783 481 796 l 361 739 l 290 739 l 290 817 z "},"ȳ":{"ha":653,"x_min":35,"x_max":619,"o":"m 193 -264 q 82 -240 139 -264 l 94 -172 l 96 -171 q 188 -189 154 -189 q 243 -158 224 -189 q 275 -89 263 -128 q 292 -37 288 -50 l 310 18 l 35 668 l 128 668 l 347 113 l 528 668 l 619 668 l 385 -11 q 328 -157 351 -107 q 274 -235 306 -207 q 193 -264 242 -264 m 164 774 l 164 846 l 490 846 l 490 774 l 164 774 z "},"ỹ":{"ha":653,"x_min":35,"x_max":619,"o":"m 193 -264 q 82 -240 139 -264 l 94 -172 l 96 -171 q 188 -189 154 -189 q 243 -158 224 -189 q 275 -89 263 -128 q 292 -37 288 -50 l 310 18 l 35 668 l 128 668 l 347 113 l 528 668 l 619 668 l 385 -11 q 328 -157 351 -107 q 274 -235 306 -207 q 193 -264 242 -264 m 111 819 l 113 819 q 166 907 142 882 q 224 932 190 932 q 273 922 244 932 q 350 892 301 913 q 384 878 357 889 q 426 868 411 868 q 456 881 443 868 q 489 926 468 893 l 543 896 q 490 815 517 839 q 428 790 464 790 q 306 826 389 790 q 263 845 282 838 q 231 853 243 853 q 199 838 213 853 q 165 788 185 824 l 111 819 z "},"z":{"ha":542,"x_min":81,"x_max":492,"o":"m 90 0 l 81 65 l 388 607 l 88 607 l 88 668 l 475 668 l 482 610 l 176 61 l 492 61 l 492 0 l 90 0 z "},"ź":{"ha":542,"x_min":81,"x_max":492,"o":"m 90 0 l 81 65 l 388 607 l 88 607 l 88 668 l 475 668 l 482 610 l 176 61 l 492 61 l 492 0 l 90 0 m 196 778 l 363 1010 l 435 954 l 368 881 q 299 808 349 856 q 232 744 249 760 l 196 778 z "},"ž":{"ha":542,"x_min":81,"x_max":492,"o":"m 90 0 l 81 65 l 388 607 l 88 607 l 88 668 l 475 668 l 482 610 l 176 61 l 492 61 l 492 0 l 90 0 m 294 749 q 260 768 276 749 q 106 958 161 883 l 165 1000 l 294 825 l 425 1000 l 485 958 q 329 768 424 875 q 294 749 314 749 z "},"ż":{"ha":542,"x_min":81,"x_max":492,"o":"m 90 0 l 81 65 l 388 607 l 88 607 l 88 668 l 475 668 l 482 610 l 176 61 l 492 61 l 492 0 l 90 0 m 249 782 l 249 886 l 342 886 l 342 782 l 249 782 z "},"ﬁ":{"ha":893,"x_min":42,"x_max":860,"o":"m 172 607 l 42 607 l 42 668 l 172 668 q 186 828 172 771 q 238 915 200 886 q 347 946 275 943 q 474 928 419 946 l 463 860 q 415 869 444 864 q 367 874 385 874 q 303 859 325 874 q 270 801 281 844 q 260 668 260 757 l 729 668 l 729 61 l 860 61 l 860 0 l 513 0 l 513 61 l 642 61 l 642 607 l 260 607 l 260 0 l 172 0 l 172 607 m 686 797 q 642 813 660 797 q 624 857 624 829 q 642 902 624 885 q 686 919 660 919 q 731 903 714 919 q 747 858 747 888 q 731 813 747 829 q 686 797 714 797 z "},"ﬂ":{"ha":928,"x_min":42,"x_max":894,"o":"m 172 606 l 42 606 l 42 668 l 172 668 q 192 815 172 761 q 262 895 211 869 q 408 921 313 921 l 751 921 l 751 61 l 894 61 l 894 0 l 513 0 l 513 61 l 664 61 l 664 860 l 428 860 q 326 846 361 860 q 276 792 292 832 q 260 668 260 751 l 411 668 l 411 606 l 260 606 l 260 0 l 172 0 l 172 606 z "},"ª":{"ha":501,"x_min":88,"x_max":410,"o":"m 214 461 q 121 497 154 461 q 88 597 88 532 q 124 700 88 668 q 236 736 161 732 l 336 735 q 321 829 335 801 q 258 857 307 857 l 244 857 l 243 858 q 172 844 200 854 q 129 811 144 833 l 101 858 q 257 918 158 918 q 342 901 313 918 q 385 842 372 883 q 397 728 397 801 l 397 574 l 397 561 q 399 546 397 551 q 406 535 400 540 l 410 469 q 364 463 371 463 q 342 517 344 479 q 214 461 282 461 m 229 521 q 336 585 300 521 l 336 683 l 288 681 l 278 681 q 208 676 233 681 q 165 655 182 672 q 149 601 149 638 q 167 539 149 557 q 229 521 186 521 z "},"º":{"ha":511,"x_min":83,"x_max":425,"o":"m 253 461 q 83 689 83 461 q 124 858 83 800 q 253 915 164 915 q 384 860 343 915 q 425 690 425 804 q 384 520 425 579 q 253 461 343 461 m 253 521 q 340 559 317 521 q 363 689 363 597 q 340 818 363 779 q 253 857 317 857 q 168 819 190 857 q 146 689 146 781 q 168 561 146 601 q 253 521 190 521 z "},"Δ":{"ha":733,"x_min":76,"x_max":658,"o":"m 76 0 l 315 908 l 435 908 l 658 0 l 76 0 m 167 69 l 568 69 l 382 844 l 365 844 l 167 69 z "},"Ω":{"ha":715,"x_min":94,"x_max":619,"o":"m 393 69 q 508 203 469 96 q 546 447 546 310 q 533 669 546 586 q 478 801 519 753 q 357 851 438 849 q 208 760 249 849 q 167 518 167 671 l 171 386 q 321 69 194 119 l 321 0 l 113 0 l 113 63 l 228 63 l 228 69 q 126 217 157 124 q 94 458 94 310 q 115 708 94 608 q 192 867 135 808 q 357 925 250 925 q 564 810 508 925 q 619 482 619 696 q 589 222 619 318 q 486 69 558 125 l 610 69 l 610 0 l 393 0 l 393 69 z "},"μ":{"ha":668,"x_min":89,"x_max":569,"o":"m 90 -210 l 89 -210 q 108 -44 108 -147 l 108 668 l 183 668 l 183 233 q 213 104 183 146 q 308 63 242 63 q 392 76 357 63 q 482 122 428 89 q 494 281 494 204 l 494 668 l 569 668 l 569 0 l 497 0 l 497 68 l 439 29 q 299 -15 368 -15 q 229 -1 261 -15 q 178 38 197 14 l 182 -46 q 157 -222 182 -162 l 90 -210 z "},"π":{"ha":817,"x_min":76,"x_max":735,"o":"m 182 0 q 219 617 211 251 q 83 608 140 617 l 76 678 l 78 678 q 260 692 146 692 l 735 692 l 735 617 l 614 617 l 614 190 q 622 0 614 86 l 546 0 q 538 183 538 90 l 538 617 l 294 617 q 260 0 290 294 l 182 0 z "},"¹":{"ha":443,"x_min":60,"x_max":376,"o":"m 88 331 l 88 403 l 203 403 l 203 876 l 90 829 l 60 886 l 214 953 l 278 953 l 278 403 l 376 403 l 376 331 l 88 331 z "},"²":{"ha":525,"x_min":69,"x_max":446,"o":"m 83 331 q 107 447 83 396 q 163 533 131 497 q 253 621 196 569 q 335 708 308 671 q 363 789 363 744 q 336 870 363 843 q 249 897 310 897 q 160 880 199 897 q 97 844 121 863 l 69 913 q 157 951 118 939 q 253 964 196 964 q 397 915 347 964 q 446 793 446 867 q 410 683 446 731 q 303 571 374 635 q 215 483 246 519 q 172 403 183 446 l 432 403 l 432 331 l 83 331 z "},"³":{"ha":499,"x_min":56,"x_max":444,"o":"m 221 329 q 56 356 133 329 l 74 421 q 148 403 107 410 q 222 396 189 396 q 331 422 292 396 q 369 513 369 447 q 329 600 369 569 q 231 631 289 631 q 135 619 188 631 l 128 685 q 292 722 239 697 q 344 804 344 747 q 314 874 344 850 q 226 897 283 897 q 74 871 150 897 l 56 935 q 224 964 150 964 q 365 924 313 964 q 418 810 418 883 q 392 722 418 756 q 317 669 365 689 q 408 609 372 654 q 444 507 444 564 q 381 372 444 414 q 221 329 317 329 z "},"⁴":{"ha":481,"x_min":38,"x_max":447,"o":"m 294 331 l 294 454 l 38 454 l 38 517 l 206 953 l 272 953 l 111 519 l 294 519 l 294 717 l 369 717 l 369 519 l 447 519 l 447 454 l 369 454 l 369 331 l 294 331 z "},"⁄":{"ha":551,"x_min":74,"x_max":458,"o":"m 74 0 l 389 871 l 458 871 l 143 0 l 74 0 z "},"½":{"ha":1176,"x_min":60,"x_max":1115,"o":"m 88 249 l 88 321 l 203 321 l 203 794 l 90 747 l 60 804 l 214 871 l 278 871 l 278 321 l 376 321 l 376 249 l 88 249 m 367 0 l 682 871 l 751 871 l 436 0 l 367 0 m 753 0 q 776 116 753 65 q 833 203 800 167 q 922 290 865 239 q 1005 377 978 340 q 1032 458 1032 414 q 1006 540 1032 513 q 918 567 979 567 q 829 549 868 567 q 767 514 790 532 l 739 582 q 826 621 788 608 q 922 633 865 633 q 1066 585 1017 633 q 1115 463 1115 536 q 1079 352 1115 400 q 972 240 1043 304 q 884 152 915 189 q 842 72 853 115 l 1101 72 l 1101 0 l 753 0 z "},"¼":{"ha":1132,"x_min":60,"x_max":1072,"o":"m 88 249 l 88 321 l 203 321 l 203 794 l 90 747 l 60 804 l 214 871 l 278 871 l 278 321 l 376 321 l 376 249 l 88 249 m 363 0 l 678 871 l 747 871 l 432 0 l 363 0 m 919 0 l 919 124 l 663 124 l 663 186 l 831 622 l 897 622 l 736 189 l 919 189 l 919 386 l 994 386 l 994 189 l 1072 189 l 1072 124 l 994 124 l 994 0 l 919 0 z "},"¾":{"ha":1203,"x_min":61,"x_max":1142,"o":"m 226 253 q 61 279 139 253 l 79 344 q 153 326 113 333 q 228 319 194 319 q 336 345 297 319 q 375 436 375 371 q 335 524 375 493 q 236 554 294 554 q 140 543 193 554 l 133 608 q 297 646 244 621 q 350 728 350 671 q 319 797 350 774 q 232 821 289 821 q 79 794 156 821 l 61 858 q 229 888 156 888 q 371 847 318 888 q 424 733 424 807 q 397 646 424 679 q 322 593 371 613 q 414 533 378 578 q 450 431 450 488 q 386 295 450 338 q 226 253 322 253 m 435 0 l 750 871 l 819 871 l 504 0 l 435 0 m 989 0 l 989 124 l 732 124 l 732 186 l 900 622 l 967 622 l 806 189 l 989 189 l 989 386 l 1064 386 l 1064 189 l 1142 189 l 1142 124 l 1064 124 l 1064 0 l 989 0 z "},"*":{"ha":626,"x_min":74,"x_max":550,"o":"m 194 511 l 144 547 l 261 707 l 74 771 l 90 829 l 282 767 l 282 967 l 343 967 l 343 767 l 533 829 l 550 772 l 363 707 l 481 547 l 431 511 l 313 671 l 194 511 z "},"\\":{"ha":600,"x_min":57,"x_max":532,"o":"m 481 -65 l 57 971 l 108 999 l 532 -37 l 481 -65 z "},"·":{"ha":307,"x_min":146,"x_max":254,"o":"m 146 376 l 146 506 l 254 506 l 254 376 l 146 376 z "},"•":{"ha":479,"x_min":99,"x_max":381,"o":"m 239 254 q 140 295 181 254 q 99 394 99 336 q 140 494 99 453 q 239 536 181 536 q 340 494 299 536 q 381 394 381 453 q 340 295 381 336 q 239 254 299 254 z "},":":{"ha":326,"x_min":99,"x_max":208,"o":"m 99 433 l 99 571 l 208 571 l 208 433 l 99 433 m 99 32 l 99 165 l 208 165 l 208 32 l 99 32 z "},",":{"ha":333,"x_min":101,"x_max":232,"o":"m 107 -150 q 165 0 163 -65 l 101 0 l 101 143 l 232 143 l 232 26 q 209 -83 232 -35 q 139 -186 186 -132 l 107 -150 z "},"…":{"ha":929,"x_min":104,"x_max":825,"o":"m 717 0 l 717 138 l 825 138 l 825 0 l 717 0 m 411 0 l 411 138 l 519 138 l 519 0 l 411 0 m 104 0 l 104 138 l 213 138 l 213 0 l 104 0 z "},"!":{"ha":303,"x_min":103,"x_max":200,"o":"m 129 232 l 103 871 l 196 871 l 169 232 l 129 232 m 107 0 l 107 104 l 200 104 l 200 0 l 107 0 z "},"¡":{"ha":303,"x_min":103,"x_max":200,"o":"m 196 782 l 196 678 l 103 678 l 103 782 l 196 782 m 174 550 l 200 -89 l 107 -89 l 133 550 l 174 550 z "},"#":{"ha":733,"x_min":86,"x_max":646,"o":"m 171 63 l 200 304 l 86 304 l 86 375 l 208 375 l 238 629 l 110 629 l 110 699 l 244 699 l 271 925 l 342 925 l 317 699 l 463 699 l 489 925 l 558 925 l 533 699 l 646 699 l 646 629 l 525 629 l 497 375 l 622 375 l 622 304 l 489 304 l 461 63 l 389 63 l 417 304 l 271 304 l 243 63 l 171 63 m 276 375 l 428 375 l 457 629 l 306 629 l 276 375 z "},".":{"ha":307,"x_min":99,"x_max":207,"o":"m 99 0 l 99 138 l 207 138 l 207 0 l 99 0 z "},"?":{"ha":597,"x_min":69,"x_max":519,"o":"m 244 199 q 237 253 242 211 q 231 308 232 294 q 258 402 231 360 q 339 504 285 444 q 413 594 388 556 q 439 676 439 633 q 406 772 439 735 q 311 810 372 810 q 201 790 247 810 q 107 726 154 769 l 69 781 q 170 853 107 824 q 304 882 233 882 q 460 827 400 882 q 519 682 519 772 q 490 569 519 615 q 401 465 460 522 q 322 373 349 413 q 296 279 296 333 q 301 199 296 257 l 244 199 m 233 -4 l 233 92 l 318 92 l 318 -4 l 233 -4 z "},"¿":{"ha":597,"x_min":69,"x_max":519,"o":"m 356 772 l 356 676 l 271 676 l 271 772 l 356 772 m 344 569 q 353 515 349 557 q 358 460 357 474 q 331 366 358 408 q 250 264 304 324 q 176 174 201 213 q 150 92 150 135 q 183 -4 150 33 q 278 -42 217 -42 q 388 -22 342 -42 q 482 42 435 -1 l 519 -12 q 419 -85 482 -56 q 285 -114 356 -114 q 129 -59 189 -114 q 69 86 69 -4 q 99 199 69 153 q 188 303 129 246 q 267 395 240 356 q 293 489 293 435 q 288 569 293 511 l 344 569 z "},"\"":{"ha":431,"x_min":85,"x_max":346,"o":"m 85 644 l 85 957 l 167 957 l 167 833 l 161 644 l 85 644 m 263 644 l 263 957 l 346 957 l 342 825 l 342 644 l 263 644 z "},"'":{"ha":251,"x_min":85,"x_max":168,"o":"m 85 644 l 85 957 l 168 957 l 163 822 l 163 644 l 85 644 z "},";":{"ha":314,"x_min":93,"x_max":219,"o":"m 99 432 l 99 574 l 208 574 l 208 432 l 99 432 m 93 -90 q 151 58 147 -7 l 101 58 l 101 204 l 219 204 l 219 88 q 196 -24 219 25 q 125 -126 172 -72 l 93 -90 z "}}}
